Sprat-Extended.ufo
<glyph name="exclam" format="2">
  <advance width="350"/>
  <unicode hex="0021"/>
  <outline>
    <contour>
      <point x="150" y="199" type="line"/>
      <point x="200" y="199" type="line"/>
      <point x="230" y="700" type="line"/>
      <point x="120" y="700" type="line"/>
    </contour>
    <contour>
      <point x="175" y="-15" type="curve" smooth="yes"/>
      <point x="223" y="-15"/>
      <point x="250" y="10"/>
      <point x="250" y="45" type="curve" smooth="yes"/>
      <point x="250" y="80"/>
      <point x="223" y="105"/>
      <point x="175" y="105" type="curve" smooth="yes"/>
      <point x="127" y="105"/>
      <point x="100" y="80"/>
      <point x="100" y="45" type="curve" smooth="yes"/>
      <point x="100" y="10"/>
      <point x="127" y="-15"/>
    </contour>
  </outline>
</glyph>
<glyph name="quotedbl" format="2">
  <advance width="552"/>
  <unicode hex="0022"/>
  <outline>
    <contour>
      <point x="368" y="481" type="line"/>
      <point x="438" y="510"/>
      <point x="455" y="567"/>
      <point x="455" y="654" type="curve" smooth="yes"/>
      <point x="455" y="691"/>
      <point x="425" y="714"/>
      <point x="380" y="714" type="curve" smooth="yes"/>
      <point x="333" y="714"/>
      <point x="305" y="689"/>
      <point x="305" y="654" type="curve" smooth="yes"/>
      <point x="305" y="619"/>
      <point x="332" y="594"/>
      <point x="380" y="594" type="curve" smooth="yes"/>
      <point x="394" y="594"/>
      <point x="411" y="595"/>
      <point x="424" y="603" type="curve"/>
      <point x="424" y="548"/>
      <point x="397" y="514"/>
      <point x="361" y="497" type="curve"/>
    </contour>
    <contour>
      <point x="138" y="481" type="line"/>
      <point x="208" y="510"/>
      <point x="225" y="567"/>
      <point x="225" y="654" type="curve" smooth="yes"/>
      <point x="225" y="691"/>
      <point x="195" y="714"/>
      <point x="150" y="714" type="curve" smooth="yes"/>
      <point x="103" y="714"/>
      <point x="75" y="689"/>
      <point x="75" y="654" type="curve" smooth="yes"/>
      <point x="75" y="619"/>
      <point x="102" y="594"/>
      <point x="150" y="594" type="curve" smooth="yes"/>
      <point x="164" y="594"/>
      <point x="181" y="595"/>
      <point x="194" y="603" type="curve"/>
      <point x="194" y="548"/>
      <point x="167" y="514"/>
      <point x="131" y="497" type="curve"/>
    </contour>
  </outline>
</glyph>
<glyph name="numbersign" format="2">
  <advance width="796"/>
  <unicode hex="0023"/>
  <outline>
    <contour>
      <point x="265" y="610" type="line"/>
      <point x="90" y="0" type="line"/>
      <point x="153" y="0" type="line"/>
      <point x="328" y="610" type="line"/>
    </contour>
    <contour>
      <point x="615" y="610" type="line"/>
      <point x="440" y="0" type="line"/>
      <point x="503" y="0" type="line"/>
      <point x="678" y="610" type="line"/>
    </contour>
    <contour>
      <point x="123" y="430" type="line"/>
      <point x="123" y="398" type="line"/>
      <point x="722" y="398" type="line"/>
      <point x="722" y="430" type="line"/>
    </contour>
    <contour>
      <point x="83" y="230" type="line"/>
      <point x="83" y="198" type="line"/>
      <point x="677" y="198" type="line"/>
      <point x="677" y="230" type="line"/>
    </contour>
  </outline>
</glyph>
<glyph name="dollar" format="2">
  <advance width="1056"/>
  <unicode hex="0024"/>
  <outline>
    <contour>
      <point x="94" y="327" type="line"/>
      <point x="129" y="48" type="line"/>
      <point x="203" y="-22"/>
      <point x="350" y="-79"/>
      <point x="539" y="-79" type="curve" smooth="yes"/>
      <point x="781" y="-79"/>
      <point x="970" y="-7"/>
      <point x="970" y="136" type="curve" smooth="yes"/>
      <point x="970" y="399"/>
      <point x="260" y="244"/>
      <point x="260" y="489" type="curve" smooth="yes"/>
      <point x="260" y="586"/>
      <point x="422" y="605"/>
      <point x="519" y="605" type="curve" smooth="yes"/>
      <point x="653" y="605"/>
      <point x="805" y="553"/>
      <point x="884" y="345" type="curve"/>
      <point x="896" y="345" type="line"/>
      <point x="843" y="567" type="line"/>
      <point x="768" y="607"/>
      <point x="662" y="630"/>
      <point x="519" y="630" type="curve" smooth="yes"/>
      <point x="326" y="630"/>
      <point x="162" y="566"/>
      <point x="163" y="434" type="curve" smooth="yes"/>
      <point x="166" y="169"/>
      <point x="877" y="300"/>
      <point x="877" y="93" type="curve" smooth="yes"/>
      <point x="877" y="-12"/>
      <point x="718" y="-54"/>
      <point x="553" y="-54" type="curve" smooth="yes"/>
      <point x="307" y="-54"/>
      <point x="177" y="29"/>
      <point x="106" y="327" type="curve"/>
    </contour>
    <contour>
      <point x="368" y="597" type="line"/>
      <point x="393" y="597" type="line"/>
      <point x="393" y="760" type="line"/>
      <point x="368" y="760" type="line"/>
    </contour>
    <contour>
      <point x="645" y="597" type="line"/>
      <point x="670" y="597" type="line"/>
      <point x="670" y="760" type="line"/>
      <point x="645" y="760" type="line"/>
    </contour>
    <contour>
      <point x="368" y="-213" type="line"/>
      <point x="393" y="-213" type="line"/>
      <point x="393" y="-50" type="line"/>
      <point x="368" y="-50" type="line"/>
    </contour>
    <contour>
      <point x="645" y="-216" type="line"/>
      <point x="670" y="-216" type="line"/>
      <point x="670" y="-53" type="line"/>
      <point x="645" y="-53" type="line"/>
    </contour>
  </outline>
</glyph>
<glyph name="percent" format="2">
  <advance width="974"/>
  <unicode hex="0025"/>
  <outline>
    <contour>
      <point x="144" y="0" type="line"/>
      <point x="182" y="0" type="line"/>
      <point x="891" y="715" type="line"/>
      <point x="853" y="715" type="line"/>
    </contour>
    <contour>
      <point x="304" y="463" type="curve" smooth="yes"/>
      <point x="402" y="463"/>
      <point x="481" y="519"/>
      <point x="481" y="589" type="curve" smooth="yes"/>
      <point x="481" y="657"/>
      <point x="402" y="713"/>
      <point x="304" y="713" type="curve" smooth="yes"/>
      <point x="206" y="713"/>
      <point x="127" y="657"/>
      <point x="127" y="589" type="curve" smooth="yes"/>
      <point x="127" y="519"/>
      <point x="206" y="463"/>
    </contour>
    <contour>
      <point x="456" y="589" type="curve" smooth="yes"/>
      <point x="456" y="539"/>
      <point x="380" y="513"/>
      <point x="304" y="513" type="curve" smooth="yes"/>
      <point x="228" y="513"/>
      <point x="152" y="539"/>
      <point x="152" y="589" type="curve" smooth="yes"/>
      <point x="152" y="639"/>
      <point x="226" y="663"/>
      <point x="302" y="663" type="curve" smooth="yes"/>
      <point x="378" y="663"/>
      <point x="456" y="638"/>
    </contour>
    <contour>
      <point x="699" y="-15" type="curve" smooth="yes"/>
      <point x="797" y="-15"/>
      <point x="876" y="41"/>
      <point x="876" y="111" type="curve" smooth="yes"/>
      <point x="876" y="179"/>
      <point x="797" y="235"/>
      <point x="699" y="235" type="curve" smooth="yes"/>
      <point x="601" y="235"/>
      <point x="522" y="179"/>
      <point x="522" y="111" type="curve" smooth="yes"/>
      <point x="522" y="41"/>
      <point x="601" y="-15"/>
    </contour>
    <contour>
      <point x="851" y="111" type="curve" smooth="yes"/>
      <point x="851" y="60"/>
      <point x="775" y="35"/>
      <point x="698" y="35" type="curve" smooth="yes"/>
      <point x="623" y="35"/>
      <point x="547" y="60"/>
      <point x="547" y="111" type="curve" smooth="yes"/>
      <point x="547" y="161"/>
      <point x="622" y="185"/>
      <point x="697" y="185" type="curve" smooth="yes"/>
      <point x="774" y="185"/>
      <point x="851" y="160"/>
    </contour>
  </outline>
</glyph>
<glyph name="ampersand" format="2">
  <advance width="1199"/>
  <unicode hex="0026"/>
  <outline>
    <contour>
      <point x="1121" y="140" type="curve"/>
      <point x="1097" y="143" type="line"/>
      <point x="1086" y="72"/>
      <point x="1061" y="43"/>
      <point x="1026" y="43" type="curve" smooth="yes"/>
      <point x="991" y="43"/>
      <point x="945" y="72"/>
      <point x="882" y="114" type="curve" smooth="yes"/>
      <point x="373" y="459" type="line" smooth="yes"/>
      <point x="295" y="512"/>
      <point x="263" y="559"/>
      <point x="263" y="590" type="curve" smooth="yes"/>
      <point x="263" y="652"/>
      <point x="324" y="678"/>
      <point x="406" y="678" type="curve" smooth="yes"/>
      <point x="526" y="678"/>
      <point x="691" y="621"/>
      <point x="766" y="538" type="curve"/>
      <point x="776" y="538" type="line"/>
      <point x="735" y="677" type="line"/>
      <point x="670" y="702"/>
      <point x="584" y="715"/>
      <point x="501" y="715" type="curve" smooth="yes"/>
      <point x="345" y="715"/>
      <point x="195" y="669"/>
      <point x="195" y="567" type="curve" smooth="yes"/>
      <point x="195" y="512"/>
      <point x="227" y="459"/>
      <point x="306" y="405" type="curve" smooth="yes"/>
      <point x="789" y="73" type="line" smooth="yes"/>
      <point x="877" y="12"/>
      <point x="940" y="-14"/>
      <point x="993" y="-14" type="curve" smooth="yes"/>
      <point x="1086" y="-14"/>
      <point x="1110" y="46"/>
    </contour>
    <contour>
      <point x="502" y="-15" type="curve" smooth="yes"/>
      <point x="772" y="-15"/>
      <point x="1002" y="83"/>
      <point x="1002" y="431" type="curve"/>
      <point x="905" y="431" type="line"/>
      <point x="907" y="136"/>
      <point x="756" y="10"/>
      <point x="542" y="10" type="curve" smooth="yes"/>
      <point x="358" y="10"/>
      <point x="198" y="99"/>
      <point x="198" y="221" type="curve" smooth="yes"/>
      <point x="198" y="311"/>
      <point x="273" y="389"/>
      <point x="375" y="404" type="curve"/>
      <point x="321" y="409" type="line"/>
      <point x="154" y="364"/>
      <point x="80" y="285"/>
      <point x="80" y="207" type="curve" smooth="yes"/>
      <point x="80" y="94"/>
      <point x="236" y="-15"/>
    </contour>
    <contour>
      <point x="568" y="431" type="line"/>
      <point x="1002" y="431" type="line"/>
      <point x="1002" y="456" type="line"/>
      <point x="568" y="456" type="line"/>
    </contour>
  </outline>
</glyph>
<glyph name="quotesingle" format="2">
  <advance width="323"/>
  <unicode hex="0027"/>
  <outline>
    <contour>
      <point x="138" y="481" type="line"/>
      <point x="208" y="510"/>
      <point x="231" y="567"/>
      <point x="225" y="654" type="curve" smooth="yes"/>
      <point x="222" y="691"/>
      <point x="195" y="714"/>
      <point x="150" y="714" type="curve" smooth="yes"/>
      <point x="103" y="714"/>
      <point x="75" y="689"/>
      <point x="75" y="654" type="curve" smooth="yes"/>
      <point x="75" y="619"/>
      <point x="102" y="594"/>
      <point x="150" y="594" type="curve" smooth="yes"/>
      <point x="164" y="594"/>
      <point x="181" y="595"/>
      <point x="194" y="603" type="curve"/>
      <point x="200" y="548"/>
      <point x="167" y="514"/>
      <point x="131" y="497" type="curve"/>
    </contour>
  </outline>
</glyph>
<glyph name="parenleft" format="2">
  <advance width="448"/>
  <unicode hex="0028"/>
  <outline>
    <contour>
      <point x="396" y="-162" type="curve"/>
      <point x="402" y="-145" type="line"/>
      <point x="225" y="-55"/>
      <point x="135" y="110"/>
      <point x="134" y="300" type="curve" smooth="yes"/>
      <point x="133" y="492"/>
      <point x="224" y="659"/>
      <point x="406" y="746" type="curve"/>
      <point x="399" y="762" type="line"/>
      <point x="205" y="679"/>
      <point x="65" y="505"/>
      <point x="64" y="300" type="curve" smooth="yes"/>
      <point x="63" y="95"/>
      <point x="203" y="-79"/>
    </contour>
  </outline>
</glyph>
<glyph name="parenright" format="2">
  <advance width="448"/>
  <unicode hex="0029"/>
  <outline>
    <contour>
      <point x="52" y="-162" type="line"/>
      <point x="245" y="-79"/>
      <point x="385" y="95"/>
      <point x="384" y="300" type="curve" smooth="yes"/>
      <point x="383" y="505"/>
      <point x="243" y="679"/>
      <point x="49" y="762" type="curve"/>
      <point x="42" y="746" type="line"/>
      <point x="222" y="657"/>
      <point x="315" y="491"/>
      <point x="314" y="300" type="curve" smooth="yes"/>
      <point x="313" y="110"/>
      <point x="223" y="-55"/>
      <point x="46" y="-145" type="curve"/>
    </contour>
  </outline>
</glyph>
<glyph name="asterisk" format="2">
  <advance width="661"/>
  <unicode hex="002A"/>
  <outline>
    <contour>
      <point x="571" y="588" type="line"/>
      <point x="543" y="638" type="line"/>
      <point x="339" y="526" type="line"/>
      <point x="358" y="715" type="line"/>
      <point x="301" y="715" type="line"/>
      <point x="321" y="526" type="line"/>
      <point x="118" y="638" type="line"/>
      <point x="90" y="588" type="line"/>
      <point x="308" y="513" type="line"/>
      <point x="90" y="436" type="line"/>
      <point x="118" y="386" type="line"/>
      <point x="321" y="499" type="line"/>
      <point x="301" y="309" type="line"/>
      <point x="358" y="309" type="line"/>
      <point x="339" y="499" type="line"/>
      <point x="543" y="386" type="line"/>
      <point x="571" y="436" type="line"/>
      <point x="353" y="513" type="line"/>
    </contour>
  </outline>
</glyph>
<glyph name="plus" format="2">
  <advance width="1013"/>
  <unicode hex="002B"/>
  <outline>
    <contour>
      <point x="100" y="271" type="line"/>
      <point x="100" y="241" type="line"/>
      <point x="913" y="241" type="line"/>
      <point x="913" y="271" type="line"/>
    </contour>
    <contour>
      <point x="494" y="10" type="line"/>
      <point x="519" y="10" type="line"/>
      <point x="519" y="492" type="line"/>
      <point x="494" y="492" type="line"/>
    </contour>
  </outline>
</glyph>
<glyph name="comma" format="2">
  <advance width="355"/>
  <unicode hex="002C"/>
  <outline>
    <contour>
      <point x="126" y="-162" type="line"/>
      <point x="203" y="-145"/>
      <point x="244" y="-70"/>
      <point x="244" y="40" type="curve" smooth="yes"/>
      <point x="244" y="86"/>
      <point x="217" y="108"/>
      <point x="169" y="108" type="curve" smooth="yes"/>
      <point x="121" y="108"/>
      <point x="94" y="80"/>
      <point x="94" y="45" type="curve" smooth="yes"/>
      <point x="94" y="10"/>
      <point x="121" y="-15"/>
      <point x="169" y="-15" type="curve" smooth="yes"/>
      <point x="186" y="-15"/>
      <point x="199" y="-15"/>
      <point x="213" y="-7" type="curve"/>
      <point x="213" y="-62"/>
      <point x="180" y="-132"/>
      <point x="122" y="-144" type="curve"/>
    </contour>
  </outline>
</glyph>
<glyph name="hyphen" format="2">
  <advance width="500"/>
  <unicode hex="002D"/>
  <outline>
    <contour>
      <point x="94" y="266" type="line"/>
      <point x="94" y="241" type="line"/>
      <point x="406" y="241" type="line"/>
      <point x="406" y="266" type="line"/>
    </contour>
  </outline>
</glyph>
<glyph name="period" format="2">
  <advance width="392"/>
  <unicode hex="002E"/>
  <outline>
    <contour>
      <point x="195" y="-15" type="curve" smooth="yes"/>
      <point x="243" y="-15"/>
      <point x="270" y="10"/>
      <point x="270" y="45" type="curve" smooth="yes"/>
      <point x="270" y="80"/>
      <point x="243" y="105"/>
      <point x="195" y="105" type="curve" smooth="yes"/>
      <point x="147" y="105"/>
      <point x="120" y="80"/>
      <point x="120" y="45" type="curve" smooth="yes"/>
      <point x="120" y="10"/>
      <point x="147" y="-15"/>
    </contour>
  </outline>
</glyph>
<glyph name="zero" format="2">
  <advance width="1115"/>
  <unicode hex="0030"/>
  <outline>
    <contour>
      <point x="559" y="-15" type="curve" smooth="yes"/>
      <point x="822" y="-15"/>
      <point x="1049" y="123"/>
      <point x="1049" y="345" type="curve" smooth="yes"/>
      <point x="1049" y="566"/>
      <point x="822" y="715"/>
      <point x="559" y="715" type="curve" smooth="yes"/>
      <point x="295" y="715"/>
      <point x="66" y="566"/>
      <point x="66" y="345" type="curve" smooth="yes"/>
      <point x="66" y="123"/>
      <point x="295" y="-15"/>
    </contour>
    <contour>
      <point x="560" y="80" type="curve" smooth="yes"/>
      <point x="292" y="80"/>
      <point x="91" y="179"/>
      <point x="91" y="347" type="curve" smooth="yes"/>
      <point x="91" y="520"/>
      <point x="292" y="620"/>
      <point x="560" y="620" type="curve" smooth="yes"/>
      <point x="843" y="620"/>
      <point x="1024" y="520"/>
      <point x="1024" y="347" type="curve" smooth="yes"/>
      <point x="1024" y="179"/>
      <point x="842" y="80"/>
    </contour>
  </outline>
</glyph>
<glyph name="one" format="2">
  <advance width="670"/>
  <unicode hex="0031"/>
  <outline>
    <contour>
      <point x="411" y="124" type="curve" smooth="yes"/>
      <point x="411" y="700" type="line"/>
      <point x="346" y="700" type="line"/>
      <point x="266" y="618"/>
      <point x="125" y="581"/>
      <point x="46" y="577" type="curve"/>
      <point x="46" y="551" type="line"/>
      <point x="121" y="555"/>
      <point x="235" y="572"/>
      <point x="311" y="624" type="curve"/>
      <point x="311" y="124" type="line" smooth="yes"/>
      <point x="311" y="33"/>
      <point x="186" y="15"/>
      <point x="91" y="10" type="curve"/>
      <point x="91" y="0" type="line"/>
      <point x="631" y="0" type="line"/>
      <point x="631" y="10" type="line"/>
      <point x="537" y="18"/>
      <point x="411" y="33"/>
    </contour>
  </outline>
</glyph>
<glyph name="two" format="2">
  <advance width="1009"/>
  <unicode hex="0032"/>
  <outline>
    <contour>
      <point x="645" y="-15" type="curve" smooth="yes"/>
      <point x="829" y="-15"/>
      <point x="920" y="13"/>
      <point x="920" y="162" type="curve"/>
      <point x="895" y="162" type="line"/>
      <point x="895" y="85"/>
      <point x="867" y="59"/>
      <point x="770" y="59" type="curve" smooth="yes"/>
      <point x="624" y="59"/>
      <point x="351" y="175"/>
      <point x="281" y="165" type="curve"/>
      <point x="446" y="284"/>
      <point x="947" y="287"/>
      <point x="947" y="500" type="curve" smooth="yes"/>
      <point x="947" y="600"/>
      <point x="780" y="715"/>
      <point x="504" y="715" type="curve" smooth="yes"/>
      <point x="379" y="715"/>
      <point x="218" y="690"/>
      <point x="93" y="637" type="curve"/>
      <point x="66" y="470" type="line"/>
      <point x="76" y="470" type="line"/>
      <point x="145" y="606"/>
      <point x="312" y="689"/>
      <point x="486" y="689" type="curve" smooth="yes"/>
      <point x="648" y="689"/>
      <point x="832" y="613"/>
      <point x="832" y="505" type="curve" smooth="yes"/>
      <point x="832" y="312"/>
      <point x="470" y="330"/>
      <point x="210" y="151" type="curve" smooth="yes"/>
      <point x="140" y="103"/>
      <point x="76" y="44"/>
      <point x="61" y="0" type="curve"/>
      <point x="87" y="0" type="line"/>
      <point x="113" y="40"/>
      <point x="142" y="70"/>
      <point x="162" y="83" type="curve" smooth="yes"/>
      <point x="179" y="94"/>
      <point x="199" y="98"/>
      <point x="222" y="96" type="curve" smooth="yes"/>
      <point x="327" y="91"/>
      <point x="488" y="-15"/>
    </contour>
  </outline>
</glyph>
<glyph name="three" format="2">
  <advance width="1078"/>
  <unicode hex="0033"/>
  <outline>
    <contour>
      <point x="498" y="-15" type="curve" smooth="yes"/>
      <point x="827" y="-15"/>
      <point x="1014" y="59"/>
      <point x="1014" y="197" type="curve" smooth="yes"/>
      <point x="1014" y="282"/>
      <point x="903" y="364"/>
      <point x="689" y="399" type="curve"/>
      <point x="865" y="426"/>
      <point x="995" y="461"/>
      <point x="995" y="551" type="curve" smooth="yes"/>
      <point x="995" y="642"/>
      <point x="812" y="715"/>
      <point x="564" y="715" type="curve" smooth="yes"/>
      <point x="440" y="715"/>
      <point x="284" y="689"/>
      <point x="162" y="637" type="curve"/>
      <point x="135" y="470" type="line"/>
      <point x="145" y="470" type="line"/>
      <point x="214" y="606"/>
      <point x="382" y="690"/>
      <point x="555" y="690" type="curve" smooth="yes"/>
      <point x="735" y="690"/>
      <point x="880" y="611"/>
      <point x="880" y="544" type="curve" smooth="yes"/>
      <point x="880" y="465"/>
      <point x="722" y="413"/>
      <point x="532" y="413" type="curve" smooth="yes"/>
      <point x="411" y="413" type="line"/>
      <point x="388" y="388" type="line"/>
      <point x="532" y="388" type="line" smooth="yes"/>
      <point x="698" y="388"/>
      <point x="899" y="305"/>
      <point x="899" y="203" type="curve" smooth="yes"/>
      <point x="899" y="83"/>
      <point x="724" y="16"/>
      <point x="509" y="10" type="curve" smooth="yes"/>
      <point x="301" y="5"/>
      <point x="134" y="94"/>
      <point x="65" y="230" type="curve"/>
      <point x="55" y="230" type="line"/>
      <point x="82" y="63" type="line"/>
      <point x="197" y="14"/>
      <point x="354" y="-15"/>
    </contour>
  </outline>
</glyph>
<glyph name="four" format="2">
  <advance width="992"/>
  <unicode hex="0034"/>
  <outline>
    <contour>
      <point x="759" y="124" type="curve" smooth="yes"/>
      <point x="759" y="274" type="line"/>
      <point x="888" y="274" type="line"/>
      <point x="888" y="406" type="line"/>
      <point x="878" y="406" type="line"/>
      <point x="878" y="366"/>
      <point x="859" y="354"/>
      <point x="812" y="354" type="curve" smooth="yes"/>
      <point x="759" y="354" type="line"/>
      <point x="759" y="700" type="line"/>
      <point x="659" y="700" type="line"/>
      <point x="51" y="354" type="line"/>
      <point x="51" y="274" type="line"/>
      <point x="659" y="274" type="line"/>
      <point x="659" y="124" type="line" smooth="yes"/>
      <point x="659" y="36"/>
      <point x="554" y="15"/>
      <point x="469" y="10" type="curve"/>
      <point x="469" y="0" type="line"/>
      <point x="949" y="0" type="line"/>
      <point x="949" y="10" type="line"/>
      <point x="865" y="18"/>
      <point x="759" y="39"/>
    </contour>
    <contour>
      <point x="105" y="354" type="line"/>
      <point x="659" y="669" type="line"/>
      <point x="659" y="354" type="line"/>
    </contour>
  </outline>
</glyph>
<glyph name="five" format="2">
  <advance width="1008"/>
  <unicode hex="0035"/>
  <outline>
    <contour>
      <point x="879" y="568" type="curve"/>
      <point x="889" y="568" type="line"/>
      <point x="889" y="700" type="line"/>
      <point x="104" y="700" type="line"/>
      <point x="104" y="620" type="line"/>
      <point x="805" y="620" type="line"/>
      <point x="858" y="620"/>
      <point x="879" y="608"/>
    </contour>
    <contour>
      <point x="87" y="208" type="line"/>
      <point x="131" y="32" type="line"/>
      <point x="193" y="3"/>
      <point x="313" y="-15"/>
      <point x="453" y="-15" type="curve" smooth="yes"/>
      <point x="774" y="-15"/>
      <point x="946" y="121"/>
      <point x="946" y="253" type="curve" smooth="yes"/>
      <point x="946" y="384"/>
      <point x="787" y="515"/>
      <point x="472" y="515" type="curve" smooth="yes"/>
      <point x="282" y="515"/>
      <point x="186" y="479"/>
      <point x="129" y="403" type="curve"/>
      <point x="129" y="631" type="line"/>
      <point x="104" y="631" type="line"/>
      <point x="104" y="357" type="line"/>
      <point x="129" y="357" type="line"/>
      <point x="177" y="454"/>
      <point x="289" y="490"/>
      <point x="436" y="490" type="curve" smooth="yes"/>
      <point x="694" y="490"/>
      <point x="831" y="366"/>
      <point x="831" y="244" type="curve" smooth="yes"/>
      <point x="831" y="126"/>
      <point x="692" y="10"/>
      <point x="449" y="10" type="curve" smooth="yes"/>
      <point x="298" y="10"/>
      <point x="151" y="71"/>
      <point x="97" y="208" type="curve"/>
    </contour>
  </outline>
</glyph>
<glyph name="six" format="2">
  <advance width="1127"/>
  <unicode hex="0036"/>
  <outline>
    <contour>
      <point x="1053" y="246" type="curve" smooth="yes"/>
      <point x="1053" y="392"/>
      <point x="851" y="515"/>
      <point x="574" y="515" type="curve" smooth="yes"/>
      <point x="410" y="515"/>
      <point x="271" y="472"/>
      <point x="186" y="406" type="curve"/>
      <point x="220" y="589"/>
      <point x="377" y="690"/>
      <point x="604" y="690" type="curve" smooth="yes"/>
      <point x="781" y="690"/>
      <point x="960" y="621"/>
      <point x="1030" y="470" type="curve"/>
      <point x="1039" y="470" type="line"/>
      <point x="1014" y="637" type="line"/>
      <point x="900" y="690"/>
      <point x="754" y="715"/>
      <point x="618" y="715" type="curve" smooth="yes"/>
      <point x="295" y="715"/>
      <point x="66" y="575"/>
      <point x="66" y="336" type="curve" smooth="yes"/>
      <point x="66" y="94"/>
      <point x="333" y="-15"/>
      <point x="589" y="-15" type="curve" smooth="yes"/>
      <point x="826" y="-15"/>
      <point x="1053" y="78"/>
    </contour>
    <contour>
      <point x="186" y="267" type="curve" smooth="yes"/>
      <point x="186" y="407"/>
      <point x="348" y="490"/>
      <point x="562" y="490" type="curve" smooth="yes"/>
      <point x="776" y="490"/>
      <point x="938" y="388"/>
      <point x="938" y="246" type="curve" smooth="yes"/>
      <point x="938" y="116"/>
      <point x="785" y="10"/>
      <point x="581" y="10" type="curve" smooth="yes"/>
      <point x="405" y="10"/>
      <point x="186" y="113"/>
    </contour>
  </outline>
</glyph>
<glyph name="seven" format="2">
  <advance width="900"/>
  <unicode hex="0037"/>
  <outline>
    <contour>
      <point x="53" y="700" type="line"/>
      <point x="53" y="568" type="line"/>
      <point x="63" y="568" type="line"/>
      <point x="63" y="608"/>
      <point x="82" y="620"/>
      <point x="129" y="620" type="curve" smooth="yes"/>
      <point x="820" y="620" type="line"/>
      <point x="820" y="522"/>
      <point x="666" y="501"/>
      <point x="537" y="398" type="curve" smooth="yes"/>
      <point x="446" y="326"/>
      <point x="363" y="186"/>
      <point x="363" y="0" type="curve"/>
      <point x="478" y="0" type="line"/>
      <point x="478" y="218"/>
      <point x="525" y="309"/>
      <point x="583" y="375" type="curve" smooth="yes"/>
      <point x="686" y="489"/>
      <point x="847" y="476"/>
      <point x="847" y="620" type="curve"/>
      <point x="847" y="700" type="line"/>
    </contour>
  </outline>
</glyph>
<glyph name="eight" format="2">
  <advance width="1050"/>
  <unicode hex="0038"/>
  <outline>
    <contour>
      <point x="97" y="318"/>
      <point x="878" y="439"/>
      <point x="878" y="170" type="curve" smooth="yes"/>
      <point x="878" y="66"/>
      <point x="719" y="10"/>
      <point x="523" y="10" type="curve" smooth="yes"/>
      <point x="331" y="10"/>
      <point x="162" y="70"/>
      <point x="162" y="186" type="curve" smooth="yes"/>
      <point x="162" y="307"/>
      <point x="333" y="383"/>
      <point x="402" y="391" type="curve"/>
      <point x="365" y="403" type="line"/>
      <point x="237" y="383"/>
      <point x="62" y="329"/>
      <point x="62" y="183" type="curve" smooth="yes"/>
      <point x="62" y="51"/>
      <point x="258" y="-15"/>
      <point x="499" y="-15" type="curve" smooth="yes"/>
      <point x="760" y="-15"/>
      <point x="992" y="58"/>
      <point x="992" y="203" type="curve" smooth="yes"/>
      <point x="992" y="500"/>
      <point x="212" y="415"/>
      <point x="212" y="572" type="curve" smooth="yes"/>
      <point x="212" y="642"/>
      <point x="371" y="690"/>
      <point x="529" y="690" type="curve" smooth="yes"/>
      <point x="684" y="690"/>
      <point x="838" y="643"/>
      <point x="838" y="547" type="curve" smooth="yes"/>
      <point x="838" y="471"/>
      <point x="715" y="440"/>
      <point x="665" y="429" type="curve"/>
      <point x="702" y="417" type="line"/>
      <point x="784" y="425"/>
      <point x="938" y="470"/>
      <point x="938" y="551" type="curve" smooth="yes"/>
      <point x="938" y="662"/>
      <point x="739" y="715"/>
      <point x="535" y="715" type="curve" smooth="yes"/>
      <point x="319" y="715"/>
      <point x="97" y="656"/>
      <point x="97" y="544" type="curve" smooth="yes"/>
    </contour>
  </outline>
</glyph>
<glyph name="nine" format="2">
  <advance width="1128"/>
  <unicode hex="0039"/>
  <outline>
    <contour>
      <point x="74" y="454" type="curve" smooth="yes"/>
      <point x="74" y="308"/>
      <point x="276" y="185"/>
      <point x="553" y="185" type="curve" smooth="yes"/>
      <point x="717" y="185"/>
      <point x="856" y="228"/>
      <point x="941" y="294" type="curve"/>
      <point x="912" y="111"/>
      <point x="780" y="10"/>
      <point x="533" y="10" type="curve" smooth="yes"/>
      <point x="356" y="10"/>
      <point x="167" y="79"/>
      <point x="97" y="230" type="curve"/>
      <point x="88" y="230" type="line"/>
      <point x="113" y="63" type="line"/>
      <point x="227" y="10"/>
      <point x="383" y="-15"/>
      <point x="519" y="-15" type="curve" smooth="yes"/>
      <point x="862" y="-15"/>
      <point x="1061" y="130"/>
      <point x="1061" y="381" type="curve" smooth="yes"/>
      <point x="1061" y="623"/>
      <point x="794" y="715"/>
      <point x="538" y="715" type="curve" smooth="yes"/>
      <point x="301" y="715"/>
      <point x="74" y="622"/>
    </contour>
    <contour>
      <point x="941" y="433" type="curve" smooth="yes"/>
      <point x="941" y="293"/>
      <point x="779" y="210"/>
      <point x="565" y="210" type="curve" smooth="yes"/>
      <point x="351" y="210"/>
      <point x="189" y="312"/>
      <point x="189" y="454" type="curve" smooth="yes"/>
      <point x="189" y="584"/>
      <point x="342" y="690"/>
      <point x="546" y="690" type="curve" smooth="yes"/>
      <point x="722" y="690"/>
      <point x="941" y="587"/>
    </contour>
  </outline>
</glyph>
<glyph name="less" format="2">
  <advance width="990"/>
  <unicode hex="003C"/>
  <outline>
    <contour>
      <point x="934" y="-7" type="line"/>
      <point x="934" y="24" type="line"/>
      <point x="132" y="267" type="line"/>
      <point x="934" y="512" type="line"/>
      <point x="934" y="543" type="line"/>
      <point x="105" y="290" type="line"/>
      <point x="105" y="244" type="line"/>
    </contour>
  </outline>
</glyph>
<glyph name="equal" format="2">
  <advance width="1033"/>
  <unicode hex="003D"/>
  <outline>
    <contour>
      <point x="110" y="401" type="line"/>
      <point x="110" y="371" type="line"/>
      <point x="923" y="371" type="line"/>
      <point x="923" y="401" type="line"/>
    </contour>
    <contour>
      <point x="110" y="141" type="line"/>
      <point x="110" y="111" type="line"/>
      <point x="923" y="111" type="line"/>
      <point x="923" y="141" type="line"/>
    </contour>
  </outline>
</glyph>
<glyph name="greater" format="2">
  <advance width="1040"/>
  <unicode hex="003E"/>
  <outline>
    <contour>
      <point x="105" y="543" type="line"/>
      <point x="105" y="512" type="line"/>
      <point x="907" y="267" type="line"/>
      <point x="105" y="24" type="line"/>
      <point x="105" y="-7" type="line"/>
      <point x="934" y="244" type="line"/>
      <point x="934" y="290" type="line"/>
    </contour>
  </outline>
</glyph>
<glyph name="question" format="2">
  <advance width="1056"/>
  <unicode hex="003F"/>
  <outline>
    <contour>
      <point x="545" y="191" type="curve" smooth="yes"/>
      <point x="637" y="191"/>
      <point x="707" y="218"/>
      <point x="707" y="278" type="curve"/>
      <point x="682" y="278" type="line"/>
      <point x="677" y="229"/>
      <point x="610" y="216"/>
      <point x="545" y="216" type="curve" smooth="yes"/>
      <point x="501" y="216"/>
      <point x="440" y="232"/>
      <point x="440" y="266" type="curve" smooth="yes"/>
      <point x="440" y="371"/>
      <point x="987" y="331"/>
      <point x="987" y="529" type="curve" smooth="yes"/>
      <point x="987" y="658"/>
      <point x="715" y="715"/>
      <point x="536" y="715" type="curve" smooth="yes"/>
      <point x="386" y="715"/>
      <point x="226" y="690"/>
      <point x="101" y="637" type="curve"/>
      <point x="74" y="470" type="line"/>
      <point x="84" y="470" type="line"/>
      <point x="159" y="620"/>
      <point x="354" y="690"/>
      <point x="547" y="690" type="curve" smooth="yes"/>
      <point x="699" y="690"/>
      <point x="872" y="631"/>
      <point x="872" y="529" type="curve" smooth="yes"/>
      <point x="872" y="367"/>
      <point x="368" y="407"/>
      <point x="368" y="266" type="curve" smooth="yes"/>
      <point x="368" y="210"/>
      <point x="447" y="191"/>
    </contour>
    <contour>
      <point x="545" y="-15" type="curve" smooth="yes"/>
      <point x="593" y="-15"/>
      <point x="620" y="10"/>
      <point x="620" y="45" type="curve" smooth="yes"/>
      <point x="620" y="80"/>
      <point x="593" y="105"/>
      <point x="545" y="105" type="curve" smooth="yes"/>
      <point x="497" y="105"/>
      <point x="470" y="80"/>
      <point x="470" y="45" type="curve" smooth="yes"/>
      <point x="470" y="10"/>
      <point x="497" y="-15"/>
    </contour>
  </outline>
</glyph>
<glyph name="at" format="2">
  <advance width="1361"/>
  <unicode hex="0040"/>
  <outline>
    <contour>
      <point x="607" y="-103" type="curve" smooth="yes"/>
      <point x="696" y="-103"/>
      <point x="780" y="-89"/>
      <point x="857" y="-59" type="curve"/>
      <point x="846" y="-36" type="line"/>
      <point x="778" y="-64"/>
      <point x="696" y="-78"/>
      <point x="607" y="-78" type="curve" smooth="yes"/>
      <point x="329" y="-78"/>
      <point x="184" y="55"/>
      <point x="184" y="250" type="curve" smooth="yes"/>
      <point x="184" y="454"/>
      <point x="397" y="595"/>
      <point x="675" y="595" type="curve" smooth="yes"/>
      <point x="948" y="595"/>
      <point x="1173" y="464"/>
      <point x="1173" y="208" type="curve" smooth="yes"/>
      <point x="1173" y="49"/>
      <point x="1108" y="11"/>
      <point x="1077" y="11" type="curve" smooth="yes"/>
      <point x="1046" y="11"/>
      <point x="1025" y="30"/>
      <point x="1025" y="134" type="curve" smooth="yes"/>
      <point x="1025" y="296" type="line" smooth="yes"/>
      <point x="1025" y="481"/>
      <point x="852" y="515"/>
      <point x="678" y="515" type="curve" smooth="yes"/>
      <point x="549" y="515"/>
      <point x="433" y="487"/>
      <point x="371" y="458" type="curve"/>
      <point x="327" y="282" type="line"/>
      <point x="337" y="282" type="line"/>
      <point x="391" y="419"/>
      <point x="508" y="490"/>
      <point x="681" y="490" type="curve" smooth="yes"/>
      <point x="771" y="490"/>
      <point x="858" y="460"/>
      <point x="900" y="392" type="curve"/>
      <point x="437" y="362"/>
      <point x="307" y="230"/>
      <point x="307" y="134" type="curve" smooth="yes"/>
      <point x="307" y="30"/>
      <point x="416" y="-16"/>
      <point x="563" y="-16" type="curve" smooth="yes"/>
      <point x="689" y="-16"/>
      <point x="841" y="14"/>
      <point x="926" y="102" type="curve"/>
      <point x="939" y="1"/>
      <point x="1000" y="-15"/>
      <point x="1074" y="-15" type="curve" smooth="yes"/>
      <point x="1160" y="-15"/>
      <point x="1268" y="70"/>
      <point x="1268" y="217" type="curve" smooth="yes"/>
      <point x="1268" y="486"/>
      <point x="990" y="620"/>
      <point x="675" y="620" type="curve" smooth="yes"/>
      <point x="358" y="620"/>
      <point x="89" y="451"/>
      <point x="89" y="250" type="curve" smooth="yes"/>
      <point x="89" y="48"/>
      <point x="290" y="-103"/>
    </contour>
    <contour>
      <point x="606" y="10" type="curve" smooth="yes"/>
      <point x="494" y="10"/>
      <point x="427" y="53"/>
      <point x="427" y="141" type="curve" smooth="yes"/>
      <point x="427" y="256"/>
      <point x="516" y="345"/>
      <point x="912" y="368" type="curve"/>
      <point x="920" y="347"/>
      <point x="925" y="323"/>
      <point x="925" y="296" type="curve" smooth="yes"/>
      <point x="925" y="218" type="line" smooth="yes"/>
      <point x="925" y="74"/>
      <point x="709" y="10"/>
    </contour>
  </outline>
</glyph>
<glyph name="A" format="2">
  <advance width="1217"/>
  <unicode hex="0041"/>
  <anchor x="609" y="0" name="bottom"/>
  <anchor x="1095" y="10" name="ogonek"/>
  <anchor x="609" y="700" name="top"/>
  <outline>
    <contour>
      <point x="18" y="0" type="line"/>
      <point x="401" y="0" type="line"/>
      <point x="401" y="10" type="line"/>
      <point x="319" y="17"/>
      <point x="237" y="36"/>
      <point x="283" y="118" type="curve" smooth="yes"/>
      <point x="332" y="200" type="line"/>
      <point x="801" y="200" type="line"/>
      <point x="852" y="117" type="line" smooth="yes"/>
      <point x="895" y="40"/>
      <point x="815" y="17"/>
      <point x="733" y="10" type="curve"/>
      <point x="733" y="0" type="line"/>
      <point x="1199" y="0" type="line"/>
      <point x="1199" y="10" type="line"/>
      <point x="1116" y="17"/>
      <point x="1013" y="45"/>
      <point x="965" y="124" type="curve" smooth="yes"/>
      <point x="610" y="715" type="line"/>
      <point x="605" y="715" type="line"/>
      <point x="249" y="118" type="line" smooth="yes"/>
      <point x="198" y="33"/>
      <point x="101" y="17"/>
      <point x="18" y="10" type="curve"/>
    </contour>
    <contour>
      <point x="347" y="225" type="line"/>
      <point x="566" y="592" type="line"/>
      <point x="786" y="225" type="line"/>
    </contour>
  </outline>
</glyph>
<glyph name="B" format="2">
  <advance width="1137"/>
  <unicode hex="0042"/>
  <anchor x="569" y="0" name="bottom"/>
  <anchor x="569" y="350" name="center"/>
  <anchor x="569" y="700" name="top"/>
  <outline>
    <contour>
      <point x="785" y="429" type="curve"/>
      <point x="861" y="432"/>
      <point x="1007" y="467"/>
      <point x="1007" y="561" type="curve" smooth="yes"/>
      <point x="1007" y="644"/>
      <point x="932" y="700"/>
      <point x="708" y="700" type="curve" smooth="yes"/>
      <point x="49" y="700" type="line"/>
      <point x="49" y="690" type="line"/>
      <point x="133" y="683"/>
      <point x="239" y="663"/>
      <point x="239" y="576" type="curve" smooth="yes"/>
      <point x="239" y="124" type="line" smooth="yes"/>
      <point x="239" y="37"/>
      <point x="133" y="17"/>
      <point x="49" y="10" type="curve"/>
      <point x="49" y="0" type="line"/>
      <point x="711" y="0" type="line" smooth="yes"/>
      <point x="908" y="0"/>
      <point x="1050" y="79"/>
      <point x="1050" y="219" type="curve" smooth="yes"/>
      <point x="1050" y="336"/>
      <point x="927" y="419"/>
    </contour>
    <contour>
      <point x="661" y="675" type="line" smooth="yes"/>
      <point x="864" y="675"/>
      <point x="903" y="617"/>
      <point x="903" y="556" type="curve" smooth="yes"/>
      <point x="903" y="497"/>
      <point x="853" y="436"/>
      <point x="661" y="436" type="curve" smooth="yes"/>
      <point x="339" y="436" type="line"/>
      <point x="339" y="675" type="line"/>
    </contour>
    <contour>
      <point x="672" y="25" type="curve" smooth="yes"/>
      <point x="339" y="25" type="line"/>
      <point x="339" y="411" type="line"/>
      <point x="672" y="411" type="line" smooth="yes"/>
      <point x="845" y="411"/>
      <point x="940" y="327"/>
      <point x="940" y="220" type="curve" smooth="yes"/>
      <point x="940" y="115"/>
      <point x="845" y="25"/>
    </contour>
  </outline>
</glyph>
<glyph name="C" format="2">
  <advance width="1211"/>
  <unicode hex="0043"/>
  <anchor x="606" y="0" name="bottom"/>
  <anchor x="606" y="700" name="top"/>
  <outline>
    <contour>
      <point x="671" y="715" type="curve" smooth="yes"/>
      <point x="355" y="715"/>
      <point x="66" y="578"/>
      <point x="66" y="345" type="curve" smooth="yes"/>
      <point x="66" y="143"/>
      <point x="331" y="-15"/>
      <point x="651" y="-15" type="curve" smooth="yes"/>
      <point x="782" y="-15"/>
      <point x="989" y="0"/>
      <point x="1145" y="127" type="curve"/>
      <point x="1131" y="148" type="line"/>
      <point x="985" y="30"/>
      <point x="793" y="10"/>
      <point x="651" y="10" type="curve" smooth="yes"/>
      <point x="368" y="10"/>
      <point x="186" y="150"/>
      <point x="186" y="345" type="curve" smooth="yes"/>
      <point x="186" y="566"/>
      <point x="417" y="690"/>
      <point x="656" y="690" type="curve" smooth="yes"/>
      <point x="850" y="690"/>
      <point x="1047" y="621"/>
      <point x="1123" y="470" type="curve"/>
      <point x="1133" y="470" type="line"/>
      <point x="1106" y="637" type="line"/>
      <point x="981" y="690"/>
      <point x="821" y="715"/>
    </contour>
  </outline>
</glyph>
<glyph name="D" format="2">
  <advance width="1189"/>
  <unicode hex="0044"/>
  <anchor x="595" y="0" name="bottom"/>
  <anchor x="595" y="350" name="center"/>
  <anchor x="595" y="700" name="top"/>
  <outline>
    <contour>
      <point x="649" y="700" type="curve" smooth="yes"/>
      <point x="49" y="700" type="line"/>
      <point x="49" y="690" type="line"/>
      <point x="115" y="684"/>
      <point x="150" y="665"/>
      <point x="149" y="616" type="curve" smooth="yes"/>
      <point x="149" y="84" type="line" smooth="yes"/>
      <point x="149" y="36"/>
      <point x="114" y="17"/>
      <point x="49" y="10" type="curve"/>
      <point x="49" y="0" type="line"/>
      <point x="662" y="0" type="line" smooth="yes"/>
      <point x="953" y="0"/>
      <point x="1115" y="133"/>
      <point x="1115" y="345" type="curve" smooth="yes"/>
      <point x="1115" y="581"/>
      <point x="938" y="700"/>
    </contour>
    <contour>
      <point x="646" y="25" type="curve" smooth="yes"/>
      <point x="249" y="25" type="line"/>
      <point x="249" y="675" type="line"/>
      <point x="631" y="675" type="line" smooth="yes"/>
      <point x="888" y="675"/>
      <point x="1005" y="562"/>
      <point x="1005" y="345" type="curve" smooth="yes"/>
      <point x="1005" y="150"/>
      <point x="889" y="25"/>
    </contour>
  </outline>
</glyph>
<glyph name="E" format="2">
  <advance width="1074"/>
  <unicode hex="0045"/>
  <anchor x="537" y="0" name="bottom"/>
  <anchor x="967" y="10" name="ogonek"/>
  <anchor x="537" y="700" name="top"/>
  <anchor x="20" y="700" name="topleft"/>
  <outline>
    <contour>
      <point x="758" y="675" type="line" smooth="yes"/>
      <point x="895" y="675"/>
      <point x="954" y="574"/>
      <point x="961" y="455" type="curve"/>
      <point x="971" y="455" type="line"/>
      <point x="971" y="700" type="line"/>
      <point x="49" y="700" type="line"/>
      <point x="49" y="690" type="line"/>
      <point x="132" y="683"/>
      <point x="238" y="663"/>
      <point x="239" y="576" type="curve" smooth="yes"/>
      <point x="239" y="124" type="line" smooth="yes"/>
      <point x="239" y="37"/>
      <point x="133" y="17"/>
      <point x="49" y="10" type="curve"/>
      <point x="49" y="0" type="line"/>
      <point x="971" y="0" type="line"/>
      <point x="971" y="245" type="line"/>
      <point x="961" y="245" type="line"/>
      <point x="954" y="125"/>
      <point x="895" y="25"/>
      <point x="758" y="25" type="curve" smooth="yes"/>
      <point x="339" y="25" type="line"/>
      <point x="339" y="475" type="line"/>
      <point x="548" y="475" type="line" smooth="yes"/>
      <point x="623" y="475"/>
      <point x="690" y="415"/>
      <point x="747" y="274" type="curve"/>
      <point x="757" y="277" type="line"/>
      <point x="643" y="620" type="line"/>
      <point x="633" y="617" type="line"/>
      <point x="651" y="536"/>
      <point x="629" y="500"/>
      <point x="548" y="500" type="curve" smooth="yes"/>
      <point x="339" y="500" type="line"/>
      <point x="339" y="675" type="line"/>
    </contour>
  </outline>
</glyph>
<glyph name="F" format="2">
  <advance width="1042"/>
  <unicode hex="0046"/>
  <anchor x="521" y="0" name="bottom"/>
  <anchor x="521" y="700" name="top"/>
  <outline>
    <contour>
      <point x="971" y="700" type="line"/>
      <point x="49" y="700" type="line"/>
      <point x="49" y="690" type="line"/>
      <point x="132" y="683"/>
      <point x="238" y="663"/>
      <point x="239" y="576" type="curve" smooth="yes"/>
      <point x="239" y="124" type="line" smooth="yes"/>
      <point x="239" y="39"/>
      <point x="133" y="19"/>
      <point x="49" y="10" type="curve"/>
      <point x="49" y="0" type="line"/>
      <point x="529" y="0" type="line"/>
      <point x="529" y="10" type="line"/>
      <point x="445" y="19"/>
      <point x="339" y="39"/>
      <point x="339" y="124" type="curve" smooth="yes"/>
      <point x="339" y="475" type="line"/>
      <point x="548" y="475" type="line" smooth="yes"/>
      <point x="623" y="475"/>
      <point x="690" y="415"/>
      <point x="747" y="274" type="curve"/>
      <point x="757" y="277" type="line"/>
      <point x="643" y="620" type="line"/>
      <point x="633" y="617" type="line"/>
      <point x="651" y="536"/>
      <point x="629" y="500"/>
      <point x="548" y="500" type="curve" smooth="yes"/>
      <point x="339" y="500" type="line"/>
      <point x="339" y="675" type="line"/>
      <point x="758" y="675" type="line" smooth="yes"/>
      <point x="895" y="675"/>
      <point x="954" y="574"/>
      <point x="961" y="455" type="curve"/>
      <point x="971" y="455" type="line"/>
    </contour>
  </outline>
</glyph>
<glyph name="G" format="2">
  <advance width="1371"/>
  <unicode hex="0047"/>
  <anchor x="686" y="0" name="bottom"/>
  <anchor x="686" y="700" name="top"/>
  <outline>
    <contour>
      <point x="843" y="429" type="line"/>
      <point x="843" y="419" type="line"/>
      <point x="927" y="412"/>
      <point x="1032" y="392"/>
      <point x="1033" y="305" type="curve" smooth="yes"/>
      <point x="1033" y="78" type="line"/>
      <point x="932" y="30"/>
      <point x="795" y="10"/>
      <point x="662" y="10" type="curve" smooth="yes"/>
      <point x="379" y="10"/>
      <point x="186" y="150"/>
      <point x="186" y="345" type="curve" smooth="yes"/>
      <point x="186" y="549"/>
      <point x="379" y="690"/>
      <point x="680" y="690" type="curve" smooth="yes"/>
      <point x="864" y="690"/>
      <point x="1042" y="633"/>
      <point x="1120" y="470" type="curve"/>
      <point x="1130" y="470" type="line"/>
      <point x="1103" y="637" type="line"/>
      <point x="963" y="694"/>
      <point x="838" y="715"/>
      <point x="680" y="715" type="curve" smooth="yes"/>
      <point x="340" y="715"/>
      <point x="66" y="546"/>
      <point x="66" y="345" type="curve" smooth="yes"/>
      <point x="66" y="143"/>
      <point x="340" y="-15"/>
      <point x="662" y="-15" type="curve" smooth="yes"/>
      <point x="782" y="-15"/>
      <point x="932" y="5"/>
      <point x="1034" y="50" type="curve"/>
      <point x="1133" y="-20" type="line"/>
      <point x="1133" y="305" type="line" smooth="yes"/>
      <point x="1134" y="389"/>
      <point x="1240" y="410"/>
      <point x="1323" y="419" type="curve"/>
      <point x="1323" y="429" type="line"/>
    </contour>
  </outline>
</glyph>
<glyph name="H" format="2">
  <advance width="1329"/>
  <unicode hex="0048"/>
  <anchor x="665" y="0" name="bottom"/>
  <anchor x="665" y="350" name="center"/>
  <anchor x="665" y="700" name="top"/>
  <anchor x="20" y="700" name="topleft"/>
  <outline>
    <contour>
      <point x="1280" y="690" type="curve"/>
      <point x="1280" y="700" type="line"/>
      <point x="800" y="700" type="line"/>
      <point x="800" y="690" type="line"/>
      <point x="884" y="683"/>
      <point x="990" y="663"/>
      <point x="990" y="576" type="curve" smooth="yes"/>
      <point x="990" y="500" type="line"/>
      <point x="339" y="500" type="line"/>
      <point x="339" y="576" type="line" smooth="yes"/>
      <point x="339" y="663"/>
      <point x="445" y="683"/>
      <point x="529" y="690" type="curve"/>
      <point x="529" y="700" type="line"/>
      <point x="49" y="700" type="line"/>
      <point x="49" y="690" type="line"/>
      <point x="133" y="683"/>
      <point x="239" y="663"/>
      <point x="239" y="576" type="curve" smooth="yes"/>
      <point x="239" y="124" type="line" smooth="yes"/>
      <point x="239" y="37"/>
      <point x="133" y="18"/>
      <point x="49" y="10" type="curve"/>
      <point x="49" y="0" type="line"/>
      <point x="529" y="0" type="line"/>
      <point x="529" y="10" type="line"/>
      <point x="445" y="17"/>
      <point x="339" y="37"/>
      <point x="339" y="124" type="curve" smooth="yes"/>
      <point x="339" y="475" type="line"/>
      <point x="990" y="475" type="line"/>
      <point x="990" y="124" type="line" smooth="yes"/>
      <point x="990" y="37"/>
      <point x="884" y="17"/>
      <point x="800" y="10" type="curve"/>
      <point x="800" y="0" type="line"/>
      <point x="1280" y="0" type="line"/>
      <point x="1280" y="10" type="line"/>
      <point x="1196" y="17"/>
      <point x="1090" y="37"/>
      <point x="1090" y="124" type="curve" smooth="yes"/>
      <point x="1090" y="576" type="line" smooth="yes"/>
      <point x="1090" y="663"/>
      <point x="1196" y="683"/>
    </contour>
  </outline>
</glyph>
<glyph name="I" format="2">
  <advance width="538"/>
  <unicode hex="0049"/>
  <anchor x="269" y="0" name="bottom"/>
  <anchor x="484" y="10" name="ogonek"/>
  <anchor x="269" y="700" name="top"/>
  <anchor x="20" y="700" name="topleft"/>
  <outline>
    <contour>
      <point x="49" y="0" type="line"/>
      <point x="489" y="0" type="line"/>
      <point x="489" y="10" type="line"/>
      <point x="405" y="17"/>
      <point x="319" y="37"/>
      <point x="319" y="124" type="curve" smooth="yes"/>
      <point x="319" y="576" type="line" smooth="yes"/>
      <point x="319" y="663"/>
      <point x="405" y="683"/>
      <point x="489" y="690" type="curve"/>
      <point x="489" y="700" type="line"/>
      <point x="49" y="700" type="line"/>
      <point x="49" y="690" type="line"/>
      <point x="133" y="683"/>
      <point x="219" y="663"/>
      <point x="219" y="576" type="curve" smooth="yes"/>
      <point x="219" y="124" type="line" smooth="yes"/>
      <point x="219" y="37"/>
      <point x="133" y="17"/>
      <point x="49" y="10" type="curve"/>
    </contour>
  </outline>
</glyph>
<glyph name="J" format="2">
  <advance width="526"/>
  <unicode hex="004A"/>
  <guideline x="-236" y="195" angle="90"/>
  <anchor x="263" y="0" name="bottom"/>
  <anchor x="263" y="700" name="top"/>
  <outline>
    <contour>
      <point x="483" y="700" type="line"/>
      <point x="44" y="700" type="line"/>
      <point x="44" y="690" type="line"/>
      <point x="123" y="683"/>
      <point x="213" y="663"/>
      <point x="213" y="576" type="curve" smooth="yes"/>
      <point x="213" y="13" type="line" smooth="yes"/>
      <point x="213" y="-123"/>
      <point x="117" y="-189"/>
      <point x="24" y="-189" type="curve" smooth="yes"/>
      <point x="-72" y="-189"/>
      <point x="-151" y="-139"/>
      <point x="-189" y="-74" type="curve"/>
      <point x="-210" y="-87" type="line"/>
      <point x="-167" y="-163"/>
      <point x="-72" y="-216"/>
      <point x="39" y="-216" type="curve" smooth="yes"/>
      <point x="191" y="-216"/>
      <point x="313" y="-132"/>
      <point x="313" y="54" type="curve" smooth="yes"/>
      <point x="313" y="576" type="line" smooth="yes"/>
      <point x="313" y="663"/>
      <point x="399" y="683"/>
      <point x="483" y="690" type="curve"/>
    </contour>
  </outline>
</glyph>
<glyph name="K" format="2">
  <advance width="1207"/>
  <unicode hex="004B"/>
  <guideline x="633" y="265" angle="90"/>
  <anchor x="604" y="0" name="bottom"/>
  <anchor x="604" y="700" name="top"/>
  <outline>
    <contour>
      <point x="930" y="132" type="curve" smooth="yes"/>
      <point x="599" y="490" type="line"/>
      <point x="811" y="588" type="line" smooth="yes"/>
      <point x="961" y="655"/>
      <point x="1070" y="683"/>
      <point x="1152" y="690" type="curve"/>
      <point x="1152" y="700" type="line"/>
      <point x="808" y="700" type="line"/>
      <point x="808" y="690" type="line"/>
      <point x="899" y="683"/>
      <point x="876" y="649"/>
      <point x="735" y="582" type="curve" smooth="yes"/>
      <point x="324" y="392" type="line"/>
      <point x="324" y="576" type="line" smooth="yes"/>
      <point x="324" y="663"/>
      <point x="410" y="683"/>
      <point x="494" y="690" type="curve"/>
      <point x="494" y="700" type="line"/>
      <point x="49" y="700" type="line"/>
      <point x="49" y="690" type="line"/>
      <point x="133" y="683"/>
      <point x="219" y="663"/>
      <point x="219" y="576" type="curve" smooth="yes"/>
      <point x="219" y="124" type="line" smooth="yes"/>
      <point x="219" y="37"/>
      <point x="133" y="17"/>
      <point x="49" y="10" type="curve"/>
      <point x="49" y="0" type="line"/>
      <point x="494" y="0" type="line"/>
      <point x="494" y="10" type="line"/>
      <point x="410" y="17"/>
      <point x="324" y="37"/>
      <point x="324" y="124" type="curve" smooth="yes"/>
      <point x="324" y="362" type="line"/>
      <point x="500" y="443" type="line"/>
      <point x="783" y="136" type="line" smooth="yes"/>
      <point x="848" y="63"/>
      <point x="821" y="17"/>
      <point x="739" y="10" type="curve"/>
      <point x="739" y="0" type="line"/>
      <point x="1192" y="0" type="line"/>
      <point x="1192" y="10" type="line"/>
      <point x="1113" y="17"/>
      <point x="1020" y="35"/>
    </contour>
  </outline>
</glyph>
<glyph name="L" format="2">
  <advance width="952"/>
  <unicode hex="004C"/>
  <anchor x="476" y="0" name="bottom"/>
  <anchor x="476" y="350" name="center"/>
  <anchor x="306" y="700" name="top"/>
  <anchor x="530" y="700" name="topright"/>
  <outline>
    <contour>
      <point x="871" y="245" type="line"/>
      <point x="864" y="145"/>
      <point x="835" y="25"/>
      <point x="698" y="25" type="curve" smooth="yes"/>
      <point x="319" y="25" type="line"/>
      <point x="319" y="576" type="line"/>
      <point x="319" y="665"/>
      <point x="411" y="684"/>
      <point x="487" y="690" type="curve"/>
      <point x="487" y="700" type="line"/>
      <point x="49" y="700" type="line"/>
      <point x="49" y="690" type="line"/>
      <point x="133" y="683"/>
      <point x="219" y="665"/>
      <point x="219" y="576" type="curve" smooth="yes"/>
      <point x="219" y="124" type="line" smooth="yes"/>
      <point x="219" y="37"/>
      <point x="133" y="17"/>
      <point x="49" y="10" type="curve"/>
      <point x="49" y="0" type="line"/>
      <point x="881" y="0" type="line"/>
      <point x="881" y="245" type="line"/>
    </contour>
  </outline>
</glyph>
<glyph name="M" format="2">
  <advance width="1473"/>
  <unicode hex="004D"/>
  <guideline x="699" y="10" angle="90"/>
  <anchor x="737" y="0" name="bottom"/>
  <anchor x="737" y="700" name="top"/>
  <outline>
    <contour>
      <point x="1424" y="690" type="curve"/>
      <point x="1424" y="700" type="line"/>
      <point x="1134" y="700" type="line"/>
      <point x="740" y="103" type="line"/>
      <point x="328" y="700" type="line"/>
      <point x="49" y="700" type="line"/>
      <point x="49" y="690" type="line"/>
      <point x="133" y="683"/>
      <point x="239" y="663"/>
      <point x="239" y="576" type="curve" smooth="yes"/>
      <point x="239" y="124" type="line" smooth="yes"/>
      <point x="239" y="37"/>
      <point x="133" y="17"/>
      <point x="49" y="10" type="curve"/>
      <point x="49" y="0" type="line"/>
      <point x="454" y="0" type="line"/>
      <point x="454" y="10" type="line"/>
      <point x="370" y="17"/>
      <point x="264" y="37"/>
      <point x="264" y="124" type="curve" smooth="yes"/>
      <point x="264" y="617" type="line"/>
      <point x="699" y="-15" type="line"/>
      <point x="1134" y="648" type="line"/>
      <point x="1134" y="124" type="line" smooth="yes"/>
      <point x="1134" y="37"/>
      <point x="1028" y="17"/>
      <point x="944" y="10" type="curve"/>
      <point x="944" y="0" type="line"/>
      <point x="1424" y="0" type="line"/>
      <point x="1424" y="10" type="line"/>
      <point x="1340" y="17"/>
      <point x="1234" y="37"/>
      <point x="1234" y="124" type="curve" smooth="yes"/>
      <point x="1234" y="576" type="line" smooth="yes"/>
      <point x="1234" y="663"/>
      <point x="1340" y="683"/>
    </contour>
  </outline>
</glyph>
<glyph name="N" format="2">
  <advance width="1286"/>
  <unicode hex="004E"/>
  <anchor x="643" y="0" name="bottom"/>
  <anchor x="643" y="700" name="top"/>
  <outline>
    <contour>
      <point x="837" y="700" type="line"/>
      <point x="837" y="690" type="line"/>
      <point x="921" y="683"/>
      <point x="1027" y="663"/>
      <point x="1027" y="576" type="curve" smooth="yes"/>
      <point x="1027" y="127" type="line"/>
      <point x="294" y="700" type="line"/>
      <point x="49" y="700" type="line"/>
      <point x="49" y="690" type="line"/>
      <point x="132" y="683"/>
      <point x="238" y="663"/>
      <point x="239" y="576" type="curve" smooth="yes"/>
      <point x="239" y="124" type="line" smooth="yes"/>
      <point x="239" y="37"/>
      <point x="133" y="17"/>
      <point x="49" y="10" type="curve"/>
      <point x="49" y="0" type="line"/>
      <point x="454" y="0" type="line"/>
      <point x="454" y="10" type="line"/>
      <point x="370" y="17"/>
      <point x="264" y="37"/>
      <point x="264" y="124" type="curve" smooth="yes"/>
      <point x="264" y="596" type="line"/>
      <point x="1047" y="-15" type="line"/>
      <point x="1052" y="-15" type="line"/>
      <point x="1052" y="576" type="line" smooth="yes"/>
      <point x="1052" y="663"/>
      <point x="1158" y="683"/>
      <point x="1242" y="690" type="curve"/>
      <point x="1242" y="700" type="line"/>
    </contour>
  </outline>
</glyph>
<glyph name="O" format="2">
  <advance width="1311"/>
  <unicode hex="004F"/>
  <anchor x="656" y="0" name="bottom"/>
  <anchor x="656" y="350" name="center"/>
  <anchor x="1180" y="10" name="ogonek"/>
  <anchor x="656" y="700" name="top"/>
  <anchor x="20" y="700" name="topleft"/>
  <anchor x="1291" y="700" name="topright"/>
  <outline>
    <contour>
      <point x="657" y="-15" type="curve" smooth="yes"/>
      <point x="972" y="-15"/>
      <point x="1245" y="143"/>
      <point x="1245" y="345" type="curve" smooth="yes"/>
      <point x="1245" y="546"/>
      <point x="972" y="715"/>
      <point x="657" y="715" type="curve" smooth="yes"/>
      <point x="340" y="715"/>
      <point x="66" y="546"/>
      <point x="66" y="345" type="curve" smooth="yes"/>
      <point x="66" y="143"/>
      <point x="340" y="-15"/>
    </contour>
    <contour>
      <point x="657" y="10" type="curve" smooth="yes"/>
      <point x="379" y="10"/>
      <point x="186" y="150"/>
      <point x="186" y="345" type="curve" smooth="yes"/>
      <point x="186" y="549"/>
      <point x="379" y="690"/>
      <point x="657" y="690" type="curve" smooth="yes"/>
      <point x="930" y="690"/>
      <point x="1125" y="549"/>
      <point x="1125" y="345" type="curve" smooth="yes"/>
      <point x="1125" y="150"/>
      <point x="930" y="10"/>
    </contour>
  </outline>
</glyph>
<glyph name="P" format="2">
  <advance width="1066"/>
  <unicode hex="0050"/>
  <anchor x="533" y="0" name="bottom"/>
  <anchor x="533" y="700" name="top"/>
  <outline>
    <contour>
      <point x="762" y="700" type="curve" smooth="yes"/>
      <point x="49" y="700" type="line"/>
      <point x="49" y="690" type="line"/>
      <point x="133" y="683"/>
      <point x="239" y="663"/>
      <point x="239" y="576" type="curve" smooth="yes"/>
      <point x="239" y="124" type="line" smooth="yes"/>
      <point x="239" y="37"/>
      <point x="133" y="17"/>
      <point x="49" y="10" type="curve"/>
      <point x="49" y="0" type="line"/>
      <point x="529" y="0" type="line"/>
      <point x="529" y="10" type="line"/>
      <point x="445" y="17"/>
      <point x="339" y="37"/>
      <point x="339" y="124" type="curve" smooth="yes"/>
      <point x="339" y="411" type="line"/>
      <point x="762" y="411" type="line" smooth="yes"/>
      <point x="943" y="411"/>
      <point x="1009" y="484"/>
      <point x="1009" y="555" type="curve" smooth="yes"/>
      <point x="1009" y="626"/>
      <point x="942" y="700"/>
    </contour>
    <contour>
      <point x="715" y="675" type="line" smooth="yes"/>
      <point x="856" y="675"/>
      <point x="899" y="610"/>
      <point x="899" y="554" type="curve" smooth="yes"/>
      <point x="899" y="498"/>
      <point x="856" y="436"/>
      <point x="715" y="436" type="curve" smooth="yes"/>
      <point x="339" y="436" type="line"/>
      <point x="339" y="675" type="line"/>
    </contour>
  </outline>
</glyph>
<glyph name="Q" format="2">
  <advance width="1283"/>
  <unicode hex="0051"/>
  <anchor x="642" y="0" name="bottom"/>
  <anchor x="642" y="700" name="top"/>
  <outline>
    <contour>
      <point x="637" y="715" type="curve" smooth="yes"/>
      <point x="331" y="715"/>
      <point x="66" y="546"/>
      <point x="66" y="345" type="curve" smooth="yes"/>
      <point x="66" y="200"/>
      <point x="202" y="78"/>
      <point x="392" y="20" type="curve"/>
      <point x="302" y="9"/>
      <point x="250" y="-31"/>
      <point x="250" y="-91" type="curve"/>
      <point x="262" y="-91" type="line"/>
      <point x="265" y="-64"/>
      <point x="295" y="-26"/>
      <point x="335" y="-26" type="curve" smooth="yes"/>
      <point x="515" y="-26"/>
      <point x="658" y="-158"/>
      <point x="862" y="-158" type="curve" smooth="yes"/>
      <point x="1007" y="-158"/>
      <point x="1142" y="-108"/>
      <point x="1154" y="-3" type="curve"/>
      <point x="1142" y="-3" type="line"/>
      <point x="1130" y="-55"/>
      <point x="1083" y="-92"/>
      <point x="1013" y="-92" type="curve" smooth="yes"/>
      <point x="924" y="-92"/>
      <point x="778" y="-49"/>
      <point x="651" y="-15" type="curve"/>
      <point x="950" y="-10"/>
      <point x="1206" y="146"/>
      <point x="1206" y="345" type="curve" smooth="yes"/>
      <point x="1206" y="546"/>
      <point x="942" y="715"/>
    </contour>
    <contour>
      <point x="186" y="345" type="curve" smooth="yes"/>
      <point x="186" y="549"/>
      <point x="368" y="690"/>
      <point x="637" y="690" type="curve" smooth="yes"/>
      <point x="902" y="690"/>
      <point x="1086" y="549"/>
      <point x="1086" y="345" type="curve" smooth="yes"/>
      <point x="1086" y="150"/>
      <point x="902" y="10"/>
      <point x="637" y="10" type="curve" smooth="yes"/>
      <point x="368" y="10"/>
      <point x="186" y="150"/>
    </contour>
  </outline>
</glyph>
<glyph name="R" format="2">
  <advance width="1167"/>
  <unicode hex="0052"/>
  <anchor x="584" y="0" name="bottom"/>
  <anchor x="584" y="700" name="top"/>
  <outline>
    <contour>
      <point x="1009" y="91" type="curve" smooth="yes"/>
      <point x="940" y="245"/>
      <point x="1068" y="405"/>
      <point x="828" y="423" type="curve"/>
      <point x="962" y="435"/>
      <point x="1005" y="505"/>
      <point x="1005" y="555" type="curve" smooth="yes"/>
      <point x="1005" y="626"/>
      <point x="940" y="700"/>
      <point x="786" y="700" type="curve" smooth="yes"/>
      <point x="49" y="700" type="line"/>
      <point x="49" y="690" type="line"/>
      <point x="132" y="683"/>
      <point x="238" y="663"/>
      <point x="239" y="576" type="curve" smooth="yes"/>
      <point x="239" y="124" type="line" smooth="yes"/>
      <point x="239" y="37"/>
      <point x="133" y="17"/>
      <point x="49" y="10" type="curve"/>
      <point x="49" y="0" type="line"/>
      <point x="529" y="0" type="line"/>
      <point x="529" y="10" type="line"/>
      <point x="445" y="17"/>
      <point x="339" y="37"/>
      <point x="339" y="124" type="curve" smooth="yes"/>
      <point x="339" y="411" type="line"/>
      <point x="741" y="411" type="line" smooth="yes"/>
      <point x="957" y="411"/>
      <point x="852" y="216"/>
      <point x="908" y="82" type="curve" smooth="yes"/>
      <point x="935" y="16"/>
      <point x="997" y="-3"/>
      <point x="1082" y="-3" type="curve" smooth="yes"/>
      <point x="1123" y="-3" type="line"/>
      <point x="1123" y="7" type="line"/>
      <point x="1063" y="7"/>
      <point x="1039" y="24"/>
    </contour>
    <contour>
      <point x="739" y="436" type="curve" smooth="yes"/>
      <point x="339" y="436" type="line"/>
      <point x="339" y="675" type="line"/>
      <point x="739" y="675" type="line" smooth="yes"/>
      <point x="854" y="675"/>
      <point x="895" y="610"/>
      <point x="895" y="554" type="curve" smooth="yes"/>
      <point x="895" y="498"/>
      <point x="854" y="436"/>
    </contour>
  </outline>
</glyph>
<glyph name="S" format="2">
  <advance width="1033"/>
  <unicode hex="0053"/>
  <guideline x="515" y="358" angle="90"/>
  <anchor x="517" y="0" name="bottom"/>
  <anchor x="517" y="700" name="top"/>
  <outline>
    <contour>
      <point x="532" y="-15" type="curve" smooth="yes"/>
      <point x="793" y="-15"/>
      <point x="974" y="61"/>
      <point x="974" y="206" type="curve" smooth="yes"/>
      <point x="974" y="455"/>
      <point x="214" y="375"/>
      <point x="214" y="562" type="curve" smooth="yes"/>
      <point x="214" y="663"/>
      <point x="411" y="690"/>
      <point x="513" y="690" type="curve" smooth="yes"/>
      <point x="652" y="690"/>
      <point x="795" y="635"/>
      <point x="880" y="457" type="curve"/>
      <point x="890" y="457" type="line"/>
      <point x="834" y="650" type="line"/>
      <point x="758" y="689"/>
      <point x="669" y="715"/>
      <point x="513" y="715" type="curve" smooth="yes"/>
      <point x="306" y="715"/>
      <point x="130" y="643"/>
      <point x="130" y="513" type="curve" smooth="yes"/>
      <point x="130" y="270"/>
      <point x="886" y="345"/>
      <point x="886" y="162" type="curve" smooth="yes"/>
      <point x="886" y="56"/>
      <point x="728" y="10"/>
      <point x="547" y="10" type="curve" smooth="yes"/>
      <point x="285" y="10"/>
      <point x="149" y="109"/>
      <point x="80" y="367" type="curve"/>
      <point x="70" y="367" type="line"/>
      <point x="101" y="115" type="line"/>
      <point x="188" y="43"/>
      <point x="330" y="-15"/>
    </contour>
  </outline>
</glyph>
<glyph name="T" format="2">
  <advance width="1110"/>
  <unicode hex="0054"/>
  <anchor x="555" y="0" name="bottom"/>
  <anchor x="555" y="350" name="center"/>
  <anchor x="555" y="700" name="top"/>
  <outline>
    <contour>
      <point x="1039" y="700" type="line"/>
      <point x="71" y="700" type="line"/>
      <point x="71" y="455" type="line"/>
      <point x="81" y="455" type="line"/>
      <point x="88" y="574"/>
      <point x="147" y="675"/>
      <point x="284" y="675" type="curve" smooth="yes"/>
      <point x="505" y="675" type="line"/>
      <point x="505" y="124" type="line" smooth="yes"/>
      <point x="505" y="37"/>
      <point x="399" y="17"/>
      <point x="315" y="10" type="curve"/>
      <point x="315" y="0" type="line"/>
      <point x="795" y="0" type="line"/>
      <point x="795" y="10" type="line"/>
      <point x="711" y="17"/>
      <point x="605" y="37"/>
      <point x="605" y="124" type="curve" smooth="yes"/>
      <point x="605" y="675" type="line"/>
      <point x="826" y="675" type="line" smooth="yes"/>
      <point x="963" y="675"/>
      <point x="1022" y="574"/>
      <point x="1029" y="455" type="curve"/>
      <point x="1039" y="455" type="line"/>
    </contour>
  </outline>
</glyph>
<glyph name="U" format="2">
  <advance width="1383"/>
  <unicode hex="0055"/>
  <anchor x="692" y="0" name="bottom"/>
  <anchor x="1245" y="10" name="ogonek"/>
  <anchor x="692" y="700" name="top"/>
  <anchor x="1363" y="700" name="topright"/>
  <outline>
    <contour>
      <point x="1334" y="690" type="curve"/>
      <point x="1334" y="700" type="line"/>
      <point x="854" y="700" type="line"/>
      <point x="854" y="690" type="line"/>
      <point x="938" y="683"/>
      <point x="1044" y="663"/>
      <point x="1044" y="576" type="curve" smooth="yes"/>
      <point x="1044" y="255" type="line" smooth="yes"/>
      <point x="1044" y="92"/>
      <point x="872" y="10"/>
      <point x="678" y="10" type="curve" smooth="yes"/>
      <point x="487" y="10"/>
      <point x="333" y="70"/>
      <point x="333" y="307" type="curve" smooth="yes"/>
      <point x="333" y="576" type="line"/>
      <point x="332" y="664"/>
      <point x="439" y="683"/>
      <point x="523" y="690" type="curve"/>
      <point x="523" y="700" type="line"/>
      <point x="43" y="700" type="line"/>
      <point x="43" y="690" type="line"/>
      <point x="124" y="683"/>
      <point x="233" y="663"/>
      <point x="233" y="576" type="curve" smooth="yes"/>
      <point x="233" y="307" type="line" smooth="yes"/>
      <point x="233" y="55"/>
      <point x="406" y="-16"/>
      <point x="632" y="-16" type="curve" smooth="yes"/>
      <point x="796" y="-16"/>
      <point x="947" y="29"/>
      <point x="1044" y="120" type="curve"/>
      <point x="1044" y="0" type="line"/>
      <point x="1334" y="0" type="line"/>
      <point x="1334" y="10" type="line"/>
      <point x="1250" y="18"/>
      <point x="1144" y="39"/>
      <point x="1144" y="124" type="curve" smooth="yes"/>
      <point x="1144" y="576" type="line" smooth="yes"/>
      <point x="1144" y="663"/>
      <point x="1250" y="683"/>
    </contour>
  </outline>
</glyph>
<glyph name="V" format="2">
  <advance width="1315"/>
  <unicode hex="0056"/>
  <anchor x="658" y="0" name="bottom"/>
  <anchor x="658" y="700" name="top"/>
  <outline>
    <contour>
      <point x="658" y="-15" type="line"/>
      <point x="663" y="-15" type="line"/>
      <point x="1020" y="582" type="line" smooth="yes"/>
      <point x="1071" y="667"/>
      <point x="1188" y="683"/>
      <point x="1271" y="690" type="curve"/>
      <point x="1271" y="700" type="line"/>
      <point x="871" y="700" type="line"/>
      <point x="871" y="690" type="line"/>
      <point x="953" y="683"/>
      <point x="1037" y="662"/>
      <point x="989" y="582" type="curve" smooth="yes"/>
      <point x="703" y="102" type="line"/>
      <point x="411" y="583" type="line" smooth="yes"/>
      <point x="365" y="658"/>
      <point x="448" y="683"/>
      <point x="530" y="690" type="curve"/>
      <point x="530" y="700" type="line"/>
      <point x="44" y="700" type="line"/>
      <point x="44" y="690" type="line"/>
      <point x="127" y="683"/>
      <point x="250" y="655"/>
      <point x="298" y="576" type="curve" smooth="yes"/>
    </contour>
  </outline>
</glyph>
<glyph name="W" format="2">
  <advance width="1913"/>
  <unicode hex="0057"/>
  <anchor x="957" y="0" name="bottom"/>
  <anchor x="957" y="700" name="top"/>
  <outline>
    <contour>
      <point x="1468" y="700" type="line"/>
      <point x="1468" y="690" type="line"/>
      <point x="1550" y="683"/>
      <point x="1632" y="665"/>
      <point x="1586" y="582" type="curve" smooth="yes"/>
      <point x="1329" y="117" type="line"/>
      <point x="1068" y="583" type="line" smooth="yes"/>
      <point x="1024" y="661"/>
      <point x="1105" y="683"/>
      <point x="1187" y="690" type="curve"/>
      <point x="1187" y="700" type="line"/>
      <point x="704" y="700" type="line"/>
      <point x="704" y="690" type="line"/>
      <point x="777" y="684"/>
      <point x="882" y="663"/>
      <point x="938" y="604" type="curve"/>
      <point x="669" y="117" type="line"/>
      <point x="409" y="583" type="line" smooth="yes"/>
      <point x="366" y="661"/>
      <point x="446" y="683"/>
      <point x="528" y="690" type="curve"/>
      <point x="528" y="700" type="line"/>
      <point x="44" y="700" type="line"/>
      <point x="44" y="690" type="line"/>
      <point x="127" y="683"/>
      <point x="253" y="657"/>
      <point x="298" y="576" type="curve" smooth="yes"/>
      <point x="628" y="-15" type="line"/>
      <point x="956" y="579" type="line"/>
      <point x="1288" y="-15" type="line"/>
      <point x="1618" y="582" type="line" smooth="yes"/>
      <point x="1667" y="670"/>
      <point x="1786" y="683"/>
      <point x="1869" y="690" type="curve"/>
      <point x="1869" y="700" type="line"/>
    </contour>
  </outline>
</glyph>
<glyph name="X" format="2">
  <advance width="1304"/>
  <unicode hex="0058"/>
  <anchor x="652" y="0" name="bottom"/>
  <anchor x="652" y="700" name="top"/>
  <outline>
    <contour>
      <point x="49" y="0" type="line"/>
      <point x="450" y="0" type="line"/>
      <point x="450" y="10" type="line"/>
      <point x="368" y="17"/>
      <point x="306" y="37"/>
      <point x="392" y="118" type="curve" smooth="yes"/>
      <point x="614" y="318" type="line"/>
      <point x="822" y="117" type="line" smooth="yes"/>
      <point x="902" y="35"/>
      <point x="836" y="15"/>
      <point x="753" y="10" type="curve"/>
      <point x="753" y="0" type="line"/>
      <point x="1255" y="0" type="line"/>
      <point x="1255" y="10" type="line"/>
      <point x="1175" y="18"/>
      <point x="1057" y="36"/>
      <point x="968" y="113" type="curve"/>
      <point x="709" y="363" type="line"/>
      <point x="954" y="583" type="line"/>
      <point x="1054" y="663"/>
      <point x="1174" y="682"/>
      <point x="1255" y="690" type="curve"/>
      <point x="1255" y="700" type="line"/>
      <point x="854" y="700" type="line"/>
      <point x="854" y="690" type="line"/>
      <point x="936" y="683"/>
      <point x="1000" y="661"/>
      <point x="912" y="582" type="curve" smooth="yes"/>
      <point x="690" y="382" type="line"/>
      <point x="482" y="583" type="line" smooth="yes"/>
      <point x="402" y="661"/>
      <point x="467" y="682"/>
      <point x="551" y="690" type="curve"/>
      <point x="551" y="700" type="line"/>
      <point x="49" y="700" type="line"/>
      <point x="49" y="690" type="line"/>
      <point x="129" y="683"/>
      <point x="247" y="664"/>
      <point x="338" y="585" type="curve"/>
      <point x="595" y="337" type="line"/>
      <point x="350" y="117" type="line"/>
      <point x="250" y="37"/>
      <point x="130" y="18"/>
      <point x="49" y="10" type="curve"/>
    </contour>
  </outline>
</glyph>
<glyph name="Y" format="2">
  <advance width="1258"/>
  <unicode hex="0059"/>
  <anchor x="629" y="0" name="bottom"/>
  <anchor x="629" y="700" name="top"/>
  <anchor x="20" y="700" name="topleft"/>
  <outline>
    <contour>
      <point x="435" y="0" type="line"/>
      <point x="915" y="0" type="line"/>
      <point x="915" y="10" type="line"/>
      <point x="831" y="17"/>
      <point x="725" y="38"/>
      <point x="725" y="124" type="curve" smooth="yes"/>
      <point x="725" y="349" type="line"/>
      <point x="933" y="583" type="line" smooth="yes"/>
      <point x="1011" y="670"/>
      <point x="1133" y="682"/>
      <point x="1214" y="690" type="curve"/>
      <point x="1214" y="700" type="line"/>
      <point x="836" y="700" type="line"/>
      <point x="836" y="690" type="line"/>
      <point x="918" y="683"/>
      <point x="972" y="670"/>
      <point x="894" y="582" type="curve" smooth="yes"/>
      <point x="713" y="377" type="line"/>
      <point x="471" y="583" type="line" smooth="yes"/>
      <point x="385" y="657"/>
      <point x="456" y="682"/>
      <point x="540" y="690" type="curve"/>
      <point x="540" y="700" type="line"/>
      <point x="44" y="700" type="line"/>
      <point x="44" y="690" type="line"/>
      <point x="124" y="683"/>
      <point x="222" y="664"/>
      <point x="313" y="585" type="curve" smooth="yes"/>
      <point x="625" y="315" type="line"/>
      <point x="625" y="124" type="line" smooth="yes"/>
      <point x="625" y="37"/>
      <point x="519" y="17"/>
      <point x="435" y="10" type="curve"/>
    </contour>
  </outline>
</glyph>
<glyph name="Z" format="2">
  <advance width="1109"/>
  <unicode hex="005A"/>
  <anchor x="555" y="0" name="bottom"/>
  <anchor x="555" y="350" name="center"/>
  <anchor x="555" y="700" name="top"/>
  <outline>
    <contour>
      <point x="73" y="0" type="line"/>
      <point x="1016" y="0" type="line"/>
      <point x="1036" y="245" type="line"/>
      <point x="1026" y="245" type="line"/>
      <point x="996" y="104"/>
      <point x="960" y="25"/>
      <point x="823" y="25" type="curve" smooth="yes"/>
      <point x="246" y="25" type="line"/>
      <point x="1036" y="690" type="line"/>
      <point x="1036" y="700" type="line"/>
      <point x="93" y="700" type="line"/>
      <point x="73" y="455" type="line"/>
      <point x="83" y="455" type="line"/>
      <point x="113" y="596"/>
      <point x="149" y="675"/>
      <point x="286" y="675" type="curve" smooth="yes"/>
      <point x="862" y="675" type="line"/>
      <point x="73" y="10" type="line"/>
    </contour>
  </outline>
</glyph>
<glyph name="bracketleft" format="2">
  <advance width="475"/>
  <unicode hex="005B"/>
  <outline>
    <contour>
      <point x="430" y="774" type="line"/>
      <point x="430" y="799" type="line"/>
      <point x="113" y="799" type="line"/>
      <point x="113" y="-109" type="line"/>
      <point x="430" y="-109" type="line"/>
      <point x="430" y="-84" type="line"/>
      <point x="171" y="-84" type="line"/>
      <point x="171" y="774" type="line"/>
    </contour>
  </outline>
</glyph>
<glyph name="backslash" format="2">
  <advance width="309"/>
  <unicode hex="005C"/>
  <outline>
    <contour>
      <point x="60" y="725" type="line"/>
      <point x="29" y="722" type="line"/>
      <point x="248" y="-13" type="line"/>
      <point x="279" y="-10" type="line"/>
    </contour>
  </outline>
</glyph>
<glyph name="bracketright" format="2">
  <advance width="475"/>
  <unicode hex="005D"/>
  <outline>
    <contour>
      <point x="45" y="-109" type="line"/>
      <point x="362" y="-109" type="line"/>
      <point x="362" y="799" type="line"/>
      <point x="45" y="799" type="line"/>
      <point x="45" y="774" type="line"/>
      <point x="304" y="774" type="line"/>
      <point x="304" y="-84" type="line"/>
      <point x="45" y="-84" type="line"/>
    </contour>
  </outline>
</glyph>
<glyph name="asciicircum" format="2">
  <advance width="724"/>
  <unicode hex="005E"/>
  <outline>
    <contour>
      <point x="644" y="576" type="line"/>
      <point x="363" y="722" type="line"/>
      <point x="80" y="575" type="line"/>
      <point x="95" y="554" type="line"/>
      <point x="363" y="692" type="line"/>
      <point x="631" y="554" type="line"/>
    </contour>
  </outline>
</glyph>
<glyph name="underscore" format="2">
  <advance width="540"/>
  <unicode hex="005F"/>
  <outline>
    <contour>
      <point x="94" y="-14" type="line"/>
      <point x="94" y="-39" type="line"/>
      <point x="446" y="-39" type="line"/>
      <point x="446" y="-14" type="line"/>
    </contour>
  </outline>
</glyph>
<glyph name="b" format="2">
  <advance width="1011"/>
  <unicode hex="0062"/>
  <anchor x="506" y="0" name="bottom"/>
  <anchor x="506" y="250" name="center"/>
  <anchor x="506" y="500" name="top"/>
  <outline>
    <contour>
      <point x="94" y="-15" type="line"/>
      <point x="99" y="-15" type="line"/>
      <point x="173" y="135" type="line"/>
      <point x="245" y="43"/>
      <point x="400" y="-15"/>
      <point x="560" y="-15" type="curve" smooth="yes"/>
      <point x="779" y="-15"/>
      <point x="963" y="104"/>
      <point x="963" y="250" type="curve" smooth="yes"/>
      <point x="963" y="396"/>
      <point x="779" y="515"/>
      <point x="560" y="515" type="curve" smooth="yes"/>
      <point x="407" y="515"/>
      <point x="262" y="464"/>
      <point x="186" y="381" type="curve"/>
      <point x="186" y="700" type="line"/>
      <point x="-76" y="700" type="line"/>
      <point x="-76" y="690" type="line"/>
      <point x="8" y="683"/>
      <point x="94" y="663"/>
      <point x="94" y="576" type="curve" smooth="yes"/>
    </contour>
    <contour>
      <point x="518" y="10" type="curve" smooth="yes"/>
      <point x="362" y="10"/>
      <point x="186" y="126"/>
      <point x="186" y="249" type="curve" smooth="yes"/>
      <point x="186" y="377"/>
      <point x="362" y="490"/>
      <point x="518" y="490" type="curve" smooth="yes"/>
      <point x="727" y="490"/>
      <point x="851" y="381"/>
      <point x="851" y="249" type="curve" smooth="yes"/>
      <point x="851" y="116"/>
      <point x="727" y="10"/>
    </contour>
  </outline>
</glyph>
<glyph name="d" format="2">
  <advance width="1012"/>
  <unicode hex="0064"/>
  <anchor x="506" y="0" name="bottom"/>
  <anchor x="506" y="250" name="center"/>
  <anchor x="506" y="700" name="top"/>
  <anchor x="992" y="700" name="topright"/>
  <outline>
    <contour>
      <point x="452" y="-15" type="curve" smooth="yes"/>
      <point x="612" y="-15"/>
      <point x="767" y="43"/>
      <point x="839" y="135" type="curve"/>
      <point x="913" y="-15" type="line"/>
      <point x="918" y="-15" type="line"/>
      <point x="918" y="700" type="line"/>
      <point x="656" y="700" type="line"/>
      <point x="656" y="690" type="line"/>
      <point x="741" y="683"/>
      <point x="827" y="663"/>
      <point x="826" y="576" type="curve" smooth="yes"/>
      <point x="826" y="381" type="line"/>
      <point x="750" y="464"/>
      <point x="605" y="515"/>
      <point x="452" y="515" type="curve" smooth="yes"/>
      <point x="233" y="515"/>
      <point x="49" y="396"/>
      <point x="49" y="250" type="curve" smooth="yes"/>
      <point x="49" y="104"/>
      <point x="233" y="-15"/>
    </contour>
    <contour>
      <point x="494" y="10" type="curve" smooth="yes"/>
      <point x="285" y="10"/>
      <point x="165" y="116"/>
      <point x="165" y="249" type="curve" smooth="yes"/>
      <point x="165" y="381"/>
      <point x="285" y="490"/>
      <point x="494" y="490" type="curve" smooth="yes"/>
      <point x="650" y="490"/>
      <point x="826" y="377"/>
      <point x="826" y="249" type="curve" smooth="yes"/>
      <point x="826" y="126"/>
      <point x="650" y="10"/>
    </contour>
  </outline>
</glyph>
<glyph name="e" format="2">
  <advance width="906"/>
  <unicode hex="0065"/>
  <guideline x="655" y="320" angle="0"/>
  <anchor x="453" y="0" name="bottom"/>
  <anchor x="815" y="10" name="ogonek"/>
  <anchor x="453" y="500" name="top"/>
  <outline>
    <contour>
      <point x="486" y="-15" type="curve" smooth="yes"/>
      <point x="645" y="-15"/>
      <point x="778" y="24"/>
      <point x="861" y="151" type="curve"/>
      <point x="841" y="164" type="line"/>
      <point x="755" y="33"/>
      <point x="623" y="10"/>
      <point x="502" y="10" type="curve" smooth="yes"/>
      <point x="271" y="10"/>
      <point x="162" y="142"/>
      <point x="162" y="265" type="curve" smooth="yes"/>
      <point x="162" y="380"/>
      <point x="254" y="490"/>
      <point x="462" y="490" type="curve" smooth="yes"/>
      <point x="624" y="490"/>
      <point x="730" y="435"/>
      <point x="738" y="320" type="curve"/>
      <point x="850" y="320" type="line"/>
      <point x="850" y="405"/>
      <point x="743" y="515"/>
      <point x="461" y="515" type="curve" smooth="yes"/>
      <point x="187" y="515"/>
      <point x="50" y="388"/>
      <point x="50" y="258" type="curve" smooth="yes"/>
      <point x="50" y="125"/>
      <point x="196" y="-15"/>
    </contour>
    <contour>
      <point x="147" y="320" type="line"/>
      <point x="813" y="320" type="line"/>
      <point x="813" y="345" type="line"/>
      <point x="147" y="345" type="line"/>
    </contour>
  </outline>
</glyph>
<glyph name="f" format="2">
  <advance width="757"/>
  <unicode hex="0066"/>
  <anchor x="379" y="0" name="bottom"/>
  <anchor x="379" y="700" name="top"/>
  <outline>
    <contour>
      <point x="30" y="0" type="line"/>
      <point x="462" y="0" type="line"/>
      <point x="462" y="10" type="line"/>
      <point x="378" y="17"/>
      <point x="292" y="37"/>
      <point x="292" y="124" type="curve" smooth="yes"/>
      <point x="292" y="475" type="line"/>
      <point x="732" y="475" type="line"/>
      <point x="732" y="500" type="line"/>
      <point x="398" y="500" type="line" smooth="yes"/>
      <point x="284" y="500"/>
      <point x="238" y="534"/>
      <point x="238" y="572" type="curve" smooth="yes"/>
      <point x="238" y="644"/>
      <point x="348" y="689"/>
      <point x="467" y="689" type="curve" smooth="yes"/>
      <point x="594" y="689"/>
      <point x="704" y="624"/>
      <point x="756" y="538" type="curve"/>
      <point x="766" y="538" type="line"/>
      <point x="727" y="666" type="line"/>
      <point x="668" y="700"/>
      <point x="585" y="715"/>
      <point x="502" y="715" type="curve" smooth="yes"/>
      <point x="351" y="715"/>
      <point x="200" y="661"/>
      <point x="200" y="547" type="curve" smooth="yes"/>
      <point x="200" y="500" type="line"/>
      <point x="47" y="500" type="line"/>
      <point x="47" y="475" type="line"/>
      <point x="200" y="475" type="line"/>
      <point x="200" y="124" type="line" smooth="yes"/>
      <point x="200" y="37"/>
      <point x="114" y="17"/>
      <point x="30" y="10" type="curve"/>
    </contour>
  </outline>
</glyph>
<glyph name="g" format="2">
  <advance width="962"/>
  <unicode hex="0067"/>
  <guideline x="106" y="126" angle="354.167"/>
  <guideline x="931" y="335" angle="90"/>
  <anchor x="481" y="-200" name="bottom"/>
  <anchor x="481" y="500" name="top"/>
  <outline>
    <contour>
      <point x="491" y="169" type="curve" smooth="yes"/>
      <point x="705" y="169"/>
      <point x="877" y="244"/>
      <point x="877" y="335" type="curve" smooth="yes"/>
      <point x="877" y="426"/>
      <point x="705" y="500"/>
      <point x="491" y="500" type="curve" smooth="yes"/>
      <point x="275" y="500"/>
      <point x="104" y="426"/>
      <point x="104" y="335" type="curve" smooth="yes"/>
      <point x="104" y="244"/>
      <point x="275" y="169"/>
    </contour>
    <contour>
      <point x="491" y="194" type="curve" smooth="yes"/>
      <point x="327" y="194"/>
      <point x="216" y="258"/>
      <point x="216" y="335" type="curve" smooth="yes"/>
      <point x="216" y="411"/>
      <point x="327" y="475"/>
      <point x="491" y="475" type="curve" smooth="yes"/>
      <point x="653" y="475"/>
      <point x="765" y="412"/>
      <point x="765" y="335" type="curve" smooth="yes"/>
      <point x="765" y="258"/>
      <point x="653" y="194"/>
    </contour>
    <contour>
      <point x="493" y="475" type="line"/>
      <point x="931" y="475" type="line"/>
      <point x="931" y="500" type="line"/>
      <point x="493" y="500" type="line"/>
    </contour>
    <contour>
      <point x="132" y="17"/>
      <point x="821" y="78"/>
      <point x="821" y="-75" type="curve" smooth="yes"/>
      <point x="821" y="-151"/>
      <point x="679" y="-190"/>
      <point x="479" y="-190" type="curve" smooth="yes"/>
      <point x="323" y="-190"/>
      <point x="157" y="-128"/>
      <point x="157" y="-65" type="curve" smooth="yes"/>
      <point x="157" y="0"/>
      <point x="286" y="37"/>
      <point x="371" y="56" type="curve"/>
      <point x="319" y="61" type="line"/>
      <point x="125" y="41"/>
      <point x="45" y="-19"/>
      <point x="45" y="-73" type="curve" smooth="yes"/>
      <point x="45" y="-152"/>
      <point x="190" y="-212"/>
      <point x="471" y="-215" type="curve" smooth="yes"/>
      <point x="788" y="-218"/>
      <point x="936" y="-149"/>
      <point x="934" y="-55" type="curve" smooth="yes"/>
      <point x="930" y="117"/>
      <point x="267" y="79"/>
      <point x="267" y="144" type="curve" smooth="yes"/>
      <point x="267" y="173"/>
      <point x="356" y="180"/>
      <point x="395" y="188" type="curve"/>
      <point x="334" y="200" type="line"/>
      <point x="221" y="187"/>
      <point x="140" y="159"/>
      <point x="138" y="121" type="curve" smooth="yes"/>
    </contour>
  </outline>
</glyph>
<glyph name="k" format="2">
  <advance width="1126"/>
  <unicode hex="006B"/>
  <anchor x="563" y="0" name="bottom"/>
  <anchor x="563" y="700" name="top"/>
  <outline>
    <contour>
      <point x="22" y="0" type="line"/>
      <point x="454" y="0" type="line"/>
      <point x="454" y="10" type="line"/>
      <point x="370" y="17"/>
      <point x="284" y="37"/>
      <point x="284" y="124" type="curve" smooth="yes"/>
      <point x="284" y="261" type="line"/>
      <point x="373" y="300" type="line"/>
      <point x="619" y="121" type="line" smooth="yes"/>
      <point x="732" y="37"/>
      <point x="699" y="17"/>
      <point x="616" y="10" type="curve"/>
      <point x="616" y="0" type="line"/>
      <point x="1087" y="0" type="line"/>
      <point x="1087" y="10" type="line"/>
      <point x="1009" y="16"/>
      <point x="906" y="30"/>
      <point x="803" y="105" type="curve" smooth="yes"/>
      <point x="472" y="346" type="line"/>
      <point x="561" y="383" type="line" smooth="yes"/>
      <point x="709" y="444"/>
      <point x="877" y="487"/>
      <point x="964" y="490" type="curve"/>
      <point x="964" y="500" type="line"/>
      <point x="588" y="500" type="line"/>
      <point x="588" y="490" type="line"/>
      <point x="680" y="486"/>
      <point x="624" y="442"/>
      <point x="532" y="400" type="curve" smooth="yes"/>
      <point x="284" y="291" type="line"/>
      <point x="284" y="576" type="line" smooth="yes"/>
      <point x="284" y="663"/>
      <point x="370" y="683"/>
      <point x="454" y="690" type="curve"/>
      <point x="454" y="700" type="line"/>
      <point x="22" y="700" type="line"/>
      <point x="22" y="690" type="line"/>
      <point x="106" y="683"/>
      <point x="192" y="663"/>
      <point x="192" y="576" type="curve" smooth="yes"/>
      <point x="192" y="124" type="line" smooth="yes"/>
      <point x="192" y="37"/>
      <point x="106" y="17"/>
      <point x="22" y="10" type="curve"/>
    </contour>
  </outline>
</glyph>
<glyph name="l" format="2">
  <advance width="476"/>
  <unicode hex="006C"/>
  <anchor x="238" y="0" name="bottom"/>
  <anchor x="238" y="350" name="center"/>
  <anchor x="238" y="700" name="top"/>
  <anchor x="335" y="700" name="topright"/>
  <outline>
    <contour>
      <point x="22" y="0" type="line"/>
      <point x="454" y="0" type="line"/>
      <point x="454" y="10" type="line"/>
      <point x="370" y="17"/>
      <point x="284" y="37"/>
      <point x="284" y="124" type="curve" smooth="yes"/>
      <point x="284" y="700" type="line"/>
      <point x="22" y="700" type="line"/>
      <point x="22" y="690" type="line"/>
      <point x="106" y="683"/>
      <point x="192" y="663"/>
      <point x="192" y="576" type="curve" smooth="yes"/>
      <point x="192" y="124" type="line" smooth="yes"/>
      <point x="192" y="37"/>
      <point x="106" y="17"/>
      <point x="22" y="10" type="curve"/>
    </contour>
  </outline>
</glyph>
<glyph name="m" format="2">
  <advance width="1854"/>
  <unicode hex="006D"/>
  <anchor x="927" y="0" name="bottom"/>
  <anchor x="927" y="500" name="top"/>
  <outline>
    <contour>
      <point x="30" y="0" type="line"/>
      <point x="462" y="0" type="line"/>
      <point x="462" y="10" type="line"/>
      <point x="378" y="17"/>
      <point x="292" y="36"/>
      <point x="292" y="124" type="curve" smooth="yes"/>
      <point x="292" y="306" type="line" smooth="yes"/>
      <point x="292" y="406"/>
      <point x="426" y="490"/>
      <point x="604" y="490" type="curve" smooth="yes"/>
      <point x="746" y="490"/>
      <point x="885" y="424"/>
      <point x="885" y="305" type="curve" smooth="yes"/>
      <point x="885" y="124" type="line" smooth="yes"/>
      <point x="885" y="38"/>
      <point x="799" y="18"/>
      <point x="715" y="10" type="curve"/>
      <point x="715" y="0" type="line"/>
      <point x="1147" y="0" type="line"/>
      <point x="1147" y="10" type="line"/>
      <point x="1063" y="17"/>
      <point x="977" y="37"/>
      <point x="977" y="124" type="curve" smooth="yes"/>
      <point x="977" y="306" type="line" smooth="yes"/>
      <point x="977" y="406"/>
      <point x="1111" y="490"/>
      <point x="1289" y="490" type="curve" smooth="yes"/>
      <point x="1431" y="490"/>
      <point x="1570" y="424"/>
      <point x="1570" y="305" type="curve" smooth="yes"/>
      <point x="1570" y="124" type="line" smooth="yes"/>
      <point x="1570" y="38"/>
      <point x="1484" y="18"/>
      <point x="1400" y="10" type="curve"/>
      <point x="1400" y="0" type="line"/>
      <point x="1832" y="0" type="line"/>
      <point x="1832" y="10" type="line"/>
      <point x="1748" y="17"/>
      <point x="1662" y="37"/>
      <point x="1662" y="124" type="curve" smooth="yes"/>
      <point x="1662" y="305" type="line" smooth="yes"/>
      <point x="1662" y="453"/>
      <point x="1499" y="515"/>
      <point x="1290" y="515" type="curve" smooth="yes"/>
      <point x="1148" y="515"/>
      <point x="1014" y="468"/>
      <point x="953" y="393" type="curve"/>
      <point x="900" y="478"/>
      <point x="766" y="515"/>
      <point x="605" y="515" type="curve" smooth="yes"/>
      <point x="479" y="515"/>
      <point x="360" y="478"/>
      <point x="292" y="418" type="curve"/>
      <point x="292" y="500" type="line"/>
      <point x="30" y="500" type="line"/>
      <point x="30" y="490" type="line"/>
      <point x="114" y="484"/>
      <point x="200" y="463"/>
      <point x="200" y="376" type="curve" smooth="yes"/>
      <point x="200" y="124" type="line" smooth="yes"/>
      <point x="200" y="38"/>
      <point x="116" y="17"/>
      <point x="30" y="10" type="curve"/>
    </contour>
  </outline>
</glyph>
<glyph name="n" format="2">
  <advance width="1177"/>
  <unicode hex="006E"/>
  <guideline x="1038" y="555" angle="0"/>
  <anchor x="589" y="0" name="bottom"/>
  <anchor x="589" y="500" name="top"/>
  <outline>
    <contour>
      <point x="985" y="124" type="curve" smooth="yes"/>
      <point x="985" y="305" type="line" smooth="yes"/>
      <point x="985" y="453"/>
      <point x="822" y="512"/>
      <point x="613" y="512" type="curve" smooth="yes"/>
      <point x="487" y="512"/>
      <point x="368" y="476"/>
      <point x="300" y="417" type="curve"/>
      <point x="300" y="500" type="line"/>
      <point x="30" y="500" type="line"/>
      <point x="30" y="490" type="line"/>
      <point x="114" y="484"/>
      <point x="200" y="463"/>
      <point x="200" y="376" type="curve" smooth="yes"/>
      <point x="200" y="124" type="line" smooth="yes"/>
      <point x="203" y="38"/>
      <point x="116" y="17"/>
      <point x="30" y="10" type="curve"/>
      <point x="30" y="0" type="line"/>
      <point x="462" y="0" type="line"/>
      <point x="462" y="10" type="line"/>
      <point x="378" y="17"/>
      <point x="292" y="36"/>
      <point x="292" y="124" type="curve" smooth="yes"/>
      <point x="292" y="306" type="line" smooth="yes"/>
      <point x="292" y="406"/>
      <point x="434" y="487"/>
      <point x="612" y="487" type="curve" smooth="yes"/>
      <point x="754" y="487"/>
      <point x="893" y="424"/>
      <point x="893" y="305" type="curve" smooth="yes"/>
      <point x="893" y="124" type="line" smooth="yes"/>
      <point x="893" y="38"/>
      <point x="807" y="18"/>
      <point x="723" y="10" type="curve"/>
      <point x="723" y="0" type="line"/>
      <point x="1155" y="0" type="line"/>
      <point x="1155" y="10" type="line"/>
      <point x="1071" y="17"/>
      <point x="985" y="37"/>
    </contour>
  </outline>
</glyph>
<glyph name="o" format="2">
  <advance width="988"/>
  <unicode hex="006F"/>
  <anchor x="494" y="0" name="bottom"/>
  <anchor x="494" y="250" name="center"/>
  <anchor x="889" y="10" name="ogonek"/>
  <anchor x="494" y="500" name="top"/>
  <anchor x="968" y="500" name="topright"/>
  <outline>
    <contour>
      <point x="494" y="-15" type="curve" smooth="yes"/>
      <point x="749" y="-15"/>
      <point x="940" y="100"/>
      <point x="940" y="246" type="curve" smooth="yes"/>
      <point x="940" y="392"/>
      <point x="749" y="515"/>
      <point x="494" y="515" type="curve" smooth="yes"/>
      <point x="239" y="515"/>
      <point x="48" y="392"/>
      <point x="48" y="246" type="curve" smooth="yes"/>
      <point x="48" y="100"/>
      <point x="239" y="-15"/>
    </contour>
    <contour>
      <point x="494" y="10" type="curve" smooth="yes"/>
      <point x="302" y="10"/>
      <point x="160" y="112"/>
      <point x="160" y="246" type="curve" smooth="yes"/>
      <point x="160" y="388"/>
      <point x="302" y="490"/>
      <point x="494" y="490" type="curve" smooth="yes"/>
      <point x="686" y="490"/>
      <point x="828" y="388"/>
      <point x="828" y="246" type="curve" smooth="yes"/>
      <point x="828" y="112"/>
      <point x="686" y="10"/>
    </contour>
  </outline>
</glyph>
<glyph name="p" format="2">
  <advance width="1110"/>
  <unicode hex="0070"/>
  <anchor x="555" y="0" name="bottom"/>
  <anchor x="555" y="500" name="top"/>
  <outline>
    <contour>
      <point x="22" y="-200" type="line"/>
      <point x="454" y="-200" type="line"/>
      <point x="454" y="-190" type="line"/>
      <point x="370" y="-183"/>
      <point x="284" y="-163"/>
      <point x="284" y="-76" type="curve" smooth="yes"/>
      <point x="284" y="119" type="line"/>
      <point x="360" y="36"/>
      <point x="505" y="-15"/>
      <point x="658" y="-15" type="curve" smooth="yes"/>
      <point x="877" y="-15"/>
      <point x="1061" y="104"/>
      <point x="1061" y="250" type="curve" smooth="yes"/>
      <point x="1061" y="395"/>
      <point x="877" y="515"/>
      <point x="658" y="515" type="curve" smooth="yes"/>
      <point x="507" y="515"/>
      <point x="360" y="463"/>
      <point x="284" y="380" type="curve"/>
      <point x="284" y="500" type="line"/>
      <point x="22" y="500" type="line"/>
      <point x="22" y="490" type="line"/>
      <point x="106" y="483"/>
      <point x="192" y="463"/>
      <point x="192" y="376" type="curve" smooth="yes"/>
      <point x="192" y="-76" type="line" smooth="yes"/>
      <point x="192" y="-163"/>
      <point x="106" y="-183"/>
      <point x="22" y="-190" type="curve"/>
    </contour>
    <contour>
      <point x="616" y="10" type="curve" smooth="yes"/>
      <point x="460" y="10"/>
      <point x="284" y="123"/>
      <point x="284" y="251" type="curve" smooth="yes"/>
      <point x="284" y="374"/>
      <point x="460" y="490"/>
      <point x="616" y="490" type="curve" smooth="yes"/>
      <point x="824" y="490"/>
      <point x="949" y="384"/>
      <point x="949" y="251" type="curve" smooth="yes"/>
      <point x="949" y="119"/>
      <point x="825" y="10"/>
    </contour>
  </outline>
</glyph>
<glyph name="q" format="2">
  <advance width="1012"/>
  <unicode hex="0071"/>
  <anchor x="506" y="0" name="bottom"/>
  <anchor x="506" y="500" name="top"/>
  <outline>
    <contour>
      <point x="656" y="-208" type="line"/>
      <point x="1088" y="-208" type="line"/>
      <point x="1088" y="-198" type="line"/>
      <point x="1003" y="-191"/>
      <point x="918" y="-171"/>
      <point x="918" y="-84" type="curve" smooth="yes"/>
      <point x="918" y="507" type="line"/>
      <point x="913" y="507" type="line"/>
      <point x="841" y="362" type="line"/>
      <point x="771" y="456"/>
      <point x="614" y="515"/>
      <point x="452" y="515" type="curve" smooth="yes"/>
      <point x="233" y="515"/>
      <point x="49" y="396"/>
      <point x="49" y="250" type="curve" smooth="yes"/>
      <point x="49" y="104"/>
      <point x="233" y="-15"/>
      <point x="452" y="-15" type="curve" smooth="yes"/>
      <point x="605" y="-15"/>
      <point x="750" y="36"/>
      <point x="826" y="119" type="curve"/>
      <point x="826" y="-84" type="line" smooth="yes"/>
      <point x="827" y="-171"/>
      <point x="741" y="-191"/>
      <point x="656" y="-198" type="curve"/>
    </contour>
    <contour>
      <point x="494" y="10" type="curve" smooth="yes"/>
      <point x="285" y="10"/>
      <point x="161" y="119"/>
      <point x="161" y="251" type="curve" smooth="yes"/>
      <point x="161" y="384"/>
      <point x="286" y="490"/>
      <point x="494" y="490" type="curve" smooth="yes"/>
      <point x="650" y="490"/>
      <point x="826" y="374"/>
      <point x="826" y="251" type="curve" smooth="yes"/>
      <point x="826" y="123"/>
      <point x="650" y="10"/>
    </contour>
  </outline>
</glyph>
<glyph name="r" format="2">
  <advance width="872"/>
  <unicode hex="0072"/>
  <anchor x="436" y="0" name="bottom"/>
  <anchor x="436" y="500" name="top"/>
  <outline>
    <contour>
      <point x="292" y="124" type="curve" smooth="yes"/>
      <point x="292" y="500" type="line"/>
      <point x="30" y="500" type="line"/>
      <point x="30" y="490" type="line"/>
      <point x="114" y="483"/>
      <point x="200" y="463"/>
      <point x="200" y="376" type="curve" smooth="yes"/>
      <point x="200" y="124" type="line" smooth="yes"/>
      <point x="200" y="37"/>
      <point x="114" y="17"/>
      <point x="30" y="10" type="curve"/>
      <point x="30" y="0" type="line"/>
      <point x="462" y="0" type="line"/>
      <point x="462" y="10" type="line"/>
      <point x="378" y="17"/>
      <point x="292" y="37"/>
    </contour>
    <contour>
      <point x="507" y="487" type="curve" smooth="yes"/>
      <point x="643" y="487"/>
      <point x="742" y="427"/>
      <point x="821" y="291" type="curve"/>
      <point x="831" y="291" type="line"/>
      <point x="780" y="467" type="line"/>
      <point x="720" y="495"/>
      <point x="631" y="512"/>
      <point x="511" y="512" type="curve" smooth="yes"/>
      <point x="395" y="512"/>
      <point x="220" y="440"/>
      <point x="220" y="304" type="curve"/>
      <point x="292" y="254" type="line"/>
      <point x="294" y="412"/>
      <point x="355" y="487"/>
    </contour>
  </outline>
</glyph>
<glyph name="s" format="2">
  <advance width="945"/>
  <unicode hex="0073"/>
  <anchor x="473" y="0" name="bottom"/>
  <anchor x="473" y="500" name="top"/>
  <outline>
    <contour>
      <point x="494" y="-14" type="curve" smooth="yes"/>
      <point x="710" y="-14"/>
      <point x="906" y="28"/>
      <point x="906" y="146" type="curve" smooth="yes"/>
      <point x="906" y="260"/>
      <point x="677" y="277"/>
      <point x="493" y="300" type="curve" smooth="yes"/>
      <point x="355" y="317"/>
      <point x="212" y="331"/>
      <point x="212" y="397" type="curve" smooth="yes"/>
      <point x="212" y="476"/>
      <point x="361" y="490"/>
      <point x="434" y="490" type="curve" smooth="yes"/>
      <point x="559" y="490"/>
      <point x="728" y="456"/>
      <point x="812" y="302" type="curve"/>
      <point x="822" y="302" type="line"/>
      <point x="769" y="468" type="line"/>
      <point x="695" y="497"/>
      <point x="590" y="515"/>
      <point x="464" y="515" type="curve" smooth="yes"/>
      <point x="279" y="515"/>
      <point x="117" y="465"/>
      <point x="118" y="369" type="curve" smooth="yes"/>
      <point x="119" y="265"/>
      <point x="312" y="243"/>
      <point x="483" y="223" type="curve" smooth="yes"/>
      <point x="642" y="204"/>
      <point x="816" y="194"/>
      <point x="816" y="116" type="curve" smooth="yes"/>
      <point x="816" y="37"/>
      <point x="667" y="11"/>
      <point x="519" y="11" type="curve" smooth="yes"/>
      <point x="319" y="11"/>
      <point x="145" y="53"/>
      <point x="60" y="289" type="curve"/>
      <point x="50" y="289" type="line"/>
      <point x="84" y="80" type="line"/>
      <point x="168" y="28"/>
      <point x="322" y="-14"/>
    </contour>
  </outline>
</glyph>
<glyph name="t" format="2">
  <advance width="678"/>
  <unicode hex="0074"/>
  <anchor x="398" y="0" name="bottom"/>
  <anchor x="339" y="250" name="center"/>
  <anchor x="339" y="500" name="top"/>
  <anchor x="290" y="700" name="topright"/>
  <outline>
    <contour>
      <point x="25" y="475" type="line"/>
      <point x="619" y="475" type="line"/>
      <point x="619" y="500" type="line"/>
      <point x="25" y="500" type="line"/>
    </contour>
    <contour>
      <point x="25" y="500" type="curve"/>
      <point x="258" y="500" type="line"/>
      <point x="258" y="700" type="line"/>
      <point x="238" y="700" type="line"/>
      <point x="222" y="567"/>
      <point x="210" y="500"/>
    </contour>
    <contour>
      <point x="643" y="83" type="curve"/>
      <point x="627" y="104" type="line"/>
      <point x="601" y="58"/>
      <point x="507" y="14"/>
      <point x="421" y="14" type="curve" smooth="yes"/>
      <point x="321" y="14"/>
      <point x="258" y="80"/>
      <point x="258" y="204" type="curve" smooth="yes"/>
      <point x="258" y="478" type="line"/>
      <point x="166" y="478" type="line"/>
      <point x="166" y="204" type="line" smooth="yes"/>
      <point x="166" y="64"/>
      <point x="232" y="-15"/>
      <point x="378" y="-15" type="curve" smooth="yes"/>
      <point x="504" y="-15"/>
      <point x="605" y="29"/>
    </contour>
  </outline>
</glyph>
<glyph name="u" format="2">
  <advance width="1131"/>
  <unicode hex="0075"/>
  <anchor x="566" y="0" name="bottom"/>
  <anchor x="1018" y="10" name="ogonek"/>
  <anchor x="566" y="500" name="top"/>
  <anchor x="1111" y="500" name="topright"/>
  <outline>
    <contour>
      <point x="564" y="-12" type="curve" smooth="yes"/>
      <point x="680" y="-12"/>
      <point x="779" y="24"/>
      <point x="847" y="83" type="curve"/>
      <point x="847" y="0" type="line"/>
      <point x="1109" y="0" type="line"/>
      <point x="1109" y="10" type="line"/>
      <point x="1025" y="16"/>
      <point x="939" y="37"/>
      <point x="939" y="124" type="curve" smooth="yes"/>
      <point x="939" y="500" type="line"/>
      <point x="677" y="500" type="line"/>
      <point x="677" y="490" type="line"/>
      <point x="761" y="483"/>
      <point x="847" y="464"/>
      <point x="847" y="376" type="curve" smooth="yes"/>
      <point x="847" y="194" type="line" smooth="yes"/>
      <point x="847" y="94"/>
      <point x="733" y="13"/>
      <point x="565" y="13" type="curve" smooth="yes"/>
      <point x="423" y="13"/>
      <point x="284" y="66"/>
      <point x="284" y="195" type="curve" smooth="yes"/>
      <point x="284" y="500" type="line"/>
      <point x="22" y="500" type="line"/>
      <point x="22" y="490" type="line"/>
      <point x="106" y="483"/>
      <point x="192" y="463"/>
      <point x="192" y="376" type="curve" smooth="yes"/>
      <point x="192" y="180" type="line" smooth="yes"/>
      <point x="192" y="37"/>
      <point x="355" y="-12"/>
    </contour>
  </outline>
</glyph>
<glyph name="v" format="2">
  <advance width="1150"/>
  <unicode hex="0076"/>
  <guideline x="575" y="278" angle="90"/>
  <anchor x="575" y="0" name="bottom"/>
  <anchor x="575" y="500" name="top"/>
  <outline>
    <contour>
      <point x="1128" y="500" type="line"/>
      <point x="772" y="500" type="line"/>
      <point x="772" y="490" type="line"/>
      <point x="854" y="483"/>
      <point x="924" y="463"/>
      <point x="860" y="383" type="curve" smooth="yes"/>
      <point x="618" y="82" type="line"/>
      <point x="380" y="379" type="line" smooth="yes"/>
      <point x="316" y="459"/>
      <point x="381" y="483"/>
      <point x="464" y="490" type="curve"/>
      <point x="464" y="500" type="line"/>
      <point x="22" y="500" type="line"/>
      <point x="22" y="490" type="line"/>
      <point x="106" y="483"/>
      <point x="193" y="459"/>
      <point x="257" y="379" type="curve" smooth="yes"/>
      <point x="575" y="-15" type="line"/>
      <point x="892" y="379" type="line" smooth="yes"/>
      <point x="959" y="462"/>
      <point x="1044" y="483"/>
      <point x="1128" y="490" type="curve"/>
    </contour>
  </outline>
</glyph>
<glyph name="w" format="2">
  <advance width="1793"/>
  <unicode hex="0077"/>
  <anchor x="897" y="0" name="bottom"/>
  <anchor x="897" y="500" name="top"/>
  <outline>
    <contour>
      <point x="555" y="-15" type="line"/>
      <point x="895" y="409" type="line"/>
      <point x="1238" y="-15" type="line"/>
      <point x="1555" y="379" type="line" smooth="yes"/>
      <point x="1622" y="462"/>
      <point x="1687" y="483"/>
      <point x="1771" y="490" type="curve"/>
      <point x="1771" y="500" type="line"/>
      <point x="1435" y="500" type="line"/>
      <point x="1435" y="490" type="line"/>
      <point x="1517" y="483"/>
      <point x="1585" y="460"/>
      <point x="1523" y="383" type="curve" smooth="yes"/>
      <point x="1282" y="82" type="line"/>
      <point x="1042" y="379" type="line" smooth="yes"/>
      <point x="977" y="459"/>
      <point x="1043" y="483"/>
      <point x="1126" y="490" type="curve"/>
      <point x="1126" y="500" type="line"/>
      <point x="752" y="500" type="line"/>
      <point x="752" y="490" type="line"/>
      <point x="852" y="481"/>
      <point x="895" y="453"/>
      <point x="839" y="383" type="curve" smooth="yes"/>
      <point x="598" y="81" type="line"/>
      <point x="359" y="379" type="line" smooth="yes"/>
      <point x="294" y="460"/>
      <point x="360" y="483"/>
      <point x="443" y="490" type="curve"/>
      <point x="443" y="500" type="line"/>
      <point x="22" y="500" type="line"/>
      <point x="22" y="490" type="line"/>
      <point x="106" y="483"/>
      <point x="173" y="459"/>
      <point x="237" y="379" type="curve" smooth="yes"/>
    </contour>
  </outline>
</glyph>
<glyph name="x" format="2">
  <advance width="1063"/>
  <unicode hex="0078"/>
  <anchor x="532" y="0" name="bottom"/>
  <anchor x="532" y="500" name="top"/>
  <outline>
    <contour>
      <point x="30" y="0" type="line"/>
      <point x="346" y="0" type="line"/>
      <point x="346" y="10" type="line"/>
      <point x="268" y="17"/>
      <point x="239" y="34"/>
      <point x="357" y="122" type="curve" smooth="yes"/>
      <point x="491" y="221" type="line"/>
      <point x="614" y="121" type="line" smooth="yes"/>
      <point x="714" y="36"/>
      <point x="684" y="17"/>
      <point x="609" y="10" type="curve"/>
      <point x="609" y="0" type="line"/>
      <point x="1030" y="0" type="line"/>
      <point x="1030" y="10" type="line"/>
      <point x="955" y="17"/>
      <point x="867" y="38"/>
      <point x="762" y="123" type="curve" smooth="yes"/>
      <point x="591" y="262" type="line"/>
      <point x="754" y="384" type="line" smooth="yes"/>
      <point x="862" y="465"/>
      <point x="956" y="483"/>
      <point x="1029" y="490" type="curve"/>
      <point x="1029" y="500" type="line"/>
      <point x="713" y="500" type="line"/>
      <point x="713" y="490" type="line"/>
      <point x="786" y="483"/>
      <point x="814" y="462"/>
      <point x="710" y="385" type="curve" smooth="yes"/>
      <point x="569" y="280" type="line"/>
      <point x="413" y="406" type="line"/>
      <point x="349" y="467"/>
      <point x="382" y="484"/>
      <point x="452" y="490" type="curve"/>
      <point x="452" y="500" type="line"/>
      <point x="30" y="500" type="line"/>
      <point x="30" y="490" type="line"/>
      <point x="106" y="483"/>
      <point x="188" y="466"/>
      <point x="290" y="384" type="curve" smooth="yes"/>
      <point x="469" y="239" type="line"/>
      <point x="307" y="119" type="line" smooth="yes"/>
      <point x="192" y="34"/>
      <point x="107" y="17"/>
      <point x="30" y="10" type="curve"/>
    </contour>
  </outline>
</glyph>
<glyph name="y" format="2">
  <advance width="1070"/>
  <unicode hex="0079"/>
  <anchor x="535" y="0" name="bottom"/>
  <anchor x="588" y="500" name="top"/>
  <outline>
    <contour>
      <point x="221" y="-200" type="line"/>
      <point x="574" y="-200" type="line"/>
      <point x="574" y="-190" type="line"/>
      <point x="491" y="-183"/>
      <point x="430" y="-164"/>
      <point x="488" y="-82" type="curve" smooth="yes"/>
      <point x="816" y="384" type="line" smooth="yes"/>
      <point x="875" y="467"/>
      <point x="966" y="483"/>
      <point x="1048" y="490" type="curve"/>
      <point x="1048" y="500" type="line"/>
      <point x="695" y="500" type="line"/>
      <point x="695" y="490" type="line"/>
      <point x="777" y="483"/>
      <point x="838" y="462"/>
      <point x="784" y="385" type="curve" smooth="yes"/>
      <point x="578" y="90" type="line"/>
      <point x="373" y="379" type="line" smooth="yes"/>
      <point x="314" y="463"/>
      <point x="374" y="483"/>
      <point x="457" y="490" type="curve"/>
      <point x="457" y="500" type="line"/>
      <point x="22" y="500" type="line"/>
      <point x="22" y="490" type="line"/>
      <point x="106" y="483"/>
      <point x="198" y="463"/>
      <point x="257" y="379" type="curve" smooth="yes"/>
      <point x="519" y="9" type="line"/>
      <point x="447" y="-91" type="line" smooth="yes"/>
      <point x="390" y="-171"/>
      <point x="300" y="-183"/>
      <point x="221" y="-190" type="curve"/>
    </contour>
  </outline>
</glyph>
<glyph name="z" format="2">
  <advance width="925"/>
  <unicode hex="007A"/>
  <anchor x="463" y="0" name="bottom"/>
  <anchor x="463" y="250" name="center"/>
  <anchor x="463" y="500" name="top"/>
  <outline>
    <contour>
      <point x="63" y="0" type="line"/>
      <point x="848" y="0" type="line"/>
      <point x="862" y="245" type="line"/>
      <point x="852" y="245" type="line"/>
      <point x="845" y="126"/>
      <point x="777" y="25"/>
      <point x="656" y="25" type="curve" smooth="yes"/>
      <point x="250" y="25" type="line"/>
      <point x="862" y="500" type="line"/>
      <point x="104" y="500" type="line"/>
      <point x="90" y="255" type="line"/>
      <point x="100" y="255" type="line"/>
      <point x="107" y="374"/>
      <point x="175" y="475"/>
      <point x="296" y="475" type="curve" smooth="yes"/>
      <point x="675" y="475" type="line"/>
    </contour>
  </outline>
</glyph>
<glyph name="braceleft" format="2">
  <advance width="459"/>
  <unicode hex="007B"/>
  <outline>
    <contour>
      <point x="58" y="246" type="line"/>
      <point x="152" y="246"/>
      <point x="239" y="220"/>
      <point x="239" y="159" type="curve" smooth="yes"/>
      <point x="239" y="74"/>
      <point x="110" y="32"/>
      <point x="110" y="-76" type="curve" smooth="yes"/>
      <point x="110" y="-186"/>
      <point x="209" y="-221"/>
      <point x="318" y="-221" type="curve" smooth="yes"/>
      <point x="459" y="-221" type="line"/>
      <point x="459" y="-196" type="line"/>
      <point x="328" y="-196" type="line" smooth="yes"/>
      <point x="233" y="-196"/>
      <point x="172" y="-170"/>
      <point x="172" y="-75" type="curve" smooth="yes"/>
      <point x="172" y="31"/>
      <point x="283" y="64"/>
      <point x="279" y="161" type="curve" smooth="yes"/>
      <point x="276" y="226"/>
      <point x="180" y="262"/>
      <point x="114" y="266" type="curve"/>
      <point x="180" y="270"/>
      <point x="276" y="306"/>
      <point x="279" y="371" type="curve" smooth="yes"/>
      <point x="283" y="468"/>
      <point x="172" y="501"/>
      <point x="172" y="607" type="curve" smooth="yes"/>
      <point x="172" y="702"/>
      <point x="233" y="728"/>
      <point x="328" y="728" type="curve" smooth="yes"/>
      <point x="459" y="728" type="line"/>
      <point x="459" y="753" type="line"/>
      <point x="318" y="753" type="line" smooth="yes"/>
      <point x="209" y="753"/>
      <point x="110" y="718"/>
      <point x="110" y="608" type="curve" smooth="yes"/>
      <point x="110" y="500"/>
      <point x="239" y="458"/>
      <point x="239" y="373" type="curve" smooth="yes"/>
      <point x="239" y="312"/>
      <point x="152" y="281"/>
      <point x="58" y="281" type="curve"/>
    </contour>
  </outline>
</glyph>
<glyph name="bar" format="2">
  <advance width="358"/>
  <unicode hex="007C"/>
  <outline>
    <contour>
      <point x="165" y="715" type="line"/>
      <point x="165" y="-120" type="line"/>
      <point x="193" y="-120" type="line"/>
      <point x="193" y="715" type="line"/>
    </contour>
  </outline>
</glyph>
<glyph name="braceright" format="2">
  <advance width="459"/>
  <unicode hex="007D"/>
  <outline>
    <contour>
      <point x="401" y="246" type="curve"/>
      <point x="401" y="281" type="line"/>
      <point x="307" y="281"/>
      <point x="220" y="312"/>
      <point x="220" y="373" type="curve" smooth="yes"/>
      <point x="220" y="458"/>
      <point x="349" y="500"/>
      <point x="349" y="608" type="curve" smooth="yes"/>
      <point x="349" y="718"/>
      <point x="250" y="753"/>
      <point x="141" y="753" type="curve" smooth="yes"/>
      <point x="0" y="753" type="line"/>
      <point x="0" y="728" type="line"/>
      <point x="131" y="728" type="line" smooth="yes"/>
      <point x="226" y="728"/>
      <point x="287" y="702"/>
      <point x="287" y="607" type="curve" smooth="yes"/>
      <point x="287" y="501"/>
      <point x="176" y="468"/>
      <point x="180" y="371" type="curve" smooth="yes"/>
      <point x="183" y="306"/>
      <point x="279" y="270"/>
      <point x="345" y="266" type="curve"/>
      <point x="279" y="262"/>
      <point x="183" y="226"/>
      <point x="180" y="161" type="curve" smooth="yes"/>
      <point x="176" y="64"/>
      <point x="287" y="31"/>
      <point x="287" y="-75" type="curve" smooth="yes"/>
      <point x="287" y="-170"/>
      <point x="226" y="-196"/>
      <point x="131" y="-196" type="curve" smooth="yes"/>
      <point x="0" y="-196" type="line"/>
      <point x="0" y="-221" type="line"/>
      <point x="141" y="-221" type="line" smooth="yes"/>
      <point x="250" y="-221"/>
      <point x="349" y="-186"/>
      <point x="349" y="-76" type="curve" smooth="yes"/>
      <point x="349" y="32"/>
      <point x="220" y="74"/>
      <point x="220" y="159" type="curve" smooth="yes"/>
      <point x="220" y="220"/>
      <point x="307" y="246"/>
    </contour>
  </outline>
</glyph>
<glyph name="asciitilde" format="2">
  <advance width="926"/>
  <unicode hex="007E"/>
  <outline>
    <contour>
      <point x="238" y="301" type="curve" smooth="yes"/>
      <point x="384" y="301"/>
      <point x="568" y="185"/>
      <point x="692" y="185" type="curve" smooth="yes"/>
      <point x="793" y="185"/>
      <point x="846" y="237"/>
      <point x="846" y="336" type="curve"/>
      <point x="821" y="336" type="line"/>
      <point x="821" y="256"/>
      <point x="778" y="215"/>
      <point x="700" y="215" type="curve" smooth="yes"/>
      <point x="575" y="215"/>
      <point x="377" y="331"/>
      <point x="246" y="331" type="curve" smooth="yes"/>
      <point x="140" y="331"/>
      <point x="85" y="279"/>
      <point x="85" y="180" type="curve"/>
      <point x="110" y="180" type="line"/>
      <point x="110" y="260"/>
      <point x="155" y="301"/>
    </contour>
  </outline>
</glyph>
<glyph name="cent" format="2">
  <advance width="876"/>
  <unicode hex="00A2"/>
  <outline>
    <contour>
      <point x="474" y="-15" type="curve" smooth="yes"/>
      <point x="684" y="-15"/>
      <point x="778" y="31"/>
      <point x="833" y="127" type="curve"/>
      <point x="813" y="143" type="line"/>
      <point x="765" y="46"/>
      <point x="653" y="10"/>
      <point x="506" y="10" type="curve" smooth="yes"/>
      <point x="277" y="10"/>
      <point x="161" y="134"/>
      <point x="161" y="256" type="curve" smooth="yes"/>
      <point x="161" y="374"/>
      <point x="269" y="490"/>
      <point x="485" y="490" type="curve" smooth="yes"/>
      <point x="613" y="490"/>
      <point x="733" y="428"/>
      <point x="801" y="302" type="curve"/>
      <point x="811" y="302" type="line"/>
      <point x="759" y="467" type="line"/>
      <point x="699" y="496"/>
      <point x="607" y="515"/>
      <point x="481" y="515" type="curve" smooth="yes"/>
      <point x="196" y="515"/>
      <point x="49" y="379"/>
      <point x="49" y="247" type="curve" smooth="yes"/>
      <point x="49" y="116"/>
      <point x="195" y="-15"/>
    </contour>
    <contour>
      <point x="661" y="590" type="line"/>
      <point x="197" y="-90" type="line"/>
      <point x="227" y="-90" type="line"/>
      <point x="691" y="590" type="line"/>
    </contour>
  </outline>
</glyph>
<glyph name="sterling" format="2">
  <advance width="1200"/>
  <unicode hex="00A3"/>
  <outline>
    <contour>
      <point x="112" y="0" type="line"/>
      <point x="508" y="98"/>
      <point x="588" y="156"/>
      <point x="588" y="255" type="curve" smooth="yes"/>
      <point x="588" y="415"/>
      <point x="273" y="421"/>
      <point x="273" y="549" type="curve" smooth="yes"/>
      <point x="273" y="655"/>
      <point x="462" y="690"/>
      <point x="588" y="690" type="curve" smooth="yes"/>
      <point x="740" y="690"/>
      <point x="894" y="619"/>
      <point x="986" y="470" type="curve"/>
      <point x="996" y="470" type="line"/>
      <point x="954" y="637" type="line"/>
      <point x="892" y="679"/>
      <point x="766" y="715"/>
      <point x="566" y="715" type="curve" smooth="yes"/>
      <point x="348" y="715"/>
      <point x="168" y="625"/>
      <point x="168" y="536" type="curve" smooth="yes"/>
      <point x="168" y="377"/>
      <point x="529" y="348"/>
      <point x="523" y="223" type="curve" smooth="yes"/>
      <point x="520" y="155"/>
      <point x="366" y="84"/>
      <point x="112" y="25" type="curve"/>
    </contour>
    <contour>
      <point x="112" y="0" type="line"/>
      <point x="1110" y="0" type="line"/>
      <point x="1110" y="132" type="line"/>
      <point x="1100" y="132" type="line"/>
      <point x="1100" y="92"/>
      <point x="1081" y="80"/>
      <point x="1034" y="80" type="curve"/>
      <point x="338" y="80" type="line"/>
    </contour>
    <contour>
      <point x="112" y="260" type="line"/>
      <point x="1038" y="260" type="line"/>
      <point x="1038" y="280" type="line"/>
      <point x="112" y="279" type="line"/>
    </contour>
    <contour>
      <point x="112" y="394" type="line"/>
      <point x="1038" y="394" type="line"/>
      <point x="1038" y="414" type="line"/>
      <point x="112" y="414" type="line"/>
    </contour>
  </outline>
</glyph>
<glyph name="currency" format="2">
  <advance width="660"/>
  <unicode hex="00A4"/>
  <outline>
    <contour>
      <point x="335" y="230" type="curve" smooth="yes"/>
      <point x="472" y="230"/>
      <point x="584" y="297"/>
      <point x="584" y="395" type="curve" smooth="yes"/>
      <point x="584" y="491"/>
      <point x="472" y="559"/>
      <point x="335" y="559" type="curve" smooth="yes"/>
      <point x="199" y="559"/>
      <point x="88" y="491"/>
      <point x="88" y="395" type="curve" smooth="yes"/>
      <point x="88" y="297"/>
      <point x="199" y="230"/>
    </contour>
    <contour>
      <point x="335" y="259" type="curve" smooth="yes"/>
      <point x="223" y="259"/>
      <point x="120" y="315"/>
      <point x="120" y="395" type="curve" smooth="yes"/>
      <point x="120" y="474"/>
      <point x="223" y="530"/>
      <point x="335" y="530" type="curve" smooth="yes"/>
      <point x="446" y="530"/>
      <point x="552" y="474"/>
      <point x="552" y="395" type="curve" smooth="yes"/>
      <point x="552" y="315"/>
      <point x="446" y="259"/>
    </contour>
    <contour>
      <point x="99" y="558" type="line"/>
      <point x="77" y="539" type="line"/>
      <point x="134" y="483" type="line"/>
      <point x="155" y="501" type="line"/>
    </contour>
    <contour>
      <point x="573" y="558" type="line"/>
      <point x="517" y="501" type="line"/>
      <point x="537" y="483" type="line"/>
      <point x="594" y="539" type="line"/>
    </contour>
    <contour>
      <point x="99" y="231" type="line"/>
      <point x="155" y="288" type="line"/>
      <point x="135" y="307" type="line"/>
      <point x="78" y="251" type="line"/>
    </contour>
    <contour>
      <point x="573" y="231" type="line"/>
      <point x="593" y="251" type="line"/>
      <point x="536" y="307" type="line"/>
      <point x="517" y="288" type="line"/>
    </contour>
  </outline>
</glyph>
<glyph name="yen" format="2">
  <advance width="1276"/>
  <unicode hex="00A5"/>
  <outline>
    <contour>
      <point x="446" y="0" type="line"/>
      <point x="923" y="0" type="line"/>
      <point x="923" y="10" type="line"/>
      <point x="839" y="17"/>
      <point x="733" y="38"/>
      <point x="733" y="124" type="curve" smooth="yes"/>
      <point x="733" y="336" type="line"/>
      <point x="941" y="583" type="line" smooth="yes"/>
      <point x="1023" y="680"/>
      <point x="1141" y="682"/>
      <point x="1222" y="690" type="curve"/>
      <point x="1222" y="700" type="line"/>
      <point x="844" y="700" type="line"/>
      <point x="844" y="690" type="line"/>
      <point x="926" y="683"/>
      <point x="977" y="672"/>
      <point x="902" y="582" type="curve" smooth="yes"/>
      <point x="722" y="366" type="line"/>
      <point x="482" y="583" type="line" smooth="yes"/>
      <point x="398" y="659"/>
      <point x="467" y="682"/>
      <point x="551" y="690" type="curve"/>
      <point x="551" y="700" type="line"/>
      <point x="67" y="700" type="line"/>
      <point x="67" y="690" type="line"/>
      <point x="147" y="683"/>
      <point x="246" y="666"/>
      <point x="336" y="585" type="curve" smooth="yes"/>
      <point x="636" y="315" type="line"/>
      <point x="636" y="124" type="line" smooth="yes"/>
      <point x="636" y="37"/>
      <point x="530" y="17"/>
      <point x="446" y="10" type="curve"/>
    </contour>
    <contour>
      <point x="297" y="146" type="line"/>
      <point x="980" y="146" type="line"/>
      <point x="980" y="171" type="line"/>
      <point x="297" y="170" type="line"/>
    </contour>
    <contour>
      <point x="297" y="313" type="line"/>
      <point x="980" y="313" type="line"/>
      <point x="980" y="338" type="line"/>
      <point x="297" y="338" type="line"/>
    </contour>
  </outline>
</glyph>
<glyph name="section" format="2">
  <advance width="915"/>
  <unicode hex="00A7"/>
  <outline>
    <contour>
      <point x="88" y="549" type="curve" smooth="yes"/>
      <point x="89" y="498"/>
      <point x="134" y="463"/>
      <point x="201" y="436" type="curve"/>
      <point x="105" y="399"/>
      <point x="49" y="335"/>
      <point x="50" y="279" type="curve" smooth="yes"/>
      <point x="52" y="80"/>
      <point x="748" y="91"/>
      <point x="748" y="-64" type="curve" smooth="yes"/>
      <point x="748" y="-143"/>
      <point x="609" y="-189"/>
      <point x="461" y="-189" type="curve" smooth="yes"/>
      <point x="311" y="-189"/>
      <point x="167" y="-157"/>
      <point x="82" y="69" type="curve"/>
      <point x="72" y="69" type="line"/>
      <point x="106" y="-140" type="line"/>
      <point x="190" y="-182"/>
      <point x="314" y="-214"/>
      <point x="436" y="-214" type="curve" smooth="yes"/>
      <point x="652" y="-214"/>
      <point x="838" y="-152"/>
      <point x="838" y="-34" type="curve" smooth="yes"/>
      <point x="838" y="25"/>
      <point x="782" y="66"/>
      <point x="703" y="98" type="curve"/>
      <point x="813" y="140"/>
      <point x="876" y="199"/>
      <point x="876" y="266" type="curve" smooth="yes"/>
      <point x="876" y="474"/>
      <point x="182" y="429"/>
      <point x="182" y="577" type="curve" smooth="yes"/>
      <point x="182" y="656"/>
      <point x="331" y="690"/>
      <point x="404" y="690" type="curve" smooth="yes"/>
      <point x="529" y="690"/>
      <point x="698" y="656"/>
      <point x="782" y="502" type="curve"/>
      <point x="792" y="502" type="line"/>
      <point x="739" y="668" type="line"/>
      <point x="665" y="697"/>
      <point x="560" y="715"/>
      <point x="434" y="715" type="curve" smooth="yes"/>
      <point x="249" y="715"/>
      <point x="87" y="645"/>
    </contour>
    <contour>
      <point x="144" y="307" type="curve" smooth="yes"/>
      <point x="144" y="346"/>
      <point x="172" y="394"/>
      <point x="246" y="420" type="curve"/>
      <point x="452" y="354"/>
      <point x="786" y="339"/>
      <point x="786" y="236" type="curve" smooth="yes"/>
      <point x="786" y="194"/>
      <point x="742" y="148"/>
      <point x="658" y="114" type="curve"/>
      <point x="452" y="182"/>
      <point x="144" y="208"/>
    </contour>
  </outline>
</glyph>
<glyph name="copyright" format="2">
  <advance width="1070"/>
  <unicode hex="00A9"/>
  <outline>
    <contour>
      <point x="536" y="-13" type="curve" smooth="yes"/>
      <point x="814" y="-13"/>
      <point x="1040" y="150"/>
      <point x="1040" y="352" type="curve" smooth="yes"/>
      <point x="1040" y="553"/>
      <point x="814" y="716"/>
      <point x="536" y="716" type="curve" smooth="yes"/>
      <point x="256" y="716"/>
      <point x="30" y="553"/>
      <point x="30" y="352" type="curve" smooth="yes"/>
      <point x="30" y="150"/>
      <point x="256" y="-13"/>
    </contour>
    <contour>
      <point x="536" y="14" type="curve" smooth="yes"/>
      <point x="279" y="14"/>
      <point x="61" y="166"/>
      <point x="61" y="352" type="curve" smooth="yes"/>
      <point x="61" y="537"/>
      <point x="279" y="689"/>
      <point x="536" y="689" type="curve" smooth="yes"/>
      <point x="793" y="689"/>
      <point x="1009" y="537"/>
      <point x="1009" y="352" type="curve" smooth="yes"/>
      <point x="1009" y="166"/>
      <point x="793" y="14"/>
    </contour>
    <contour>
      <point x="554" y="111" type="curve" smooth="yes"/>
      <point x="745" y="111"/>
      <point x="830" y="153"/>
      <point x="880" y="240" type="curve"/>
      <point x="862" y="255" type="line"/>
      <point x="819" y="167"/>
      <point x="717" y="134"/>
      <point x="583" y="134" type="curve" smooth="yes"/>
      <point x="375" y="134"/>
      <point x="269" y="247"/>
      <point x="269" y="357" type="curve" smooth="yes"/>
      <point x="269" y="465"/>
      <point x="368" y="570"/>
      <point x="564" y="570" type="curve" smooth="yes"/>
      <point x="680" y="570"/>
      <point x="789" y="514"/>
      <point x="851" y="399" type="curve"/>
      <point x="860" y="399" type="line"/>
      <point x="813" y="549" type="line"/>
      <point x="759" y="576"/>
      <point x="675" y="593"/>
      <point x="560" y="593" type="curve" smooth="yes"/>
      <point x="301" y="593"/>
      <point x="168" y="469"/>
      <point x="168" y="349" type="curve" smooth="yes"/>
      <point x="168" y="230"/>
      <point x="300" y="111"/>
    </contour>
  </outline>
</glyph>
<glyph name="guillemetleft" format="2">
  <advance width="457"/>
  <unicode hex="00AB"/>
  <outline>
    <contour>
      <point x="252" y="526" type="line"/>
      <point x="49" y="261" type="line"/>
      <point x="252" y="-4" type="line"/>
      <point x="268" y="4" type="line"/>
      <point x="119" y="261" type="line"/>
      <point x="268" y="517" type="line"/>
    </contour>
    <contour>
      <point x="375" y="481" type="line"/>
      <point x="214" y="261" type="line"/>
      <point x="375" y="41" type="line"/>
      <point x="390" y="49" type="line"/>
      <point x="279" y="261" type="line"/>
      <point x="390" y="472" type="line"/>
    </contour>
  </outline>
</glyph>
<glyph name="logicalnot" format="2">
  <advance width="968"/>
  <unicode hex="00AC"/>
  <outline>
    <contour>
      <point x="80" y="276" type="line"/>
      <point x="80" y="246" type="line"/>
      <point x="863" y="246" type="line"/>
      <point x="863" y="0" type="line"/>
      <point x="888" y="0" type="line"/>
      <point x="888" y="276" type="line"/>
    </contour>
  </outline>
</glyph>
<glyph name="registered" format="2">
  <advance width="1150"/>
  <unicode hex="00AE"/>
  <outline>
    <contour>
      <point x="576" y="-13" type="curve" smooth="yes"/>
      <point x="874" y="-13"/>
      <point x="1100" y="150"/>
      <point x="1100" y="352" type="curve" smooth="yes"/>
      <point x="1100" y="553"/>
      <point x="874" y="716"/>
      <point x="576" y="716" type="curve" smooth="yes"/>
      <point x="276" y="716"/>
      <point x="50" y="553"/>
      <point x="50" y="352" type="curve" smooth="yes"/>
      <point x="50" y="150"/>
      <point x="276" y="-13"/>
    </contour>
    <contour>
      <point x="576" y="14" type="curve" smooth="yes"/>
      <point x="299" y="14"/>
      <point x="81" y="166"/>
      <point x="81" y="352" type="curve" smooth="yes"/>
      <point x="81" y="537"/>
      <point x="299" y="689"/>
      <point x="576" y="689" type="curve" smooth="yes"/>
      <point x="853" y="689"/>
      <point x="1069" y="537"/>
      <point x="1069" y="352" type="curve" smooth="yes"/>
      <point x="1069" y="166"/>
      <point x="853" y="14"/>
    </contour>
    <contour>
      <point x="866" y="182" type="curve" smooth="yes"/>
      <point x="820" y="285"/>
      <point x="905" y="391"/>
      <point x="745" y="403" type="curve"/>
      <point x="835" y="411"/>
      <point x="863" y="458"/>
      <point x="863" y="491" type="curve" smooth="yes"/>
      <point x="863" y="539"/>
      <point x="820" y="588"/>
      <point x="717" y="588" type="curve" smooth="yes"/>
      <point x="246" y="588" type="line"/>
      <point x="246" y="581" type="line"/>
      <point x="281" y="577"/>
      <point x="353" y="563"/>
      <point x="353" y="505" type="curve" smooth="yes"/>
      <point x="353" y="204" type="line" smooth="yes"/>
      <point x="353" y="146"/>
      <point x="282" y="133"/>
      <point x="246" y="128" type="curve"/>
      <point x="246" y="121" type="line"/>
      <point x="546" y="121" type="line"/>
      <point x="546" y="128" type="line"/>
      <point x="490" y="133"/>
      <point x="419" y="146"/>
      <point x="419" y="204" type="curve" smooth="yes"/>
      <point x="419" y="390" type="line"/>
      <point x="687" y="390" type="line" smooth="yes"/>
      <point x="831" y="390"/>
      <point x="761" y="265"/>
      <point x="799" y="176" type="curve" smooth="yes"/>
      <point x="818" y="132"/>
      <point x="858" y="119"/>
      <point x="915" y="119" type="curve" smooth="yes"/>
      <point x="921" y="119" type="line"/>
      <point x="921" y="126" type="line"/>
      <point x="902" y="126"/>
      <point x="886" y="137"/>
    </contour>
    <contour>
      <point x="686" y="412" type="curve" smooth="yes"/>
      <point x="419" y="412" type="line"/>
      <point x="419" y="566" type="line"/>
      <point x="686" y="566" type="line" smooth="yes"/>
      <point x="763" y="566"/>
      <point x="790" y="528"/>
      <point x="790" y="491" type="curve" smooth="yes"/>
      <point x="790" y="453"/>
      <point x="763" y="412"/>
    </contour>
  </outline>
</glyph>
<glyph name="degree" format="2">
  <advance width="358"/>
  <unicode hex="00B0"/>
  <outline>
    <contour>
      <point x="180" y="542" type="curve" smooth="yes"/>
      <point x="264" y="542"/>
      <point x="334" y="580"/>
      <point x="334" y="644" type="curve" smooth="yes"/>
      <point x="334" y="708"/>
      <point x="264" y="746"/>
      <point x="180" y="746" type="curve" smooth="yes"/>
      <point x="95" y="746"/>
      <point x="25" y="708"/>
      <point x="25" y="644" type="curve" smooth="yes"/>
      <point x="25" y="580"/>
      <point x="95" y="542"/>
    </contour>
    <contour>
      <point x="180" y="567" type="curve" smooth="yes"/>
      <point x="112" y="567"/>
      <point x="52" y="593"/>
      <point x="52" y="644" type="curve" smooth="yes"/>
      <point x="52" y="695"/>
      <point x="112" y="721"/>
      <point x="180" y="721" type="curve" smooth="yes"/>
      <point x="247" y="721"/>
      <point x="307" y="695"/>
      <point x="307" y="644" type="curve" smooth="yes"/>
      <point x="307" y="593"/>
      <point x="247" y="567"/>
    </contour>
  </outline>
</glyph>
<glyph name="plusminus" format="2">
  <advance width="1033"/>
  <unicode hex="00B1"/>
  <outline>
    <contour>
      <point x="110" y="296" type="line"/>
      <point x="110" y="266" type="line"/>
      <point x="923" y="266" type="line"/>
      <point x="923" y="296" type="line"/>
    </contour>
    <contour>
      <point x="504" y="80" type="line"/>
      <point x="529" y="80" type="line"/>
      <point x="529" y="492" type="line"/>
      <point x="504" y="492" type="line"/>
    </contour>
    <contour>
      <point x="110" y="30" type="line"/>
      <point x="110" y="0" type="line"/>
      <point x="923" y="0" type="line"/>
      <point x="923" y="30" type="line"/>
    </contour>
  </outline>
</glyph>
<glyph name="paragraph" format="2">
  <advance width="913"/>
  <unicode hex="00B6"/>
  <outline>
    <contour>
      <point x="645" y="700" type="line"/>
      <point x="645" y="-105" type="line"/>
      <point x="673" y="-105" type="line"/>
      <point x="673" y="700" type="line"/>
    </contour>
    <contour>
      <point x="415" y="700" type="line"/>
      <point x="415" y="-105" type="line"/>
      <point x="443" y="-105" type="line"/>
      <point x="443" y="700" type="line"/>
    </contour>
    <contour>
      <point x="362" y="672" type="line"/>
      <point x="647" y="672" type="line"/>
      <point x="647" y="700" type="line"/>
      <point x="362" y="700" type="line"/>
    </contour>
    <contour>
      <point x="420" y="369" type="curve"/>
      <point x="420" y="700" type="line"/>
      <point x="420" y="700"/>
      <point x="342" y="700"/>
      <point x="340" y="700" type="curve" smooth="yes"/>
      <point x="180" y="700"/>
      <point x="85" y="648"/>
      <point x="85" y="535" type="curve" smooth="yes"/>
      <point x="85" y="421"/>
      <point x="180" y="369"/>
      <point x="340" y="369" type="curve" smooth="yes"/>
      <point x="342" y="369"/>
      <point x="420" y="369"/>
    </contour>
    <contour>
      <point x="673" y="576" type="line"/>
      <point x="673" y="663"/>
      <point x="779" y="683"/>
      <point x="863" y="690" type="curve"/>
      <point x="863" y="700" type="line"/>
      <point x="673" y="700" type="line"/>
    </contour>
  </outline>
</glyph>
<glyph name="guillemetright" format="2">
  <advance width="457"/>
  <unicode hex="00BB"/>
  <outline>
    <contour>
      <point x="205" y="526" type="line"/>
      <point x="189" y="517" type="line"/>
      <point x="338" y="261" type="line"/>
      <point x="189" y="4" type="line"/>
      <point x="205" y="-4" type="line"/>
      <point x="408" y="261" type="line"/>
    </contour>
    <contour>
      <point x="82" y="481" type="line"/>
      <point x="67" y="472" type="line"/>
      <point x="178" y="261" type="line"/>
      <point x="67" y="49" type="line"/>
      <point x="82" y="41" type="line"/>
      <point x="243" y="261" type="line"/>
    </contour>
  </outline>
</glyph>
<glyph name="onequarter" format="2">
  <advance width="1013"/>
  <unicode hex="00BC"/>
  <outline>
    <contour>
      <point x="264" y="412" type="curve" smooth="yes"/>
      <point x="264" y="700" type="line"/>
      <point x="204" y="700" type="line"/>
      <point x="165" y="657"/>
      <point x="88" y="633"/>
      <point x="46" y="633" type="curve"/>
      <point x="46" y="618" type="line"/>
      <point x="88" y="618"/>
      <point x="143" y="628"/>
      <point x="178" y="651" type="curve"/>
      <point x="178" y="412" type="line" smooth="yes"/>
      <point x="178" y="365"/>
      <point x="123" y="361"/>
      <point x="78" y="358" type="curve"/>
      <point x="78" y="350" type="line"/>
      <point x="364" y="350" type="line"/>
      <point x="364" y="358" type="line"/>
      <point x="321" y="362"/>
      <point x="264" y="364"/>
    </contour>
    <contour>
      <point x="879" y="62" type="curve" smooth="yes"/>
      <point x="879" y="136" type="line"/>
      <point x="949" y="136" type="line"/>
      <point x="949" y="214" type="line"/>
      <point x="941" y="214" type="line"/>
      <point x="941" y="194"/>
      <point x="931" y="186"/>
      <point x="908" y="186" type="curve" smooth="yes"/>
      <point x="879" y="186" type="line"/>
      <point x="879" y="350" type="line"/>
      <point x="793" y="350" type="line"/>
      <point x="516" y="186" type="line"/>
      <point x="516" y="136" type="line"/>
      <point x="793" y="136" type="line"/>
      <point x="793" y="62" type="line" smooth="yes"/>
      <point x="793" y="16"/>
      <point x="744" y="11"/>
      <point x="702" y="8" type="curve"/>
      <point x="702" y="0" type="line"/>
      <point x="970" y="0" type="line"/>
      <point x="970" y="8" type="line"/>
      <point x="930" y="12"/>
      <point x="879" y="16"/>
    </contour>
    <contour>
      <point x="546" y="186" type="line"/>
      <point x="793" y="333" type="line"/>
      <point x="793" y="186" type="line"/>
    </contour>
    <component base="fraction" xOffset="198"/>
  </outline>
</glyph>
<glyph name="onehalf" format="2">
  <advance width="1097"/>
  <unicode hex="00BD"/>
  <outline>
    <contour>
      <point x="264" y="412" type="curve" smooth="yes"/>
      <point x="264" y="700" type="line"/>
      <point x="204" y="700" type="line"/>
      <point x="165" y="657"/>
      <point x="88" y="633"/>
      <point x="46" y="633" type="curve"/>
      <point x="46" y="618" type="line"/>
      <point x="88" y="618"/>
      <point x="143" y="628"/>
      <point x="178" y="651" type="curve"/>
      <point x="178" y="412" type="line" smooth="yes"/>
      <point x="178" y="365"/>
      <point x="123" y="361"/>
      <point x="78" y="358" type="curve"/>
      <point x="78" y="350" type="line"/>
      <point x="364" y="350" type="line"/>
      <point x="364" y="358" type="line"/>
      <point x="321" y="362"/>
      <point x="264" y="364"/>
    </contour>
    <contour>
      <point x="904" y="-16" type="curve" smooth="yes"/>
      <point x="988" y="-14"/>
      <point x="1023" y="23"/>
      <point x="1023" y="97" type="curve"/>
      <point x="1008" y="97" type="line"/>
      <point x="1008" y="60"/>
      <point x="993" y="48"/>
      <point x="954" y="48" type="curve" smooth="yes"/>
      <point x="892" y="48"/>
      <point x="777" y="96"/>
      <point x="738" y="93" type="curve"/>
      <point x="822" y="138"/>
      <point x="1035" y="148"/>
      <point x="1035" y="243" type="curve" smooth="yes"/>
      <point x="1035" y="302"/>
      <point x="935" y="350"/>
      <point x="805" y="350" type="curve" smooth="yes"/>
      <point x="735" y="350"/>
      <point x="656" y="336"/>
      <point x="606" y="311" type="curve"/>
      <point x="592" y="227" type="line"/>
      <point x="603" y="227" type="line"/>
      <point x="639" y="296"/>
      <point x="719" y="335"/>
      <point x="793" y="335" type="curve" smooth="yes"/>
      <point x="867" y="335"/>
      <point x="943" y="301"/>
      <point x="943" y="246" type="curve" smooth="yes"/>
      <point x="943" y="156"/>
      <point x="794" y="158"/>
      <point x="663" y="68" type="curve" smooth="yes"/>
      <point x="627" y="43"/>
      <point x="597" y="14"/>
      <point x="590" y="-8" type="curve"/>
      <point x="605" y="-8" type="line"/>
      <point x="615" y="8"/>
      <point x="625" y="20"/>
      <point x="637" y="28" type="curve" smooth="yes"/>
      <point x="646" y="34"/>
      <point x="656" y="37"/>
      <point x="668" y="37" type="curve" smooth="yes"/>
      <point x="735" y="35"/>
      <point x="819" y="-18"/>
    </contour>
    <component base="fraction" xOffset="198"/>
  </outline>
</glyph>
<glyph name="threequarters" format="2">
  <advance width="1166"/>
  <unicode hex="00BE"/>
  <outline>
    <contour>
      <point x="276" y="351" type="curve" smooth="yes"/>
      <point x="441" y="351"/>
      <point x="534" y="388"/>
      <point x="534" y="457" type="curve" smooth="yes"/>
      <point x="534" y="501"/>
      <point x="479" y="540"/>
      <point x="372" y="558" type="curve"/>
      <point x="460" y="568"/>
      <point x="525" y="588"/>
      <point x="525" y="634" type="curve" smooth="yes"/>
      <point x="525" y="680"/>
      <point x="432" y="716"/>
      <point x="307" y="716" type="curve" smooth="yes"/>
      <point x="246" y="716"/>
      <point x="167" y="703"/>
      <point x="106" y="677" type="curve"/>
      <point x="93" y="593" type="line"/>
      <point x="102" y="593" type="line"/>
      <point x="132" y="658"/>
      <point x="218" y="701"/>
      <point x="299" y="701" type="curve" smooth="yes"/>
      <point x="369" y="701"/>
      <point x="433" y="671"/>
      <point x="433" y="634" type="curve" smooth="yes"/>
      <point x="433" y="597"/>
      <point x="371" y="566"/>
      <point x="275" y="566" type="curve" smooth="yes"/>
      <point x="215" y="566" type="line"/>
      <point x="203" y="551" type="line"/>
      <point x="275" y="551" type="line" smooth="yes"/>
      <point x="362" y="551"/>
      <point x="443" y="506"/>
      <point x="443" y="456" type="curve" smooth="yes"/>
      <point x="443" y="402"/>
      <point x="372" y="367"/>
      <point x="282" y="365" type="curve" smooth="yes"/>
      <point x="178" y="363"/>
      <point x="98" y="405"/>
      <point x="64" y="473" type="curve"/>
      <point x="55" y="473" type="line"/>
      <point x="68" y="390" type="line"/>
      <point x="126" y="365"/>
      <point x="205" y="351"/>
    </contour>
    <contour>
      <point x="1032" y="62" type="curve" smooth="yes"/>
      <point x="1032" y="136" type="line"/>
      <point x="1102" y="136" type="line"/>
      <point x="1102" y="214" type="line"/>
      <point x="1094" y="214" type="line"/>
      <point x="1094" y="194"/>
      <point x="1084" y="186"/>
      <point x="1061" y="186" type="curve" smooth="yes"/>
      <point x="1032" y="186" type="line"/>
      <point x="1032" y="350" type="line"/>
      <point x="946" y="350" type="line"/>
      <point x="669" y="186" type="line"/>
      <point x="669" y="136" type="line"/>
      <point x="946" y="136" type="line"/>
      <point x="946" y="62" type="line" smooth="yes"/>
      <point x="946" y="16"/>
      <point x="897" y="11"/>
      <point x="855" y="8" type="curve"/>
      <point x="855" y="0" type="line"/>
      <point x="1123" y="0" type="line"/>
      <point x="1123" y="8" type="line"/>
      <point x="1083" y="12"/>
      <point x="1032" y="16"/>
    </contour>
    <contour>
      <point x="699" y="186" type="line"/>
      <point x="946" y="333" type="line"/>
      <point x="946" y="186" type="line"/>
    </contour>
    <component base="fraction" xOffset="327"/>
  </outline>
</glyph>
<glyph name="AE" format="2">
  <advance width="1579"/>
  <unicode hex="00C6"/>
  <anchor x="790" y="0" name="bottom"/>
  <anchor x="790" y="700" name="top"/>
  <outline>
    <contour>
      <point x="604" y="0" type="line"/>
      <point x="1476" y="0" type="line"/>
      <point x="1476" y="245" type="line"/>
      <point x="1466" y="245" type="line"/>
      <point x="1459" y="125"/>
      <point x="1400" y="25"/>
      <point x="1263" y="25" type="curve" smooth="yes"/>
      <point x="894" y="25" type="line"/>
      <point x="894" y="675" type="line"/>
      <point x="1263" y="675" type="line" smooth="yes"/>
      <point x="1400" y="675"/>
      <point x="1459" y="574"/>
      <point x="1466" y="455" type="curve"/>
      <point x="1476" y="455" type="line"/>
      <point x="1476" y="700" type="line"/>
      <point x="604" y="700" type="line"/>
      <point x="604" y="690" type="line"/>
      <point x="687" y="683"/>
      <point x="794" y="663"/>
      <point x="794" y="576" type="curve" smooth="yes"/>
      <point x="794" y="124" type="line" smooth="yes"/>
      <point x="794" y="37"/>
      <point x="688" y="17"/>
      <point x="604" y="10" type="curve"/>
    </contour>
    <contour>
      <point x="44" y="0" type="line"/>
      <point x="450" y="0" type="line"/>
      <point x="450" y="10" type="line"/>
      <point x="368" y="17"/>
      <point x="269" y="48"/>
      <point x="332" y="118" type="curve" smooth="yes"/>
      <point x="834" y="675" type="line"/>
      <point x="819" y="700" type="line"/>
      <point x="295" y="118" type="line" smooth="yes"/>
      <point x="227" y="43"/>
      <point x="127" y="17"/>
      <point x="44" y="10" type="curve"/>
    </contour>
    <contour>
      <point x="1342" y="204" type="curve"/>
      <point x="1352" y="207" type="line"/>
      <point x="1238" y="550" type="line"/>
      <point x="1228" y="547" type="line"/>
      <point x="1246" y="466"/>
      <point x="1224" y="430"/>
      <point x="1143" y="430" type="curve" smooth="yes"/>
      <point x="589" y="430" type="line"/>
      <point x="589" y="405" type="line"/>
      <point x="1143" y="405" type="line" smooth="yes"/>
      <point x="1218" y="405"/>
      <point x="1285" y="345"/>
    </contour>
  </outline>
</glyph>
<glyph name="Eth" format="2">
  <advance width="1189"/>
  <unicode hex="00D0"/>
  <outline>
    <contour>
      <point x="30" y="363" type="line"/>
      <point x="30" y="337" type="line"/>
      <point x="562" y="337" type="line"/>
      <point x="562" y="363" type="line"/>
    </contour>
    <component base="D"/>
  </outline>
</glyph>
<glyph name="multiply" format="2">
  <advance width="1058"/>
  <unicode hex="00D7"/>
  <outline>
    <contour>
      <point x="150" y="490" type="line"/>
      <point x="134" y="464" type="line"/>
      <point x="939" y="14" type="line"/>
      <point x="956" y="39" type="line"/>
    </contour>
    <contour>
      <point x="129" y="37" type="line"/>
      <point x="140" y="15" type="line"/>
      <point x="945" y="467" type="line"/>
      <point x="934" y="489" type="line"/>
    </contour>
  </outline>
</glyph>
<glyph name="Oslash" format="2">
  <advance width="1311"/>
  <unicode hex="00D8"/>
  <anchor x="656" y="0" name="bottom"/>
  <anchor x="656" y="700" name="top"/>
  <outline>
    <contour>
      <point x="1063" y="766" type="line"/>
      <point x="135" y="-58" type="line"/>
      <point x="177" y="-58" type="line"/>
      <point x="1103" y="764" type="line"/>
    </contour>
    <component base="O"/>
  </outline>
</glyph>
<glyph name="Thorn" format="2">
  <advance width="1108"/>
  <unicode hex="00DE"/>
  <anchor x="554" y="0" name="bottom"/>
  <anchor x="554" y="700" name="top"/>
  <outline>
    <contour>
      <point x="339" y="124" type="curve"/>
      <point x="339" y="576" type="line"/>
      <point x="339" y="663"/>
      <point x="445" y="683"/>
      <point x="529" y="690" type="curve"/>
      <point x="529" y="700" type="line"/>
      <point x="49" y="700" type="line"/>
      <point x="49" y="690" type="line"/>
      <point x="133" y="683"/>
      <point x="239" y="663"/>
      <point x="239" y="576" type="curve" smooth="yes"/>
      <point x="239" y="124" type="line" smooth="yes"/>
      <point x="239" y="37"/>
      <point x="133" y="18"/>
      <point x="49" y="10" type="curve"/>
      <point x="49" y="0" type="line"/>
      <point x="529" y="0" type="line"/>
      <point x="529" y="10" type="line"/>
      <point x="445" y="17"/>
      <point x="339" y="37"/>
    </contour>
    <contour>
      <point x="288" y="139" type="line"/>
      <point x="751" y="139" type="line" smooth="yes"/>
      <point x="967" y="139"/>
      <point x="1053" y="244"/>
      <point x="1053" y="356" type="curve" smooth="yes"/>
      <point x="1053" y="468"/>
      <point x="964" y="569"/>
      <point x="751" y="569" type="curve" smooth="yes"/>
      <point x="288" y="569" type="line"/>
      <point x="288" y="544" type="line"/>
      <point x="673" y="544" type="line" smooth="yes"/>
      <point x="867" y="544"/>
      <point x="943" y="468"/>
      <point x="943" y="354" type="curve" smooth="yes"/>
      <point x="943" y="240"/>
      <point x="867" y="164"/>
      <point x="673" y="164" type="curve" smooth="yes"/>
      <point x="288" y="164" type="line"/>
    </contour>
  </outline>
</glyph>
<glyph name="germandbls" format="2">
  <advance width="1181"/>
  <unicode hex="00DF"/>
  <outline>
    <contour>
      <point x="30" y="0" type="line"/>
      <point x="292" y="0" type="line"/>
      <point x="292" y="514" type="line"/>
      <point x="257" y="514"/>
      <point x="238" y="536"/>
      <point x="238" y="572" type="curve" smooth="yes"/>
      <point x="238" y="644"/>
      <point x="348" y="689"/>
      <point x="467" y="689" type="curve" smooth="yes"/>
      <point x="576" y="689"/>
      <point x="674" y="638"/>
      <point x="674" y="567" type="curve" smooth="yes"/>
      <point x="674" y="434"/>
      <point x="403" y="495"/>
      <point x="403" y="369" type="curve" smooth="yes"/>
      <point x="403" y="265"/>
      <point x="597" y="243"/>
      <point x="768" y="223" type="curve" smooth="yes"/>
      <point x="927" y="204"/>
      <point x="1061" y="194"/>
      <point x="1061" y="116" type="curve" smooth="yes"/>
      <point x="1061" y="37"/>
      <point x="952" y="11"/>
      <point x="804" y="11" type="curve" smooth="yes"/>
      <point x="604" y="11"/>
      <point x="430" y="53"/>
      <point x="345" y="289" type="curve"/>
      <point x="335" y="289" type="line"/>
      <point x="369" y="80" type="line"/>
      <point x="453" y="28"/>
      <point x="607" y="-14"/>
      <point x="779" y="-14" type="curve" smooth="yes"/>
      <point x="995" y="-14"/>
      <point x="1151" y="28"/>
      <point x="1151" y="146" type="curve" smooth="yes"/>
      <point x="1151" y="260"/>
      <point x="962" y="277"/>
      <point x="778" y="300" type="curve" smooth="yes"/>
      <point x="640" y="317"/>
      <point x="497" y="331"/>
      <point x="497" y="397" type="curve" smooth="yes"/>
      <point x="497" y="492"/>
      <point x="768" y="433"/>
      <point x="768" y="575" type="curve" smooth="yes"/>
      <point x="768" y="639"/>
      <point x="661" y="715"/>
      <point x="502" y="715" type="curve" smooth="yes"/>
      <point x="351" y="715"/>
      <point x="200" y="661"/>
      <point x="200" y="547" type="curve" smooth="yes"/>
      <point x="200" y="500" type="line"/>
      <point x="47" y="500" type="line"/>
      <point x="47" y="475" type="line"/>
      <point x="200" y="475" type="line"/>
      <point x="200" y="124" type="line" smooth="yes"/>
      <point x="200" y="37"/>
      <point x="114" y="17"/>
      <point x="30" y="10" type="curve"/>
    </contour>
  </outline>
</glyph>
<glyph name="ae" format="2">
  <advance width="1529"/>
  <unicode hex="00E6"/>
  <guideline x="1352" y="345" angle="0"/>
  <anchor x="765" y="0" name="bottom"/>
  <anchor x="765" y="500" name="top"/>
  <outline>
    <contour>
      <point x="332" y="-16" type="curve" smooth="yes"/>
      <point x="522" y="-16"/>
      <point x="642" y="40"/>
      <point x="727" y="123" type="curve"/>
      <point x="792" y="47"/>
      <point x="930" y="-11"/>
      <point x="1109" y="-11" type="curve" smooth="yes"/>
      <point x="1268" y="-11"/>
      <point x="1401" y="24"/>
      <point x="1484" y="151" type="curve"/>
      <point x="1464" y="164" type="line"/>
      <point x="1378" y="33"/>
      <point x="1246" y="14"/>
      <point x="1125" y="14" type="curve" smooth="yes"/>
      <point x="894" y="14"/>
      <point x="788" y="142"/>
      <point x="788" y="265" type="curve" smooth="yes"/>
      <point x="788" y="284"/>
      <point x="790" y="302"/>
      <point x="795" y="320" type="curve"/>
      <point x="1473" y="320" type="line"/>
      <point x="1473" y="405"/>
      <point x="1366" y="515"/>
      <point x="1084" y="515" type="curve" smooth="yes"/>
      <point x="923" y="515"/>
      <point x="809" y="471"/>
      <point x="743" y="409" type="curve"/>
      <point x="686" y="496"/>
      <point x="556" y="515"/>
      <point x="426" y="515" type="curve" smooth="yes"/>
      <point x="297" y="515"/>
      <point x="181" y="487"/>
      <point x="119" y="458" type="curve"/>
      <point x="75" y="282" type="line"/>
      <point x="85" y="282" type="line"/>
      <point x="139" y="419"/>
      <point x="257" y="490"/>
      <point x="429" y="490" type="curve" smooth="yes"/>
      <point x="551" y="490"/>
      <point x="620" y="419"/>
      <point x="649" y="345" type="curve"/>
      <point x="190" y="345"/>
      <point x="62" y="258"/>
      <point x="64" y="134" type="curve" smooth="yes"/>
      <point x="66" y="30"/>
      <point x="164" y="-16"/>
    </contour>
    <contour>
      <point x="375" y="10" type="curve" smooth="yes"/>
      <point x="242" y="10"/>
      <point x="175" y="53"/>
      <point x="175" y="141" type="curve" smooth="yes"/>
      <point x="175" y="273"/>
      <point x="267" y="320"/>
      <point x="661" y="320" type="curve"/>
      <point x="669" y="299"/>
      <point x="675" y="275"/>
      <point x="674" y="248" type="curve" smooth="yes"/>
      <point x="673" y="218" type="line" smooth="yes"/>
      <point x="668" y="74"/>
      <point x="487" y="10"/>
    </contour>
    <contour>
      <point x="804" y="345" type="line"/>
      <point x="837" y="426"/>
      <point x="927" y="490"/>
      <point x="1085" y="490" type="curve" smooth="yes"/>
      <point x="1235" y="490"/>
      <point x="1332" y="443"/>
      <point x="1352" y="345" type="curve"/>
    </contour>
  </outline>
</glyph>
<glyph name="eth" format="2">
  <advance width="1127"/>
  <unicode hex="00F0"/>
  <anchor x="296" y="0" name="bottom"/>
  <anchor x="296" y="700" name="top"/>
  <outline>
    <contour>
      <point x="70" y="246" type="curve" smooth="yes"/>
      <point x="70" y="78"/>
      <point x="297" y="-15"/>
      <point x="534" y="-15" type="curve" smooth="yes"/>
      <point x="790" y="-15"/>
      <point x="1057" y="94"/>
      <point x="1057" y="336" type="curve" smooth="yes"/>
      <point x="1057" y="575"/>
      <point x="828" y="715"/>
      <point x="505" y="715" type="curve" smooth="yes"/>
      <point x="369" y="715"/>
      <point x="223" y="690"/>
      <point x="109" y="637" type="curve"/>
      <point x="84" y="470" type="line"/>
      <point x="93" y="470" type="line"/>
      <point x="163" y="621"/>
      <point x="342" y="690"/>
      <point x="519" y="690" type="curve" smooth="yes"/>
      <point x="746" y="690"/>
      <point x="903" y="589"/>
      <point x="937" y="406" type="curve"/>
      <point x="852" y="472"/>
      <point x="713" y="515"/>
      <point x="549" y="515" type="curve" smooth="yes"/>
      <point x="272" y="515"/>
      <point x="70" y="392"/>
    </contour>
    <contour>
      <point x="937" y="267" type="curve" smooth="yes"/>
      <point x="937" y="113"/>
      <point x="718" y="10"/>
      <point x="542" y="10" type="curve" smooth="yes"/>
      <point x="338" y="10"/>
      <point x="185" y="116"/>
      <point x="185" y="246" type="curve" smooth="yes"/>
      <point x="185" y="388"/>
      <point x="347" y="490"/>
      <point x="561" y="490" type="curve" smooth="yes"/>
      <point x="775" y="490"/>
      <point x="937" y="407"/>
    </contour>
    <contour>
      <point x="400" y="591" type="line"/>
      <point x="408" y="568" type="line"/>
      <point x="939" y="703" type="line"/>
      <point x="932" y="725" type="line"/>
    </contour>
  </outline>
</glyph>
<glyph name="divide" format="2">
  <advance width="1013"/>
  <unicode hex="00F7"/>
  <outline>
    <contour>
      <point x="100" y="271" type="line"/>
      <point x="100" y="241" type="line"/>
      <point x="913" y="241" type="line"/>
      <point x="913" y="271" type="line"/>
    </contour>
    <contour>
      <point x="507" y="404" type="curve" smooth="yes"/>
      <point x="530" y="404"/>
      <point x="548" y="422"/>
      <point x="548" y="446" type="curve" smooth="yes"/>
      <point x="548" y="469"/>
      <point x="530" y="487"/>
      <point x="507" y="487" type="curve" smooth="yes"/>
      <point x="483" y="487"/>
      <point x="465" y="469"/>
      <point x="465" y="446" type="curve" smooth="yes"/>
      <point x="465" y="422"/>
      <point x="483" y="404"/>
    </contour>
    <contour>
      <point x="507" y="25" type="curve" smooth="yes"/>
      <point x="530" y="25"/>
      <point x="548" y="43"/>
      <point x="548" y="67" type="curve" smooth="yes"/>
      <point x="548" y="90"/>
      <point x="530" y="108"/>
      <point x="507" y="108" type="curve" smooth="yes"/>
      <point x="483" y="108"/>
      <point x="465" y="90"/>
      <point x="465" y="67" type="curve" smooth="yes"/>
      <point x="465" y="43"/>
      <point x="483" y="25"/>
    </contour>
  </outline>
</glyph>
<glyph name="oslash" format="2">
  <advance width="988"/>
  <unicode hex="00F8"/>
  <anchor x="494" y="500" name="top"/>
  <outline>
    <contour>
      <point x="829" y="558" type="line"/>
      <point x="135" y="-58" type="line"/>
      <point x="177" y="-58" type="line"/>
      <point x="869" y="556" type="line"/>
    </contour>
    <component base="o"/>
  </outline>
</glyph>
<glyph name="thorn" format="2">
  <advance width="1117"/>
  <unicode hex="00FE"/>
  <anchor x="559" y="0" name="bottom"/>
  <anchor x="559" y="500" name="top"/>
  <outline>
    <contour>
      <point x="30" y="-200" type="line"/>
      <point x="462" y="-200" type="line"/>
      <point x="462" y="-190" type="line"/>
      <point x="378" y="-183"/>
      <point x="292" y="-164"/>
      <point x="292" y="-76" type="curve" smooth="yes"/>
      <point x="292" y="119" type="line"/>
      <point x="369" y="36"/>
      <point x="515" y="-15"/>
      <point x="666" y="-15" type="curve" smooth="yes"/>
      <point x="885" y="-15"/>
      <point x="1069" y="104"/>
      <point x="1069" y="250" type="curve" smooth="yes"/>
      <point x="1069" y="396"/>
      <point x="885" y="515"/>
      <point x="666" y="515" type="curve" smooth="yes"/>
      <point x="513" y="515"/>
      <point x="369" y="464"/>
      <point x="292" y="381" type="curve"/>
      <point x="292" y="700" type="line"/>
      <point x="30" y="700" type="line"/>
      <point x="30" y="690" type="line"/>
      <point x="114" y="684"/>
      <point x="200" y="663"/>
      <point x="200" y="576" type="curve" smooth="yes"/>
      <point x="200" y="-76" type="line" smooth="yes"/>
      <point x="200" y="-162"/>
      <point x="116" y="-183"/>
      <point x="30" y="-190" type="curve"/>
    </contour>
    <contour>
      <point x="292" y="249" type="curve" smooth="yes"/>
      <point x="292" y="377"/>
      <point x="468" y="490"/>
      <point x="624" y="490" type="curve" smooth="yes"/>
      <point x="833" y="490"/>
      <point x="957" y="381"/>
      <point x="957" y="249" type="curve" smooth="yes"/>
      <point x="957" y="116"/>
      <point x="833" y="10"/>
      <point x="624" y="10" type="curve" smooth="yes"/>
      <point x="468" y="10"/>
      <point x="292" y="126"/>
    </contour>
  </outline>
</glyph>
<glyph name="dcroat" format="2">
  <advance width="1012"/>
  <unicode hex="0111"/>
  <outline>
    <contour>
      <point x="480" y="603" type="line"/>
      <point x="480" y="577" type="line"/>
      <point x="1012" y="577" type="line"/>
      <point x="1012" y="603" type="line"/>
    </contour>
    <component base="d"/>
  </outline>
</glyph>
<glyph name="idotless" format="2">
  <advance width="478"/>
  <unicode hex="0131"/>
  <anchor x="239" y="0" name="bottom"/>
  <anchor x="430" y="10" name="ogonek"/>
  <anchor x="239" y="500" name="top"/>
  <outline>
    <contour>
      <point x="30" y="0" type="line"/>
      <point x="462" y="0" type="line"/>
      <point x="462" y="10" type="line"/>
      <point x="378" y="17"/>
      <point x="292" y="37"/>
      <point x="292" y="124" type="curve" smooth="yes"/>
      <point x="292" y="500" type="line"/>
      <point x="30" y="500" type="line"/>
      <point x="30" y="490" type="line"/>
      <point x="114" y="483"/>
      <point x="200" y="463"/>
      <point x="200" y="376" type="curve" smooth="yes"/>
      <point x="200" y="124" type="line" smooth="yes"/>
      <point x="200" y="37"/>
      <point x="114" y="17"/>
      <point x="30" y="10" type="curve"/>
    </contour>
  </outline>
</glyph>
<glyph name="Lslash" format="2">
  <advance width="952"/>
  <unicode hex="0141"/>
  <outline>
    <contour>
      <point x="509" y="524" type="line"/>
      <point x="88" y="292" type="line"/>
      <point x="100" y="267" type="line"/>
      <point x="521" y="499" type="line"/>
    </contour>
    <component base="L"/>
  </outline>
</glyph>
<glyph name="lslash" format="2">
  <advance width="476"/>
  <unicode hex="0142"/>
  <outline>
    <contour>
      <point x="415" y="525" type="line"/>
      <point x="49" y="323" type="line"/>
      <point x="61" y="298" type="line"/>
      <point x="427" y="500" type="line"/>
    </contour>
    <component base="l"/>
  </outline>
</glyph>
<glyph name="OE" format="2">
  <advance width="1663"/>
  <unicode hex="0152"/>
  <anchor x="832" y="0" name="bottom"/>
  <anchor x="832" y="700" name="top"/>
  <outline>
    <contour>
      <point x="1347" y="675" type="line" smooth="yes"/>
      <point x="1484" y="675"/>
      <point x="1543" y="574"/>
      <point x="1550" y="455" type="curve"/>
      <point x="1560" y="455" type="line"/>
      <point x="1560" y="700" type="line"/>
      <point x="659" y="700" type="line" smooth="yes"/>
      <point x="292" y="700"/>
      <point x="68" y="546"/>
      <point x="68" y="345" type="curve" smooth="yes"/>
      <point x="68" y="143"/>
      <point x="292" y="0"/>
      <point x="659" y="0" type="curve" smooth="yes"/>
      <point x="1560" y="0" type="line"/>
      <point x="1560" y="245" type="line"/>
      <point x="1550" y="245" type="line"/>
      <point x="1543" y="125"/>
      <point x="1484" y="25"/>
      <point x="1347" y="25" type="curve" smooth="yes"/>
      <point x="978" y="25" type="line"/>
      <point x="978" y="475" type="line"/>
      <point x="1137" y="475" type="line" smooth="yes"/>
      <point x="1212" y="475"/>
      <point x="1279" y="415"/>
      <point x="1336" y="274" type="curve"/>
      <point x="1346" y="277" type="line"/>
      <point x="1232" y="620" type="line"/>
      <point x="1222" y="617" type="line"/>
      <point x="1240" y="536"/>
      <point x="1218" y="500"/>
      <point x="1137" y="500" type="curve" smooth="yes"/>
      <point x="978" y="500" type="line"/>
      <point x="978" y="675" type="line"/>
    </contour>
    <contour>
      <point x="878" y="124" type="line" smooth="yes"/>
      <point x="878" y="37"/>
      <point x="859" y="26"/>
      <point x="792" y="25" type="curve" smooth="yes"/>
      <point x="659" y="24" type="line" smooth="yes"/>
      <point x="331" y="24"/>
      <point x="188" y="150"/>
      <point x="188" y="345" type="curve" smooth="yes"/>
      <point x="188" y="549"/>
      <point x="331" y="675"/>
      <point x="659" y="675" type="curve" smooth="yes"/>
      <point x="792" y="674" type="line" smooth="yes"/>
      <point x="859" y="674"/>
      <point x="878" y="663"/>
      <point x="878" y="576" type="curve" smooth="yes"/>
    </contour>
  </outline>
</glyph>
<glyph name="oe" format="2">
  <advance width="1671"/>
  <unicode hex="0153"/>
  <anchor x="836" y="0" name="bottom"/>
  <anchor x="836" y="500" name="top"/>
  <outline>
    <contour>
      <point x="489" y="-15" type="curve" smooth="yes"/>
      <point x="661" y="-15"/>
      <point x="802" y="37"/>
      <point x="875" y="116" type="curve"/>
      <point x="943" y="43"/>
      <point x="1068" y="-11"/>
      <point x="1251" y="-11" type="curve" smooth="yes"/>
      <point x="1410" y="-11"/>
      <point x="1543" y="24"/>
      <point x="1626" y="151" type="curve"/>
      <point x="1606" y="164" type="line"/>
      <point x="1520" y="33"/>
      <point x="1388" y="14"/>
      <point x="1267" y="14" type="curve" smooth="yes"/>
      <point x="1036" y="14"/>
      <point x="930" y="142"/>
      <point x="930" y="265" type="curve" smooth="yes"/>
      <point x="930" y="284"/>
      <point x="932" y="302"/>
      <point x="937" y="320" type="curve"/>
      <point x="1615" y="320" type="line"/>
      <point x="1615" y="405"/>
      <point x="1508" y="515"/>
      <point x="1226" y="515" type="curve" smooth="yes"/>
      <point x="1048" y="515"/>
      <point x="928" y="461"/>
      <point x="865" y="388" type="curve"/>
      <point x="790" y="464"/>
      <point x="654" y="515"/>
      <point x="489" y="515" type="curve" smooth="yes"/>
      <point x="234" y="515"/>
      <point x="48" y="392"/>
      <point x="48" y="246" type="curve" smooth="yes"/>
      <point x="48" y="100"/>
      <point x="234" y="-15"/>
    </contour>
    <contour>
      <point x="489" y="10" type="curve" smooth="yes"/>
      <point x="297" y="10"/>
      <point x="163" y="112"/>
      <point x="163" y="246" type="curve" smooth="yes"/>
      <point x="163" y="388"/>
      <point x="297" y="490"/>
      <point x="489" y="490" type="curve" smooth="yes"/>
      <point x="681" y="490"/>
      <point x="815" y="388"/>
      <point x="815" y="246" type="curve" smooth="yes"/>
      <point x="815" y="112"/>
      <point x="681" y="10"/>
    </contour>
    <contour>
      <point x="946" y="345" type="line"/>
      <point x="979" y="426"/>
      <point x="1069" y="490"/>
      <point x="1227" y="490" type="curve" smooth="yes"/>
      <point x="1377" y="490"/>
      <point x="1474" y="443"/>
      <point x="1494" y="345" type="curve"/>
    </contour>
  </outline>
</glyph>
<glyph name="florin" format="2">
  <advance width="997"/>
  <unicode hex="0192"/>
  <outline>
    <contour>
      <point x="480" y="547" type="curve" smooth="yes"/>
      <point x="452" y="273" type="line"/>
      <point x="40" y="273" type="line"/>
      <point x="40" y="248" type="line"/>
      <point x="450" y="248" type="line"/>
      <point x="425" y="0" type="line"/>
      <point x="465" y="-12"/>
      <point x="479" y="-30"/>
      <point x="479" y="-72" type="curve" smooth="yes"/>
      <point x="479" y="-144"/>
      <point x="369" y="-189"/>
      <point x="270" y="-189" type="curve" smooth="yes"/>
      <point x="143" y="-189"/>
      <point x="53" y="-124"/>
      <point x="1" y="-38" type="curve"/>
      <point x="-9" y="-38" type="line"/>
      <point x="30" y="-166" type="line"/>
      <point x="89" y="-200"/>
      <point x="152" y="-215"/>
      <point x="235" y="-215" type="curve" smooth="yes"/>
      <point x="366" y="-215"/>
      <point x="505" y="-161"/>
      <point x="517" y="-47" type="curve" smooth="yes"/>
      <point x="547" y="248" type="line"/>
      <point x="957" y="248" type="line"/>
      <point x="957" y="273" type="line"/>
      <point x="549" y="273" type="line"/>
      <point x="572" y="500" type="line"/>
      <point x="531" y="518"/>
      <point x="518" y="533"/>
      <point x="518" y="572" type="curve" smooth="yes"/>
      <point x="518" y="644"/>
      <point x="628" y="689"/>
      <point x="727" y="689" type="curve" smooth="yes"/>
      <point x="854" y="689"/>
      <point x="944" y="624"/>
      <point x="996" y="538" type="curve"/>
      <point x="1006" y="538" type="line"/>
      <point x="967" y="666" type="line"/>
      <point x="908" y="700"/>
      <point x="845" y="715"/>
      <point x="762" y="715" type="curve" smooth="yes"/>
      <point x="631" y="715"/>
      <point x="492" y="661"/>
    </contour>
  </outline>
</glyph>
<glyph name="jdotless" format="2">
  <advance width="359"/>
  <unicode hex="0237"/>
  <anchor x="180" y="-200" name="bottom"/>
  <anchor x="180" y="500" name="top"/>
  <outline>
    <contour>
      <point x="19" y="-216" type="curve" smooth="yes"/>
      <point x="171" y="-216"/>
      <point x="285" y="-140"/>
      <point x="285" y="42" type="curve" smooth="yes"/>
      <point x="285" y="500" type="line"/>
      <point x="23" y="500" type="line"/>
      <point x="23" y="490" type="line"/>
      <point x="107" y="483"/>
      <point x="193" y="463"/>
      <point x="193" y="376" type="curve" smooth="yes"/>
      <point x="193" y="13" type="line" smooth="yes"/>
      <point x="193" y="-123"/>
      <point x="97" y="-189"/>
      <point x="4" y="-189" type="curve" smooth="yes"/>
      <point x="-92" y="-189"/>
      <point x="-171" y="-139"/>
      <point x="-209" y="-74" type="curve"/>
      <point x="-230" y="-87" type="line"/>
      <point x="-187" y="-163"/>
      <point x="-92" y="-216"/>
    </contour>
  </outline>
</glyph>
<glyph name="gravecomb" format="2">
  <advance width="932"/>
  <unicode hex="0300"/>
  <anchor x="409" y="500" name="_top"/>
  <anchor x="409" y="766" name="top"/>
  <outline>
    <contour>
      <point x="250" y="726" type="line"/>
      <point x="559" y="565" type="line"/>
      <point x="567" y="580" type="line"/>
      <point x="280" y="766" type="line"/>
    </contour>
  </outline>
</glyph>
<glyph name="acutecomb" format="2">
  <advance width="932"/>
  <unicode hex="0301"/>
  <anchor x="527" y="500" name="_top"/>
  <anchor x="527" y="766" name="top"/>
  <outline>
    <contour>
      <point x="685" y="726" type="line"/>
      <point x="655" y="766" type="line"/>
      <point x="368" y="580" type="line"/>
      <point x="376" y="565" type="line"/>
    </contour>
  </outline>
</glyph>
<glyph name="circumflexcomb" format="2">
  <advance width="932"/>
  <unicode hex="0302"/>
  <anchor x="502" y="500" name="_top"/>
  <anchor x="502" y="751" name="top"/>
  <outline>
    <contour>
      <point x="752" y="580" type="line"/>
      <point x="502" y="751" type="line"/>
      <point x="252" y="580" type="line"/>
      <point x="260" y="565" type="line"/>
      <point x="502" y="695" type="line"/>
      <point x="744" y="565" type="line"/>
    </contour>
  </outline>
</glyph>
<glyph name="tildecomb" format="2">
  <advance width="1135"/>
  <unicode hex="0303"/>
  <anchor x="590" y="500" name="_top"/>
  <anchor x="590" y="702" name="top"/>
  <outline>
    <contour>
      <point x="380" y="661" type="curve" smooth="yes"/>
      <point x="500" y="661"/>
      <point x="628" y="565"/>
      <point x="754" y="565" type="curve" smooth="yes"/>
      <point x="823" y="565"/>
      <point x="895" y="580"/>
      <point x="895" y="678" type="curve"/>
      <point x="885" y="678" type="line"/>
      <point x="885" y="615"/>
      <point x="843" y="606"/>
      <point x="799" y="606" type="curve" smooth="yes"/>
      <point x="679" y="606"/>
      <point x="551" y="702"/>
      <point x="425" y="702" type="curve" smooth="yes"/>
      <point x="356" y="702"/>
      <point x="284" y="687"/>
      <point x="284" y="589" type="curve"/>
      <point x="294" y="589" type="line"/>
      <point x="294" y="652"/>
      <point x="336" y="661"/>
    </contour>
  </outline>
</glyph>
<glyph name="macroncomb" format="2">
  <advance width="600"/>
  <unicode hex="0304"/>
  <anchor x="357" y="530" name="_top"/>
  <anchor x="357" y="692" name="top"/>
  <outline>
    <contour>
      <point x="92" y="692" type="line"/>
      <point x="92" y="657" type="line"/>
      <point x="612" y="657" type="line"/>
      <point x="612" y="692" type="line"/>
    </contour>
  </outline>
</glyph>
<glyph name="brevecomb" format="2">
  <advance width="600"/>
  <unicode hex="0306"/>
  <anchor x="293" y="500" name="_top"/>
  <anchor x="293" y="736" name="top"/>
  <outline>
    <contour>
      <point x="60" y="736" type="line"/>
      <point x="60" y="632"/>
      <point x="151" y="565"/>
      <point x="293" y="565" type="curve" smooth="yes"/>
      <point x="435" y="565"/>
      <point x="526" y="632"/>
      <point x="526" y="736" type="curve"/>
      <point x="508" y="736" type="line"/>
      <point x="508" y="666"/>
      <point x="430" y="613"/>
      <point x="293" y="613" type="curve" smooth="yes"/>
      <point x="156" y="613"/>
      <point x="78" y="666"/>
      <point x="78" y="736" type="curve"/>
    </contour>
  </outline>
</glyph>
<glyph name="dotaccentcomb" format="2">
  <advance width="600"/>
  <unicode hex="0307"/>
  <anchor x="306" y="500" name="_top"/>
  <anchor x="306" y="674" name="top"/>
  <outline>
    <contour>
      <point x="306" y="575" type="curve" smooth="yes"/>
      <point x="343" y="575"/>
      <point x="367" y="597"/>
      <point x="367" y="624" type="curve" smooth="yes"/>
      <point x="367" y="652"/>
      <point x="343" y="674"/>
      <point x="306" y="674" type="curve" smooth="yes"/>
      <point x="269" y="674"/>
      <point x="245" y="652"/>
      <point x="245" y="624" type="curve" smooth="yes"/>
      <point x="245" y="597"/>
      <point x="269" y="575"/>
    </contour>
  </outline>
</glyph>
<glyph name="dieresiscomb" format="2">
  <advance width="932"/>
  <unicode hex="0308"/>
  <anchor x="494" y="500" name="_top"/>
  <anchor x="494" y="674" name="top"/>
  <outline>
    <contour>
      <point x="401" y="575" type="curve" smooth="yes"/>
      <point x="438" y="575"/>
      <point x="462" y="597"/>
      <point x="462" y="624" type="curve" smooth="yes"/>
      <point x="462" y="652"/>
      <point x="438" y="674"/>
      <point x="401" y="674" type="curve" smooth="yes"/>
      <point x="364" y="674"/>
      <point x="340" y="652"/>
      <point x="340" y="624" type="curve" smooth="yes"/>
      <point x="340" y="597"/>
      <point x="364" y="575"/>
    </contour>
    <contour>
      <point x="586" y="575" type="curve" smooth="yes"/>
      <point x="623" y="575"/>
      <point x="647" y="597"/>
      <point x="647" y="624" type="curve" smooth="yes"/>
      <point x="647" y="652"/>
      <point x="623" y="674"/>
      <point x="586" y="674" type="curve" smooth="yes"/>
      <point x="549" y="674"/>
      <point x="525" y="652"/>
      <point x="525" y="624" type="curve" smooth="yes"/>
      <point x="525" y="597"/>
      <point x="549" y="575"/>
    </contour>
  </outline>
</glyph>
<glyph name="ringcomb" format="2">
  <advance width="940"/>
  <unicode hex="030A"/>
  <anchor x="478" y="500" name="_top"/>
  <anchor x="472" y="772" name="top"/>
  <outline>
    <contour>
      <point x="472" y="597" type="curve" smooth="yes"/>
      <point x="603" y="597"/>
      <point x="711" y="624"/>
      <point x="711" y="684" type="curve" smooth="yes"/>
      <point x="711" y="745"/>
      <point x="603" y="772"/>
      <point x="472" y="772" type="curve" smooth="yes"/>
      <point x="341" y="772"/>
      <point x="233" y="745"/>
      <point x="233" y="684" type="curve" smooth="yes"/>
      <point x="233" y="624"/>
      <point x="341" y="597"/>
    </contour>
    <contour>
      <point x="472" y="622" type="curve" smooth="yes"/>
      <point x="378" y="622"/>
      <point x="267" y="640"/>
      <point x="267" y="684" type="curve" smooth="yes"/>
      <point x="267" y="729"/>
      <point x="378" y="747"/>
      <point x="472" y="747" type="curve" smooth="yes"/>
      <point x="566" y="747"/>
      <point x="677" y="729"/>
      <point x="677" y="684" type="curve" smooth="yes"/>
      <point x="677" y="640"/>
      <point x="566" y="622"/>
    </contour>
  </outline>
</glyph>
<glyph name="hungarumlautcomb" format="2">
  <advance width="600"/>
  <unicode hex="030B"/>
  <anchor x="332" y="500" name="_top"/>
  <anchor x="332" y="766" name="top"/>
  <outline>
    <contour>
      <point x="385" y="726" type="line"/>
      <point x="355" y="766" type="line"/>
      <point x="68" y="580" type="line"/>
      <point x="76" y="565" type="line"/>
    </contour>
    <contour>
      <point x="595" y="700" type="line"/>
      <point x="570" y="743" type="line"/>
      <point x="264" y="589" type="line"/>
      <point x="271" y="573" type="line"/>
    </contour>
  </outline>
</glyph>
<glyph name="caroncomb" format="2">
  <advance width="600"/>
  <unicode hex="030C"/>
  <anchor x="293" y="500" name="_top"/>
  <anchor x="293" y="751" name="top"/>
  <outline>
    <contour>
      <point x="43" y="736" type="line"/>
      <point x="293" y="565" type="line"/>
      <point x="543" y="736" type="line"/>
      <point x="535" y="751" type="line"/>
      <point x="293" y="621" type="line"/>
      <point x="51" y="751" type="line"/>
    </contour>
  </outline>
</glyph>
<glyph name="commaturnedabovecomb" format="2">
  <advance width="600"/>
  <unicode hex="0312"/>
  <anchor x="318" y="500" name="_top"/>
  <anchor x="318" y="814" name="top"/>
  <outline>
    <contour>
      <point x="321" y="814" type="line"/>
      <point x="266" y="789"/>
      <point x="239" y="726"/>
      <point x="239" y="657" type="curve" smooth="yes"/>
      <point x="239" y="603"/>
      <point x="256" y="538"/>
      <point x="321" y="538" type="curve" smooth="yes"/>
      <point x="356" y="538"/>
      <point x="396" y="557"/>
      <point x="396" y="605" type="curve" smooth="yes"/>
      <point x="396" y="640"/>
      <point x="368" y="665"/>
      <point x="329" y="665" type="curve" smooth="yes"/>
      <point x="300" y="665"/>
      <point x="281" y="655"/>
      <point x="268" y="644" type="curve"/>
      <point x="258" y="691"/>
      <point x="268" y="770"/>
      <point x="328" y="797" type="curve"/>
    </contour>
  </outline>
</glyph>
<glyph name="commaaccentcomb" format="2">
  <advance width="600"/>
  <unicode hex="0326"/>
  <anchor x="300" y="0" name="_bottom"/>
  <anchor x="300" y="-251" name="bottom"/>
  <outline>
    <contour>
      <point x="261" y="-291" type="line"/>
      <point x="330" y="-276"/>
      <point x="367" y="-209"/>
      <point x="367" y="-110" type="curve" smooth="yes"/>
      <point x="367" y="-69"/>
      <point x="343" y="-49"/>
      <point x="300" y="-49" type="curve" smooth="yes"/>
      <point x="257" y="-49"/>
      <point x="233" y="-74"/>
      <point x="233" y="-105" type="curve" smooth="yes"/>
      <point x="233" y="-137"/>
      <point x="257" y="-159"/>
      <point x="300" y="-159" type="curve" smooth="yes"/>
      <point x="315" y="-159"/>
      <point x="327" y="-159"/>
      <point x="339" y="-152" type="curve"/>
      <point x="339" y="-201"/>
      <point x="310" y="-264"/>
      <point x="258" y="-275" type="curve"/>
    </contour>
  </outline>
</glyph>
<glyph name="cedillacomb" format="2">
  <advance width="600"/>
  <unicode hex="0327"/>
  <anchor x="314" y="0" name="_bottom"/>
  <anchor x="314" y="-216" name="bottom"/>
  <outline>
    <contour>
      <point x="190" y="-178" type="curve"/>
      <point x="183" y="-196" type="line"/>
      <point x="208" y="-209"/>
      <point x="247" y="-216"/>
      <point x="287" y="-216" type="curve" smooth="yes"/>
      <point x="363" y="-216"/>
      <point x="444" y="-191"/>
      <point x="444" y="-138" type="curve" smooth="yes"/>
      <point x="444" y="-94"/>
      <point x="389" y="-59"/>
      <point x="279" y="-59" type="curve"/>
      <point x="309" y="-4" type="line"/>
      <point x="279" y="-4" type="line"/>
      <point x="245" y="-60" type="line"/>
      <point x="245" y="-82" type="line"/>
      <point x="304" y="-82"/>
      <point x="390" y="-90"/>
      <point x="390" y="-139" type="curve" smooth="yes"/>
      <point x="390" y="-177"/>
      <point x="336" y="-197"/>
      <point x="277" y="-197" type="curve" smooth="yes"/>
      <point x="245" y="-197"/>
      <point x="213" y="-191"/>
    </contour>
  </outline>
</glyph>
<glyph name="ogonekcomb" format="2">
  <advance width="600"/>
  <unicode hex="0328"/>
  <anchor x="413" y="18" name="_ogonek"/>
  <outline>
    <contour>
      <point x="244" y="18" type="line"/>
      <point x="86" y="-62"/>
      <point x="76" y="-233"/>
      <point x="247" y="-233" type="curve" smooth="yes"/>
      <point x="312" y="-233"/>
      <point x="372" y="-208"/>
      <point x="413" y="-179" type="curve"/>
      <point x="402" y="-162" type="line"/>
      <point x="379" y="-178"/>
      <point x="350" y="-195"/>
      <point x="295" y="-195" type="curve" smooth="yes"/>
      <point x="144" y="-195"/>
      <point x="139" y="-60"/>
      <point x="260" y="6" type="curve"/>
    </contour>
  </outline>
</glyph>
<glyph name="mu" format="2">
  <advance width="1081"/>
  <unicode hex="03BC"/>
  <outline>
    <contour>
      <point x="234" y="236" type="line"/>
      <point x="142" y="236" type="line"/>
      <point x="142" y="180" type="line" smooth="yes"/>
      <point x="142" y="37"/>
      <point x="305" y="-12"/>
      <point x="514" y="-12" type="curve" smooth="yes"/>
      <point x="630" y="-12"/>
      <point x="729" y="24"/>
      <point x="797" y="83" type="curve"/>
      <point x="797" y="0" type="line"/>
      <point x="1059" y="0" type="line"/>
      <point x="1059" y="10" type="line"/>
      <point x="975" y="16"/>
      <point x="889" y="37"/>
      <point x="889" y="124" type="curve" smooth="yes"/>
      <point x="889" y="500" type="line"/>
      <point x="797" y="500" type="line"/>
      <point x="797" y="194" type="line" smooth="yes"/>
      <point x="797" y="94"/>
      <point x="683" y="13"/>
      <point x="515" y="13" type="curve" smooth="yes"/>
      <point x="373" y="13"/>
      <point x="234" y="66"/>
      <point x="234" y="195" type="curve" smooth="yes"/>
    </contour>
    <contour>
      <point x="142" y="-200" type="line"/>
      <point x="234" y="-200" type="line"/>
      <point x="234" y="500" type="line"/>
      <point x="142" y="500" type="line"/>
    </contour>
  </outline>
</glyph>
<glyph name="endash" format="2">
  <advance width="570"/>
  <unicode hex="2013"/>
  <outline>
    <contour>
      <point x="94" y="266" type="line"/>
      <point x="94" y="241" type="line"/>
      <point x="476" y="241" type="line"/>
      <point x="476" y="266" type="line"/>
    </contour>
  </outline>
</glyph>
<glyph name="emdash" format="2">
  <advance width="740"/>
  <unicode hex="2014"/>
  <outline>
    <contour>
      <point x="94" y="266" type="line"/>
      <point x="94" y="241" type="line"/>
      <point x="646" y="241" type="line"/>
      <point x="646" y="266" type="line"/>
    </contour>
  </outline>
</glyph>
<glyph name="quotedblleft" format="2">
  <advance width="534"/>
  <unicode hex="201C"/>
  <outline>
    <contour>
      <point x="187" y="714" type="line"/>
      <point x="114" y="691"/>
      <point x="97" y="634"/>
      <point x="97" y="547" type="curve" smooth="yes"/>
      <point x="97" y="510"/>
      <point x="127" y="487"/>
      <point x="172" y="487" type="curve" smooth="yes"/>
      <point x="219" y="487"/>
      <point x="247" y="512"/>
      <point x="247" y="547" type="curve" smooth="yes"/>
      <point x="247" y="582"/>
      <point x="220" y="607"/>
      <point x="172" y="607" type="curve" smooth="yes"/>
      <point x="158" y="607"/>
      <point x="141" y="606"/>
      <point x="128" y="598" type="curve"/>
      <point x="128" y="653"/>
      <point x="155" y="687"/>
      <point x="194" y="698" type="curve"/>
    </contour>
    <contour>
      <point x="397" y="714" type="line"/>
      <point x="327" y="685"/>
      <point x="307" y="634"/>
      <point x="307" y="547" type="curve" smooth="yes"/>
      <point x="307" y="510"/>
      <point x="337" y="487"/>
      <point x="382" y="487" type="curve" smooth="yes"/>
      <point x="429" y="487"/>
      <point x="457" y="512"/>
      <point x="457" y="547" type="curve" smooth="yes"/>
      <point x="457" y="582"/>
      <point x="430" y="607"/>
      <point x="382" y="607" type="curve" smooth="yes"/>
      <point x="368" y="607"/>
      <point x="351" y="606"/>
      <point x="338" y="598" type="curve"/>
      <point x="338" y="653"/>
      <point x="368" y="681"/>
      <point x="404" y="698" type="curve"/>
    </contour>
  </outline>
</glyph>
<glyph name="dagger" format="2">
  <advance width="608"/>
  <unicode hex="2020"/>
  <outline>
    <contour>
      <point x="299" y="-200" type="line"/>
      <point x="309" y="-200" type="line"/>
      <point x="394" y="331" type="line"/>
      <point x="346" y="333"/>
      <point x="317" y="387"/>
      <point x="317" y="492" type="curve" smooth="yes"/>
      <point x="317" y="673"/>
      <point x="397" y="684"/>
      <point x="480" y="690" type="curve"/>
      <point x="480" y="699" type="line"/>
      <point x="128" y="699" type="line"/>
      <point x="128" y="690" type="line"/>
      <point x="211" y="684"/>
      <point x="292" y="673"/>
      <point x="292" y="492" type="curve" smooth="yes"/>
      <point x="292" y="387"/>
      <point x="262" y="333"/>
      <point x="214" y="331" type="curve"/>
    </contour>
    <contour>
      <point x="528" y="500" type="line"/>
      <point x="80" y="500" type="line"/>
      <point x="80" y="475" type="line"/>
      <point x="528" y="475" type="line"/>
    </contour>
  </outline>
</glyph>
<glyph name="daggerdbl" format="2">
  <advance width="600"/>
  <unicode hex="2021"/>
  <outline>
    <contour>
      <point x="292" y="250" type="line"/>
      <point x="214" y="29" type="line"/>
      <point x="262" y="27"/>
      <point x="292" y="13"/>
      <point x="292" y="-72" type="curve" smooth="yes"/>
      <point x="292" y="-183"/>
      <point x="211" y="-184"/>
      <point x="128" y="-190" type="curve"/>
      <point x="128" y="-199" type="line"/>
      <point x="480" y="-199" type="line"/>
      <point x="480" y="-190" type="line"/>
      <point x="397" y="-184"/>
      <point x="317" y="-183"/>
      <point x="317" y="-72" type="curve" smooth="yes"/>
      <point x="317" y="13"/>
      <point x="346" y="27"/>
      <point x="394" y="29" type="curve"/>
      <point x="317" y="250" type="line"/>
      <point x="394" y="471" type="line"/>
      <point x="346" y="473"/>
      <point x="317" y="487"/>
      <point x="317" y="572" type="curve" smooth="yes"/>
      <point x="317" y="683"/>
      <point x="397" y="684"/>
      <point x="480" y="690" type="curve"/>
      <point x="480" y="699" type="line"/>
      <point x="128" y="699" type="line"/>
      <point x="128" y="690" type="line"/>
      <point x="211" y="684"/>
      <point x="292" y="683"/>
      <point x="292" y="572" type="curve" smooth="yes"/>
      <point x="292" y="487"/>
      <point x="262" y="473"/>
      <point x="214" y="471" type="curve"/>
    </contour>
    <contour>
      <point x="528" y="590" type="line"/>
      <point x="80" y="590" type="line"/>
      <point x="80" y="565" type="line"/>
      <point x="528" y="565" type="line"/>
    </contour>
    <contour>
      <point x="528" y="-90" type="line"/>
      <point x="528" y="-65" type="line"/>
      <point x="80" y="-65" type="line"/>
      <point x="80" y="-90" type="line"/>
    </contour>
  </outline>
</glyph>
<glyph name="bullet" format="2">
  <advance width="492"/>
  <unicode hex="2022"/>
  <outline>
    <contour>
      <point x="382" y="269" type="curve" smooth="yes"/>
      <point x="382" y="340"/>
      <point x="329" y="386"/>
      <point x="245" y="386" type="curve" smooth="yes"/>
      <point x="162" y="386"/>
      <point x="110" y="340"/>
      <point x="110" y="269" type="curve" smooth="yes"/>
      <point x="110" y="199"/>
      <point x="162" y="154"/>
      <point x="245" y="154" type="curve" smooth="yes"/>
      <point x="329" y="154"/>
      <point x="382" y="199"/>
    </contour>
  </outline>
</glyph>
<glyph name="guilsinglleft" format="2">
  <advance width="314"/>
  <unicode hex="2039"/>
  <outline>
    <contour>
      <point x="241" y="511" type="line"/>
      <point x="50" y="261" type="line"/>
      <point x="241" y="11" type="line"/>
      <point x="256" y="19" type="line"/>
      <point x="116" y="261" type="line"/>
      <point x="256" y="502" type="line"/>
    </contour>
  </outline>
</glyph>
<glyph name="guilsinglright" format="2">
  <advance width="314"/>
  <unicode hex="203A"/>
  <outline>
    <contour>
      <point x="73" y="511" type="line"/>
      <point x="58" y="502" type="line"/>
      <point x="198" y="261" type="line"/>
      <point x="58" y="19" type="line"/>
      <point x="73" y="11" type="line"/>
      <point x="264" y="261" type="line"/>
    </contour>
  </outline>
</glyph>
<glyph name="euro" format="2">
  <advance width="1363"/>
  <unicode hex="20AC"/>
  <outline>
    <contour>
      <point x="766" y="-15" type="curve" smooth="yes"/>
      <point x="937" y="-15"/>
      <point x="1097" y="10"/>
      <point x="1222" y="63" type="curve"/>
      <point x="1249" y="230" type="line"/>
      <point x="1239" y="230" type="line"/>
      <point x="1163" y="80"/>
      <point x="968" y="11"/>
      <point x="775" y="10" type="curve" smooth="yes"/>
      <point x="491" y="10"/>
      <point x="302" y="150"/>
      <point x="302" y="345" type="curve" smooth="yes"/>
      <point x="302" y="566"/>
      <point x="533" y="690"/>
      <point x="772" y="690" type="curve" smooth="yes"/>
      <point x="966" y="690"/>
      <point x="1163" y="621"/>
      <point x="1239" y="470" type="curve"/>
      <point x="1249" y="470" type="line"/>
      <point x="1222" y="637" type="line"/>
      <point x="1097" y="690"/>
      <point x="937" y="715"/>
      <point x="787" y="715" type="curve" smooth="yes"/>
      <point x="471" y="715"/>
      <point x="182" y="578"/>
      <point x="182" y="345" type="curve" smooth="yes"/>
      <point x="182" y="145"/>
      <point x="444" y="-15"/>
    </contour>
    <contour>
      <point x="93" y="254" type="line"/>
      <point x="1026" y="254" type="line"/>
      <point x="1026" y="279" type="line"/>
      <point x="93" y="278" type="line"/>
    </contour>
    <contour>
      <point x="93" y="421" type="line"/>
      <point x="1026" y="421" type="line"/>
      <point x="1026" y="446" type="line"/>
      <point x="93" y="446" type="line"/>
    </contour>
  </outline>
</glyph>
<glyph name="trademark" format="2">
  <advance width="1175"/>
  <unicode hex="2122"/>
  <outline>
    <contour>
      <point x="486" y="715" type="line"/>
      <point x="68" y="715" type="line"/>
      <point x="68" y="609" type="line"/>
      <point x="72" y="609" type="line"/>
      <point x="75" y="661"/>
      <point x="101" y="700"/>
      <point x="160" y="700" type="curve" smooth="yes"/>
      <point x="255" y="700" type="line"/>
      <point x="255" y="466" type="line" smooth="yes"/>
      <point x="255" y="429"/>
      <point x="210" y="420"/>
      <point x="174" y="417" type="curve"/>
      <point x="174" y="413" type="line"/>
      <point x="381" y="413" type="line"/>
      <point x="381" y="417" type="line"/>
      <point x="344" y="420"/>
      <point x="299" y="429"/>
      <point x="299" y="466" type="curve" smooth="yes"/>
      <point x="299" y="700" type="line"/>
      <point x="394" y="700" type="line" smooth="yes"/>
      <point x="453" y="700"/>
      <point x="478" y="661"/>
      <point x="481" y="609" type="curve"/>
      <point x="486" y="609" type="line"/>
    </contour>
    <contour>
      <point x="1118" y="711" type="curve"/>
      <point x="1118" y="715" type="line"/>
      <point x="993" y="715" type="line"/>
      <point x="821" y="459" type="line"/>
      <point x="645" y="715" type="line"/>
      <point x="521" y="715" type="line"/>
      <point x="521" y="711" type="line"/>
      <point x="557" y="708"/>
      <point x="602" y="699"/>
      <point x="602" y="662" type="curve" smooth="yes"/>
      <point x="602" y="466" type="line" smooth="yes"/>
      <point x="602" y="429"/>
      <point x="557" y="420"/>
      <point x="521" y="417" type="curve"/>
      <point x="521" y="413" type="line"/>
      <point x="699" y="413" type="line"/>
      <point x="699" y="417" type="line"/>
      <point x="663" y="420"/>
      <point x="617" y="429"/>
      <point x="617" y="466" type="curve" smooth="yes"/>
      <point x="617" y="679" type="line"/>
      <point x="805" y="406" type="line"/>
      <point x="993" y="688" type="line"/>
      <point x="993" y="466" type="line" smooth="yes"/>
      <point x="993" y="429"/>
      <point x="947" y="420"/>
      <point x="911" y="417" type="curve"/>
      <point x="911" y="413" type="line"/>
      <point x="1118" y="413" type="line"/>
      <point x="1118" y="417" type="line"/>
      <point x="1082" y="420"/>
      <point x="1036" y="429"/>
      <point x="1036" y="466" type="curve" smooth="yes"/>
      <point x="1036" y="662" type="line" smooth="yes"/>
      <point x="1036" y="699"/>
      <point x="1082" y="708"/>
    </contour>
  </outline>
</glyph>
<glyph name="leftArrow" format="2">
  <advance width="1276"/>
  <unicode hex="2190"/>
  <outline>
    <contour>
      <point x="298" y="63" type="line"/>
      <point x="313" y="71" type="line"/>
      <point x="143" y="253" type="line"/>
      <point x="313" y="434" type="line"/>
      <point x="298" y="443" type="line"/>
      <point x="77" y="253" type="line"/>
    </contour>
    <contour>
      <point x="141" y="241" type="line"/>
      <point x="1193" y="241" type="line"/>
      <point x="1193" y="266" type="line"/>
      <point x="141" y="266" type="line"/>
    </contour>
  </outline>
</glyph>
<glyph name="upArrow" format="2">
  <advance width="520"/>
  <unicode hex="2191"/>
  <outline>
    <contour>
      <point x="79" y="417" type="line"/>
      <point x="260" y="587" type="line"/>
      <point x="442" y="417" type="line"/>
      <point x="450" y="432" type="line"/>
      <point x="260" y="653" type="line"/>
      <point x="70" y="432" type="line"/>
    </contour>
    <contour>
      <point x="247" y="-183" type="line"/>
      <point x="272" y="-183" type="line"/>
      <point x="272" y="589" type="line"/>
      <point x="247" y="589" type="line"/>
    </contour>
  </outline>
</glyph>
<glyph name="rightArrow" format="2">
  <advance width="1277"/>
  <unicode hex="2192"/>
  <outline>
    <contour>
      <point x="978" y="443" type="line"/>
      <point x="963" y="434" type="line"/>
      <point x="1133" y="253" type="line"/>
      <point x="963" y="71" type="line"/>
      <point x="978" y="63" type="line"/>
      <point x="1199" y="253" type="line"/>
    </contour>
    <contour>
      <point x="83" y="241" type="line"/>
      <point x="1135" y="241" type="line"/>
      <point x="1135" y="266" type="line"/>
      <point x="83" y="266" type="line"/>
    </contour>
  </outline>
</glyph>
